<svg width="36" height="37" viewBox="0 0 36 37" fill="none" xmlns="http://www.w3.org/2000/svg">
<path fill-rule="evenodd" clip-rule="evenodd" d="M35.1473 17.5241C35.0865 17.5321 35.0328 17.5392 34.972 17.5392C34.4776 17.5392 34.0439 17.1805 33.9597 16.6652C33.3595 13.0258 31.6853 9.70685 29.1133 7.06699C26.5413 4.43602 23.3074 2.71023 19.7613 2.09343C19.1983 1.99197 18.8253 1.4526 18.9173 0.874967C19.0162 0.30445 19.541 -0.0853889 20.0962 0.016076C24.0682 0.711199 27.6829 2.63191 30.5593 5.58418C33.4349 8.53556 35.3069 12.2453 35.9844 16.3216C36.0832 16.8913 35.7024 17.4378 35.1473 17.5241ZM19.8151 6.72432C22.2266 7.14531 24.4256 8.31661 26.1683 10.1056C27.911 11.8937 29.0526 14.1508 29.4629 16.626C29.5548 17.2037 29.1818 17.7502 28.6188 17.8445C28.5573 17.8516 28.5043 17.8596 28.4436 17.8596C27.9492 17.8596 27.5154 17.501 27.4313 16.9847C27.0895 14.9394 26.1536 13.081 24.7075 11.5964C23.2615 10.1127 21.4511 9.14435 19.4577 8.80079C18.8939 8.70734 18.5287 8.15284 18.6276 7.58321C18.7264 7.0127 19.2521 6.62998 19.8151 6.72432ZM12.9969 13.6818C12.434 14.2674 11.8554 14.8762 11.2317 15.4628C11.6958 16.5166 12.3351 17.5552 13.2867 18.7888C15.2497 21.2649 17.296 23.1776 19.5488 24.6462C19.7691 24.7868 20.0276 24.9195 20.3017 25.0601C20.4917 25.1615 20.6895 25.263 20.8881 25.3716L23.2918 22.9124C24.0604 22.1238 24.9582 21.71 25.8942 21.71C26.838 21.71 27.728 22.1318 28.4662 22.9195L32.6438 27.2229C33.4124 28.0035 33.8157 28.9335 33.8157 29.9019C33.8157 30.8614 33.4202 31.7986 32.6664 32.6032C32.3393 32.9548 32.0045 33.2903 31.6775 33.6107C31.1978 34.0869 30.7415 34.5319 30.3459 35.0241C30.3381 35.0401 30.3234 35.0472 30.3156 35.0633C29.1593 36.352 27.6829 37 25.9254 37C25.7727 37 25.6053 36.992 25.4457 36.984C22.8356 36.8122 20.4995 35.8056 18.7499 34.9538C14.1689 32.6815 10.1587 29.456 6.82591 25.3716C4.07957 21.9832 2.23797 18.82 1.00533 15.4076C0.503074 14.0173 -0.150983 11.8937 0.031181 9.6134C0.153491 8.20001 0.708658 6.98155 1.6828 5.98203L4.26954 3.30389C4.27735 3.29588 4.27735 3.29588 4.28515 3.28787C5.04591 2.53845 5.94372 2.13971 6.87189 2.13971C7.80006 2.13971 8.68312 2.53845 9.42132 3.28787C9.91577 3.75603 10.3946 4.25624 10.8517 4.74042C11.0799 4.99052 11.3236 5.24062 11.5587 5.48182L13.6363 7.61437C15.2341 9.25382 15.2341 11.3784 13.6363 13.0178C13.4229 13.2368 13.2103 13.4628 12.9969 13.6818ZM12.1902 9.10607L10.1135 6.97353C9.86979 6.71631 9.62604 6.46621 9.39009 6.21611C8.92601 5.72392 8.48534 5.26376 8.02126 4.81874C8.01345 4.81073 8.00564 4.80272 7.99784 4.79471C7.75495 4.5455 7.36633 4.24822 6.8875 4.24822C6.49888 4.24822 6.10333 4.44403 5.73032 4.80272L3.13578 7.46573C2.50428 8.11368 2.16164 8.8711 2.08617 9.78518C1.97166 11.2146 2.23017 12.7294 2.93801 14.6733C4.08738 17.8596 5.82141 20.827 8.41681 24.0365C11.5587 27.8869 15.3408 30.9246 19.6477 33.0642C21.223 33.8368 23.3231 34.7429 25.5828 34.8915C25.6964 34.8995 25.8187 34.8995 25.9324 34.8995C27.1199 34.8995 28.0255 34.5008 28.7932 33.6579C29.2651 33.0874 29.7673 32.58 30.2618 32.0959C30.5897 31.7674 30.8933 31.4711 31.1908 31.1435C31.9663 30.3149 31.9663 29.4952 31.183 28.6986L26.9906 24.3961C26.9828 24.3881 26.9828 24.3881 26.975 24.3801C26.7391 24.1149 26.3513 23.8105 25.8794 23.8105C25.3997 23.8105 24.9894 24.1309 24.7301 24.3961L22.1277 27.0671C21.9985 27.1997 21.6029 27.6056 20.9714 27.6056C20.7207 27.6056 20.477 27.5433 20.2185 27.4098C20.1881 27.3947 20.1577 27.3715 20.1265 27.3555C19.9062 27.2149 19.6477 27.0823 19.3736 26.9416C19.0691 26.7859 18.7499 26.6212 18.4376 26.4183C15.9949 24.8331 13.7811 22.7638 11.681 20.1088L11.6732 20.1008C10.5169 18.5939 9.75529 17.3283 9.21574 15.9852C9.20793 15.9621 9.20012 15.9389 9.19232 15.9149C9.05526 15.4699 8.93382 14.8139 9.58874 14.1428C9.59568 14.1268 9.61129 14.1188 9.62604 14.1037C10.2888 13.4949 10.8969 12.8692 11.5362 12.1981C11.7574 11.9791 11.9699 11.7531 12.1902 11.5261C12.9969 10.6993 12.9969 9.93381 12.1902 9.10607Z" fill="#212529"/>
</svg>
