<svg width="32" height="39" viewBox="0 0 32 39" fill="none" xmlns="http://www.w3.org/2000/svg">
<path d="M17.7777 0C9.93407 0 3.55536 6.55931 3.55536 14.625V16.7749L0.125412 23.829C-0.0594786 24.2068 -0.0381452 24.6553 0.17756 25.0136C0.393265 25.3719 0.774898 25.5938 1.18497 25.5938H3.55536V31.4632C3.55536 32.1799 3.85877 32.8551 4.39211 33.3182C4.92544 33.7813 5.6176 33.9836 6.30975 33.8642L10.6665 33.1232V37.7812C10.6665 38.1396 10.8182 38.4808 11.0861 38.7099C11.3018 38.8976 11.572 39 11.8517 39C11.9157 39 11.9821 38.9951 12.0461 38.9829L26.2684 36.5454C26.8397 36.4479 27.2592 35.9409 27.2592 35.3438V27.8338C27.2592 26.1373 28.0699 24.7772 28.7502 23.9314C30.8456 21.3281 32 18.0229 32 14.625C32 6.55931 25.6213 0 17.7777 0Z" fill="url(#paint0_linear_250_569)"/>
<path d="M11.2955 17.4779C11.2021 17.389 11.1278 17.2822 11.077 17.1637C11.0262 17.0453 11 16.9177 11 16.7889C11 16.66 11.0262 16.5325 11.077 16.414C11.1278 16.2956 11.2021 16.1887 11.2955 16.0999L11.2625 16.1309C11.4568 15.947 11.7143 15.8448 11.9818 15.8455C12.2493 15.8463 12.5063 15.9499 12.6995 16.1349L15.5795 18.9049L22.4645 12.2829C22.6584 12.101 22.9143 11.9998 23.1802 12C23.4461 12.0002 23.7019 12.1017 23.8955 12.2839L23.8625 12.2529C23.9565 12.3419 24.0313 12.4492 24.0823 12.5681C24.1333 12.6871 24.1594 12.8153 24.159 12.9447C24.1587 13.0742 24.1318 13.2022 24.0801 13.3209C24.0284 13.4396 23.953 13.5464 23.8585 13.6349L16.3005 20.9029C16.1061 21.0858 15.8494 21.1881 15.5825 21.1891C15.3155 21.19 15.0582 21.0895 14.8625 20.9079L11.2955 17.4779Z" fill="white"/>
<defs>
<linearGradient id="paint0_linear_250_569" x1="6.22217" y1="4.83918e-07" x2="29.4148" y2="35.1318" gradientUnits="userSpaceOnUse">
<stop stop-color="#2764E0"/>
<stop offset="1" stop-color="#DD0858"/>
</linearGradient>
</defs>
</svg>
