<svg width="18" height="18" viewBox="0 0 18 18" fill="none" xmlns="http://www.w3.org/2000/svg">
<path d="M8.93582 0.00105202C8.86908 0.00320202 8.8014 0.00784221 8.73465 0.0166782C8.38157 0.0633232 8.04653 0.201911 7.76007 0.417089C7.7594 0.417087 7.75874 0.417087 7.75807 0.417089L1.00246 5.50133C0.390767 5.96159 0.00623856 6.72759 0.00444256 7.49362C-0.00212744 10.2948 0.000532499 13.1037 0.000532499 15.4999C0.000532499 16.8764 1.12423 18 2.50046 18H15.5001C16.8763 18 18 16.8764 18 15.4999V7.49947C18 6.73328 17.6162 5.96568 17.0039 5.50523C14.635 3.72366 12.2682 1.94149 10.2424 0.417089C9.8633 0.132283 9.40294 -0.0139723 8.93582 0.00105202ZM2.50046 6.99945H15.5001C15.6027 6.99934 15.7028 7.03082 15.787 7.0896C15.8711 7.14838 15.9351 7.23163 15.9703 7.32803C16.0055 7.42444 16.0101 7.52934 15.9837 7.62849C15.9572 7.72765 15.9009 7.81626 15.8223 7.88231L10.2893 12.531C9.54452 13.1566 8.45602 13.1566 7.71124 12.531L2.17821 7.88231C2.09966 7.81626 2.04333 7.72765 2.01687 7.62849C1.99041 7.52934 1.99509 7.42444 2.03028 7.32803C2.06547 7.23163 2.12946 7.14838 2.21357 7.0896C2.29769 7.03082 2.39785 6.99934 2.50046 6.99945Z" fill="url(#paint0_linear_1_649)"/>
<defs>
<linearGradient id="paint0_linear_1_649" x1="3.49997" y1="2.23347e-07" x2="13.25" y2="17.9999" gradientUnits="userSpaceOnUse">
<stop stop-color="#2764E0"/>
<stop offset="1" stop-color="#DD0858"/>
</linearGradient>
</defs>
</svg>
