<svg width="18" height="15" viewBox="0 0 18 15" fill="none" xmlns="http://www.w3.org/2000/svg">
<path fill-rule="evenodd" clip-rule="evenodd" d="M1.23701 6.45741C6.06722 4.34055 9.28817 2.94497 10.8997 2.27075C15.5011 0.345624 16.4573 0.0111836 17.0804 0.000115871C17.2175 -0.00229298 17.524 0.031887 17.7225 0.193931C18.017 0.434296 18.0187 0.956041 17.986 1.30135C17.7366 3.93677 16.6577 10.3322 16.1087 13.2838C15.8764 14.5328 15.4191 14.9516 14.9764 14.9926C14.0142 15.0816 13.2836 14.3529 12.3516 13.7385C10.8934 12.7769 10.0695 12.1783 8.65394 11.24C7.01807 10.1557 8.07856 9.55969 9.01083 8.58567C9.25483 8.33078 13.4943 4.45194 13.5763 4.10005C13.5866 4.05604 13.5961 3.89198 13.4992 3.80539C13.4023 3.7188 13.2594 3.74836 13.1562 3.77193C13.0099 3.80532 10.6803 5.35422 6.16729 8.41854C5.50601 8.87531 4.90707 9.09784 4.37045 9.08619C3.77881 9.07336 2.64085 8.74973 1.79486 8.4731C0.757221 8.13384 -0.0674798 7.95441 0.00436272 7.37824C0.0417726 7.07805 0.452634 6.77115 1.23701 6.45741Z" fill="url(#paint0_linear_1_655)"/>
<defs>
<linearGradient id="paint0_linear_1_655" x1="3.49997" y1="1.86122e-07" x2="10.7751" y2="16.1171" gradientUnits="userSpaceOnUse">
<stop stop-color="#2764E0"/>
<stop offset="1" stop-color="#DD0858"/>
</linearGradient>
</defs>
</svg>
