<svg width="38" height="28" viewBox="0 0 38 28" fill="none" xmlns="http://www.w3.org/2000/svg">
<path fill-rule="evenodd" clip-rule="evenodd" d="M33.3533 28H4.64671C2.08386 28 0 25.9823 0 23.5005V4.49952C0 2.0177 2.08386 0 4.64671 0H33.3612C35.9249 0 38.0079 2.02533 38 4.50715V23.5005C38 25.9823 35.917 28 33.3533 28ZM35.8772 23.5005V4.50715C35.8772 3.15976 34.7452 2.06267 33.3533 2.06267H4.64671C3.25482 2.06267 2.12275 3.15976 2.12275 4.50715V23.5005C2.12275 24.8479 3.25482 25.945 4.64671 25.945H33.3612C34.7531 25.945 35.8852 24.8479 35.8852 23.5005H35.8772ZM33.3382 23.7975C33.1253 24.0104 32.8504 24.1173 32.5676 24.1173C32.3078 24.1173 32.0409 24.0257 31.8359 23.8356L22.3852 15.1421L19.7357 17.4415C19.5386 17.6162 19.2797 17.7079 19.0278 17.7079C18.776 17.7079 18.5241 17.6239 18.3199 17.4491L15.7412 15.2176L6.23479 23.828C6.03065 24.0104 5.77083 24.1021 5.51189 24.1021C5.22909 24.1021 4.94541 23.9875 4.73332 23.7745C4.3321 23.3562 4.35596 22.7088 4.78015 22.3211L14.1452 13.8329L4.74127 5.69418C4.30117 5.31406 4.2614 4.66667 4.65466 4.24073C5.04793 3.81394 5.71604 3.77576 6.15614 4.15673L16.3306 12.9725C16.3934 13.0183 16.4491 13.0633 16.5039 13.1167C16.5039 13.1244 16.5118 13.132 16.5198 13.1396L19.0199 15.3016L31.8359 4.16436C32.276 3.78339 32.945 3.82158 33.3382 4.24073C33.7306 4.66667 33.6917 5.31406 33.2596 5.69418L23.9653 13.7641L33.2985 22.3432C33.7227 22.7318 33.7386 23.3868 33.3382 23.7975Z" fill="#212529"/>
</svg>
