<svg width="18" height="18" viewBox="0 0 18 18" fill="none" xmlns="http://www.w3.org/2000/svg">
<path d="M17.75 12.4065V16.6812C17.7502 16.8284 17.7208 16.974 17.6635 17.1096C17.6061 17.2451 17.5221 17.3677 17.4164 17.4701C17.2321 17.6494 16.9852 17.7498 16.7281 17.75C16.7137 17.75 16.6993 17.7497 16.685 17.749C12.386 17.5654 8.31316 15.7726 5.27447 12.7261C2.22757 9.68724 0.43444 5.61401 0.250903 1.31466C0.245153 1.18023 0.266925 1.04604 0.314883 0.920328C0.362842 0.794614 0.435977 0.680021 0.529802 0.583579C0.632164 0.477874 0.754763 0.393861 0.89029 0.336551C1.02582 0.279241 1.1715 0.249806 1.31864 0.250001H5.59336C5.84577 0.251076 6.08943 0.342599 6.28013 0.507962C6.47083 0.673325 6.59593 0.901571 6.63273 1.15128L7.19736 5.10366C7.22003 5.26502 7.205 5.42945 7.15347 5.58403C7.10194 5.73862 7.0153 5.87917 6.90035 5.99466L5.2239 7.67109C5.16817 7.72574 5.13216 7.79734 5.12152 7.87466C5.11088 7.95199 5.12621 8.03065 5.1651 8.09832C6.34838 10.0286 7.97151 11.6516 9.90191 12.8347C9.9695 12.8735 10.048 12.8888 10.1252 12.8781C10.2024 12.8675 10.2739 12.8315 10.3285 12.7759L12.0053 11.0996C12.1208 10.9848 12.2613 10.8982 12.4158 10.8467C12.5703 10.7952 12.7347 10.7801 12.896 10.8025L16.8484 11.3672C17.0982 11.4039 17.3265 11.529 17.4919 11.7197C17.6573 11.9104 17.7489 12.1541 17.75 12.4065Z" fill="url(#paint0_linear_1_643)"/>
<defs>
<linearGradient id="paint0_linear_1_643" x1="3.65275" y1="0.25" x2="13.132" y2="17.7499" gradientUnits="userSpaceOnUse">
<stop stop-color="#2764E0"/>
<stop offset="1" stop-color="#DD0858"/>
</linearGradient>
</defs>
</svg>
