<svg width="60" height="60" viewBox="0 0 60 60" fill="none" xmlns="http://www.w3.org/2000/svg">
<path d="M23.8562 38.9999V36.3409L30.0693 30.588C30.5977 30.0766 31.0408 29.6164 31.3988 29.2073C31.7624 28.7982 32.038 28.3977 32.2255 28.0056C32.413 27.6079 32.5068 27.1789 32.5068 26.7187C32.5068 26.2073 32.3903 25.767 32.1573 25.3977C31.9244 25.0227 31.6062 24.7357 31.2028 24.5369C30.7994 24.3323 30.342 24.2301 29.8306 24.2301C29.2965 24.2301 28.8306 24.338 28.4329 24.5539C28.0352 24.7698 27.7283 25.0795 27.5124 25.4829C27.2965 25.8863 27.1886 26.3664 27.1886 26.9232H23.6857C23.6857 25.7812 23.9443 24.7897 24.4613 23.9488C24.9783 23.1079 25.7028 22.4573 26.6346 21.9971C27.5664 21.5369 28.6403 21.3068 29.8562 21.3068C31.1062 21.3068 32.1943 21.5284 33.1204 21.9715C34.0522 22.409 34.7766 23.017 35.2937 23.7954C35.8107 24.5738 36.0693 25.4659 36.0693 26.4715C36.0693 27.1306 35.9386 27.7812 35.6772 28.4232C35.4215 29.0653 34.9641 29.7784 34.305 30.5624C33.646 31.3409 32.717 32.2755 31.5181 33.3664L28.9698 35.8636V35.9829H36.2994V38.9999H23.8562Z" fill="url(#paint0_linear_9_580)"/>
<path fill-rule="evenodd" clip-rule="evenodd" d="M30 55C43.8071 55 55 43.8071 55 30C55 16.1929 43.8071 5 30 5C16.1929 5 5 16.1929 5 30C5 43.8071 16.1929 55 30 55ZM30 60C46.5685 60 60 46.5685 60 30C60 13.4315 46.5685 0 30 0C13.4315 0 0 13.4315 0 30C0 46.5685 13.4315 60 30 60Z" fill="url(#paint1_linear_9_580)"/>
<defs>
<linearGradient id="paint0_linear_9_580" x1="30" y1="0" x2="30" y2="60" gradientUnits="userSpaceOnUse">
<stop stop-color="#2864E0"/>
<stop offset="1" stop-color="#DC095A"/>
</linearGradient>
<linearGradient id="paint1_linear_9_580" x1="30" y1="0" x2="30" y2="60" gradientUnits="userSpaceOnUse">
<stop stop-color="#2864E0"/>
<stop offset="1" stop-color="#DC095A"/>
</linearGradient>
</defs>
</svg>
