<svg width="60" height="60" viewBox="0 0 60 60" fill="none" xmlns="http://www.w3.org/2000/svg">
<path d="M26.5558 38.5822C27.5501 39.0197 28.6836 39.2385 29.9563 39.2385C31.2631 39.2385 32.4222 39.0169 33.4336 38.5737C34.445 38.1305 35.2376 37.5225 35.8114 36.7498C36.391 35.9771 36.6779 35.0936 36.6722 34.0993C36.6779 33.014 36.3427 32.1106 35.6666 31.389C34.9961 30.6618 34.0188 30.2157 32.7347 30.051V29.9146C33.712 29.7385 34.5046 29.3237 35.1126 28.6703C35.7262 28.0169 36.0302 27.2015 36.0245 26.2243C36.0302 25.3038 35.7802 24.4743 35.2745 23.7356C34.7745 22.9913 34.0728 22.4004 33.1694 21.9629C32.266 21.5254 31.212 21.3066 30.0075 21.3066C28.8143 21.3066 27.7433 21.5254 26.7944 21.9629C25.8512 22.3947 25.1012 22.9941 24.5444 23.7612C23.9876 24.5282 23.7006 25.4146 23.6836 26.4203H27.2205C27.2376 25.9771 27.3711 25.5907 27.6211 25.2612C27.8711 24.9316 28.2035 24.6788 28.6183 24.5027C29.033 24.3208 29.4904 24.2299 29.9904 24.2299C30.4847 24.2299 30.9166 24.3237 31.2859 24.5112C31.6609 24.6987 31.9506 24.9601 32.1552 25.2953C32.3654 25.6248 32.4705 26.0083 32.4705 26.4458C32.4705 26.9061 32.3512 27.3095 32.1126 27.6561C31.8739 27.997 31.5387 28.264 31.1069 28.4572C30.6808 28.6504 30.1893 28.747 29.6325 28.747H28.0046V31.4572H29.6325C30.2916 31.4572 30.8597 31.5595 31.337 31.764C31.82 31.9686 32.1893 32.2527 32.445 32.6163C32.7063 32.9743 32.837 33.3862 32.837 33.8521C32.837 34.3123 32.7149 34.7186 32.4705 35.0708C32.2262 35.4231 31.8881 35.6987 31.4563 35.8976C31.0245 36.0964 30.5273 36.1958 29.9648 36.1958C29.4251 36.1958 28.9393 36.1078 28.5075 35.9316C28.0756 35.7555 27.7291 35.5083 27.4677 35.1902C27.212 34.8663 27.0728 34.4913 27.0501 34.0652H23.3342C23.3512 35.0822 23.6438 35.9799 24.212 36.7583C24.7859 37.5311 25.5671 38.139 26.5558 38.5822Z" fill="url(#paint0_linear_9_582)"/>
<path fill-rule="evenodd" clip-rule="evenodd" d="M60 30C60 46.5685 46.5685 60 30 60C13.4315 60 0 46.5685 0 30C0 13.4315 13.4315 0 30 0C46.5685 0 60 13.4315 60 30ZM55 30C55 43.8071 43.8071 55 30 55C16.1929 55 5 43.8071 5 30C5 16.1929 16.1929 5 30 5C43.8071 5 55 16.1929 55 30Z" fill="url(#paint1_linear_9_582)"/>
<defs>
<linearGradient id="paint0_linear_9_582" x1="30" y1="0" x2="30" y2="60" gradientUnits="userSpaceOnUse">
<stop stop-color="#2864E0"/>
<stop offset="1" stop-color="#DC095A"/>
</linearGradient>
<linearGradient id="paint1_linear_9_582" x1="30" y1="0" x2="30" y2="60" gradientUnits="userSpaceOnUse">
<stop stop-color="#2864E0"/>
<stop offset="1" stop-color="#DC095A"/>
</linearGradient>
</defs>
</svg>
