<svg width="35" height="35" viewBox="0 0 35 35" fill="none" xmlns="http://www.w3.org/2000/svg">
<path d="M18.8672 25.5664C18.8672 26.3215 18.2551 26.9336 17.5 26.9336H9.43359C8.6785 26.9336 8.06641 26.3215 8.06641 25.5664C8.06641 24.8113 8.6785 24.1992 9.43359 24.1992H17.5C18.2551 24.1992 18.8672 24.8113 18.8672 25.5664ZM35 8.21338V24.222C35 26.3212 34.1826 28.2946 32.6982 29.7788L29.7788 32.6983C28.2946 34.1826 26.3212 35 24.222 35H8.21338C3.67356 35 0 31.326 0 26.7866V8.21338C0 3.67356 3.67397 0 8.21338 0H26.7866C31.3264 0 35 3.67397 35 8.21338ZM32.0822 25.5892H28.3235C26.8158 25.5892 25.5892 26.8158 25.5892 28.3235V32.0822C26.4342 31.8498 27.2087 31.4013 27.8453 30.7648L30.7647 27.8453C31.4013 27.2087 31.8498 26.4342 32.0822 25.5892ZM32.2656 8.21338C32.2656 5.18499 29.8149 2.73438 26.7866 2.73438H8.21338C5.18499 2.73438 2.73438 5.18513 2.73438 8.21338V26.7866C2.73438 29.815 5.18513 32.2656 8.21338 32.2656H22.8548V28.3235C22.8548 25.3081 25.3081 22.8548 28.3235 22.8548H32.2656V8.21338ZM25.5664 16.1328H9.43359C8.6785 16.1328 8.06641 16.7449 8.06641 17.5C8.06641 18.2551 8.6785 18.8672 9.43359 18.8672H25.5664C26.3215 18.8672 26.9336 18.2551 26.9336 17.5C26.9336 16.7449 26.3215 16.1328 25.5664 16.1328ZM25.5664 8.06641H9.43359C8.6785 8.06641 8.06641 8.6785 8.06641 9.43359C8.06641 10.1887 8.6785 10.8008 9.43359 10.8008H25.5664C26.3215 10.8008 26.9336 10.1887 26.9336 9.43359C26.9336 8.6785 26.3215 8.06641 25.5664 8.06641Z" fill="url(#paint0_linear_9_649)"/>
<defs>
<linearGradient id="paint0_linear_9_649" x1="17.5" y1="6.85861e-06" x2="17.5" y2="34.9998" gradientUnits="userSpaceOnUse">
<stop stop-color="#2764E0"/>
<stop offset="1" stop-color="#DD0858"/>
</linearGradient>
</defs>
</svg>
