<svg width="46" height="40" viewBox="0 0 46 40" fill="none" xmlns="http://www.w3.org/2000/svg">
<path fill-rule="evenodd" clip-rule="evenodd" d="M18.7556 9.33301C17.1814 9.33301 15.8052 10.0011 14.7556 11.2697C13.706 10.0011 12.3297 9.33301 10.7556 9.33301C7.76491 9.33301 5.42224 11.7526 5.42224 14.8414C5.42224 18.1264 8.11397 20.311 11.8395 23.3344C12.4982 23.869 13.1793 24.4218 13.902 25.0239C14.1492 25.23 14.4523 25.333 14.7556 25.333C15.0589 25.333 15.3619 25.23 15.6092 25.0239C16.3318 24.4218 17.0129 23.869 17.6717 23.3344C21.3971 20.3109 24.0889 18.1263 24.0889 14.8414C24.0889 11.7526 21.7462 9.33301 18.7556 9.33301ZM15.9911 21.2638C15.5893 21.5899 15.1794 21.9226 14.7556 22.2702C14.3365 21.9266 13.9311 21.5975 13.5339 21.2751L13.52 21.2638C10.2497 18.6098 8.08891 16.8561 8.08891 14.8414C8.08891 13.4639 9.02357 11.9997 10.7556 11.9997C12.7304 11.9997 13.4427 14.2647 13.4763 14.3754C13.6429 14.9429 14.1625 15.3369 14.7544 15.3369C15.3487 15.3369 15.8701 14.9475 16.0345 14.3765C16.0638 14.2794 16.7744 11.9997 18.7556 11.9997C20.4876 11.9997 21.4222 13.4639 21.4222 14.8414C21.4222 16.8561 19.2616 18.6096 15.9911 21.2638Z" fill="url(#paint0_linear_9_646)"/>
<path d="M34.7556 18.6669H36.0889C36.8252 18.6669 37.4222 19.2639 37.4222 20.0003C37.4222 20.7366 36.8252 21.3336 36.0889 21.3336H30.7556C30.0192 21.3336 29.4222 20.7366 29.4222 20.0003C29.4222 19.2639 30.0192 18.6669 30.7556 18.6669H32.0889V15.2193L31.6983 15.6098C31.1776 16.1305 30.3333 16.1305 29.8127 15.6098C29.292 15.0891 29.292 14.2449 29.8127 13.7242L32.4794 11.0575C32.8607 10.6762 33.4345 10.5622 33.9324 10.7684C34.4308 10.9748 34.7556 11.461 34.7556 12.0003V18.6669Z" fill="url(#paint1_linear_9_646)"/>
<path fill-rule="evenodd" clip-rule="evenodd" d="M33.4222 0H12.0889C5.42311 0 0 5.38311 0 12V20C0 26.1698 4.71449 31.2668 10.7555 31.9275V38.6666C10.7555 39.2059 11.0803 39.6922 11.5787 39.8985C12.0769 40.1049 12.6504 39.9907 13.0317 39.6094L20.6411 32H33.4222C40.088 32 45.5111 26.6168 45.5111 20V12C45.5111 5.38311 40.088 0 33.4222 0ZM42.8444 20C42.8444 25.1464 38.6176 29.3333 33.4222 29.3333H20.0889C19.7352 29.3333 19.3961 29.4738 19.1461 29.7239L13.4222 35.4476V30.6666C13.4222 29.9303 12.8252 29.3333 12.0889 29.3333C6.89351 29.3333 2.66667 25.1464 2.66667 20V12C2.66667 6.8536 6.89351 2.66666 12.0889 2.66666H33.4222C38.6176 2.66666 42.8444 6.8536 42.8444 12V20Z" fill="url(#paint2_linear_9_646)"/>
<defs>
<linearGradient id="paint0_linear_9_646" x1="22.7556" y1="7.83842e-06" x2="22.7556" y2="39.9998" gradientUnits="userSpaceOnUse">
<stop stop-color="#2764E0"/>
<stop offset="1" stop-color="#DD0858"/>
</linearGradient>
<linearGradient id="paint1_linear_9_646" x1="22.7556" y1="7.83842e-06" x2="22.7556" y2="39.9998" gradientUnits="userSpaceOnUse">
<stop stop-color="#2764E0"/>
<stop offset="1" stop-color="#DD0858"/>
</linearGradient>
<linearGradient id="paint2_linear_9_646" x1="22.7556" y1="7.83842e-06" x2="22.7556" y2="39.9998" gradientUnits="userSpaceOnUse">
<stop stop-color="#2764E0"/>
<stop offset="1" stop-color="#DD0858"/>
</linearGradient>
</defs>
</svg>
