<svg width="41" height="41" viewBox="0 0 41 41" fill="none" xmlns="http://www.w3.org/2000/svg">
<path d="M8.96875 7.6875H24.3438C25.051 7.6875 25.625 8.2615 25.625 8.96875C25.625 9.676 25.051 10.25 24.3438 10.25H8.96875C8.2615 10.25 7.6875 9.676 7.6875 8.96875C7.6875 8.2615 8.2615 7.6875 8.96875 7.6875Z" fill="url(#paint0_linear_9_654)"/>
<path d="M8.96875 12.8125H19.2188C19.926 12.8125 20.5 13.3865 20.5 14.0938C20.5 14.801 19.926 15.375 19.2188 15.375H8.96875C8.2615 15.375 7.6875 14.801 7.6875 14.0938C7.6875 13.3865 8.2615 12.8125 8.96875 12.8125Z" fill="url(#paint1_linear_9_654)"/>
<path fill-rule="evenodd" clip-rule="evenodd" d="M28.1875 0H5.125C2.29856 0 0 2.29856 0 5.125V30.75C0 31.2471 0.287 31.7007 0.738 31.9108C0.909688 31.9903 1.09675 32.0312 1.28125 32.0312C1.57594 32.0312 1.86806 31.9287 2.10125 31.734L9.43256 25.625H28.1875C31.0139 25.625 33.3125 23.3264 33.3125 20.5V5.125C33.3125 2.29856 31.0139 0 28.1875 0ZM30.75 20.5C30.75 21.9119 29.602 23.0625 28.1875 23.0625H8.96875C8.66894 23.0625 8.37938 23.1676 8.14875 23.3598L2.5625 28.0158V5.125C2.5625 3.71306 3.7105 2.5625 5.125 2.5625H28.1875C29.602 2.5625 30.75 3.71306 30.75 5.125V20.5Z" fill="url(#paint2_linear_9_654)"/>
<path d="M34.5938 11.5312C34.5938 10.824 35.1678 10.25 35.875 10.25C38.7014 10.25 41 12.5486 41 15.375V39.7188C41 40.2108 40.7181 40.6592 40.2748 40.8744C40.0954 40.959 39.9058 41 39.7188 41C39.4343 41 39.1499 40.9052 38.9167 40.7207L32.8615 35.875H15.375C12.5486 35.875 10.25 33.5764 10.25 30.75V29.4688C10.25 28.7615 10.824 28.1875 11.5312 28.1875C12.2385 28.1875 12.8125 28.7615 12.8125 29.4688V30.75C12.8125 32.1619 13.9605 33.3125 15.375 33.3125H33.3125C33.6021 33.3125 33.8865 33.4124 34.112 33.5918L38.4375 37.0512V15.375C38.4375 13.9631 37.2895 12.8125 35.875 12.8125C35.1678 12.8125 34.5938 12.2385 34.5938 11.5312Z" fill="url(#paint3_linear_9_654)"/>
<defs>
<linearGradient id="paint0_linear_9_654" x1="20.5" y1="8.03438e-06" x2="20.5" y2="40.9998" gradientUnits="userSpaceOnUse">
<stop stop-color="#2764E0"/>
<stop offset="1" stop-color="#DD0858"/>
</linearGradient>
<linearGradient id="paint1_linear_9_654" x1="20.5" y1="8.03438e-06" x2="20.5" y2="40.9998" gradientUnits="userSpaceOnUse">
<stop stop-color="#2764E0"/>
<stop offset="1" stop-color="#DD0858"/>
</linearGradient>
<linearGradient id="paint2_linear_9_654" x1="20.5" y1="8.03438e-06" x2="20.5" y2="40.9998" gradientUnits="userSpaceOnUse">
<stop stop-color="#2764E0"/>
<stop offset="1" stop-color="#DD0858"/>
</linearGradient>
<linearGradient id="paint3_linear_9_654" x1="20.5" y1="8.03438e-06" x2="20.5" y2="40.9998" gradientUnits="userSpaceOnUse">
<stop stop-color="#2764E0"/>
<stop offset="1" stop-color="#DD0858"/>
</linearGradient>
</defs>
</svg>
