<svg width="43" height="28" viewBox="0 0 43 28" fill="none" xmlns="http://www.w3.org/2000/svg">
<path fill-rule="evenodd" clip-rule="evenodd" d="M9.21427 14C9.21427 10.5636 11.9645 7.77778 15.3572 7.77778C18.7497 7.77778 21.5 10.5636 21.5 14C21.5 17.4365 18.7498 20.2223 15.3572 20.2223C11.9645 20.2223 9.21427 17.4365 9.21427 14ZM12.2858 14C12.2858 15.7182 13.6609 17.1111 15.3572 17.1111C17.0534 17.1111 18.4285 15.7182 18.4285 14C18.4285 12.2818 17.0534 10.8889 15.3572 10.8889C13.6609 10.8889 12.2858 12.2818 12.2858 14Z" fill="url(#paint0_linear_9_653)"/>
<path fill-rule="evenodd" clip-rule="evenodd" d="M40.7778 3.27451C41.2539 3.03352 41.8193 3.0594 42.272 3.34296C42.7248 3.6266 43.0002 4.12745 43 4.66667V23.3333C43.0013 23.5775 42.9458 23.8187 42.838 24.0372C42.4588 24.8057 41.5365 25.1173 40.7778 24.7333L30.7142 19.628V23.3333C30.7142 25.9107 28.6515 28 26.1071 28H4.60714C2.06268 28 0 25.9107 0 23.3333V4.66667C0 2.08934 2.06268 0 4.60714 0H26.1071C28.6515 0 30.7142 2.08934 30.7142 4.66667V8.37202L40.7778 3.27451ZM26.1071 24.8889C26.9553 24.8889 27.6428 24.1925 27.6428 23.3333V4.66667C27.6428 3.80753 26.9553 3.11108 26.1071 3.11108H4.60714C3.75896 3.11108 3.07139 3.80753 3.07139 4.66667V23.3333C3.07139 24.1925 3.75896 24.8889 4.60714 24.8889H26.1071ZM30.7142 16.1499L39.9285 20.8165V7.18366L30.7142 11.8503V16.1499Z" fill="url(#paint1_linear_9_653)"/>
<defs>
<linearGradient id="paint0_linear_9_653" x1="21.5" y1="5.48689e-06" x2="21.5" y2="27.9999" gradientUnits="userSpaceOnUse">
<stop stop-color="#2764E0"/>
<stop offset="1" stop-color="#DD0858"/>
</linearGradient>
<linearGradient id="paint1_linear_9_653" x1="21.5" y1="5.48689e-06" x2="21.5" y2="27.9999" gradientUnits="userSpaceOnUse">
<stop stop-color="#2764E0"/>
<stop offset="1" stop-color="#DD0858"/>
</linearGradient>
</defs>
</svg>
