<svg width="35" height="35" viewBox="0 0 35 35" fill="none" xmlns="http://www.w3.org/2000/svg">
<path fill-rule="evenodd" clip-rule="evenodd" d="M30 2.3H5C3.50883 2.3 2.3 3.50883 2.3 5V8C2.3 9.49117 3.50883 10.7 5 10.7H30C31.4912 10.7 32.7 9.49117 32.7 8V5C32.7 3.50883 31.4912 2.3 30 2.3ZM5 0C2.23858 0 0 2.23858 0 5V8C0 10.7614 2.23858 13 5 13H30C32.7614 13 35 10.7614 35 8V5C35 2.23858 32.7614 0 30 0H5Z" fill="url(#paint0_linear_9_652)"/>
<path fill-rule="evenodd" clip-rule="evenodd" d="M18 18.3H4C3.06112 18.3 2.3 19.0611 2.3 20C2.3 20.9389 3.06112 21.7 4 21.7H18C18.9389 21.7 19.7 20.9389 19.7 20C19.7 19.0611 18.9389 18.3 18 18.3ZM4 16C1.79086 16 0 17.7909 0 20C0 22.2091 1.79086 24 4 24H18C20.2091 24 22 22.2091 22 20C22 17.7909 20.2091 16 18 16H4Z" fill="url(#paint1_linear_9_652)"/>
<path fill-rule="evenodd" clip-rule="evenodd" d="M31 29.3H17C16.0611 29.3 15.3 30.0611 15.3 31C15.3 31.9389 16.0611 32.7 17 32.7H31C31.9389 32.7 32.7 31.9389 32.7 31C32.7 30.0611 31.9389 29.3 31 29.3ZM17 27C14.7909 27 13 28.7909 13 31C13 33.2091 14.7909 35 17 35H31C33.2091 35 35 33.2091 35 31C35 28.7909 33.2091 27 31 27H17Z" fill="url(#paint2_linear_9_652)"/>
<path fill-rule="evenodd" clip-rule="evenodd" d="M29 18.3H31C31.9389 18.3 32.7 19.0611 32.7 20C32.7 20.9389 31.9389 21.7 31 21.7H29C28.0611 21.7 27.3 20.9389 27.3 20C27.3 19.0611 28.0611 18.3 29 18.3ZM31 16C33.2091 16 35 17.7909 35 20C35 22.2091 33.2091 24 31 24H29C26.7909 24 25 22.2091 25 20C25 17.7909 26.7909 16 29 16H31Z" fill="url(#paint3_linear_9_652)"/>
<path fill-rule="evenodd" clip-rule="evenodd" d="M4 29.3H6C6.93888 29.3 7.7 30.0611 7.7 31C7.7 31.9389 6.93888 32.7 6 32.7H4C3.06112 32.7 2.3 31.9389 2.3 31C2.3 30.0611 3.06112 29.3 4 29.3ZM6 27C8.20914 27 10 28.7909 10 31C10 33.2091 8.20914 35 6 35H4C1.79086 35 0 33.2091 0 31C0 28.7909 1.79086 27 4 27H6Z" fill="url(#paint4_linear_9_652)"/>
<defs>
<linearGradient id="paint0_linear_9_652" x1="17.5" y1="6.85861e-06" x2="17.5" y2="34.9998" gradientUnits="userSpaceOnUse">
<stop stop-color="#2764E0"/>
<stop offset="1" stop-color="#DD0858"/>
</linearGradient>
<linearGradient id="paint1_linear_9_652" x1="17.5" y1="6.85861e-06" x2="17.5" y2="34.9998" gradientUnits="userSpaceOnUse">
<stop stop-color="#2764E0"/>
<stop offset="1" stop-color="#DD0858"/>
</linearGradient>
<linearGradient id="paint2_linear_9_652" x1="17.5" y1="6.85861e-06" x2="17.5" y2="34.9998" gradientUnits="userSpaceOnUse">
<stop stop-color="#2764E0"/>
<stop offset="1" stop-color="#DD0858"/>
</linearGradient>
<linearGradient id="paint3_linear_9_652" x1="17.5" y1="6.85861e-06" x2="17.5" y2="34.9998" gradientUnits="userSpaceOnUse">
<stop stop-color="#2764E0"/>
<stop offset="1" stop-color="#DD0858"/>
</linearGradient>
<linearGradient id="paint4_linear_9_652" x1="17.5" y1="6.85861e-06" x2="17.5" y2="34.9998" gradientUnits="userSpaceOnUse">
<stop stop-color="#2764E0"/>
<stop offset="1" stop-color="#DD0858"/>
</linearGradient>
</defs>
</svg>
