<svg width="39" height="39" viewBox="0 0 39 39" fill="none" xmlns="http://www.w3.org/2000/svg">
<path d="M19.4996 39C19.4363 39 19.3719 38.9954 19.3072 38.986C18.8097 38.9113 18.3989 38.5557 18.2543 38.0731L10.4544 12.0731C10.3173 11.6155 10.4424 11.1189 10.7807 10.7806C11.1197 10.4423 11.6192 10.3165 12.0732 10.4543L38.0727 18.2543C38.555 18.3989 38.9105 18.8097 38.9856 19.3073C39.06 19.8055 38.8397 20.3021 38.4208 20.5813L31.9407 24.9015L38.619 31.5806C39.127 32.0885 39.127 32.9111 38.619 33.4188L33.4191 38.6188C32.9112 39.1268 32.0886 39.1268 31.581 38.6188L24.902 31.9403L20.5819 38.4205C20.3381 38.7861 19.9299 39 19.4996 39ZM24.6995 28.6C25.0431 28.6 25.3736 28.7358 25.6186 28.9809L32.4994 35.8618L35.8608 32.5L28.9804 25.6191C28.7048 25.3435 28.5676 24.9597 28.606 24.5716C28.644 24.1845 28.8543 23.8339 29.1786 23.6181L34.6795 19.9511L13.6393 13.6389L19.9514 34.6795L23.6183 29.1785C23.8341 28.8541 24.1844 28.6439 24.5718 28.6058C24.6144 28.6019 24.657 28.6 24.6995 28.6ZM7.41896 7.4191C7.92693 6.91112 7.92693 6.08855 7.41896 5.5809L4.81901 2.9809C4.31104 2.47292 3.48848 2.47292 2.98084 2.9809C2.4732 3.48887 2.47288 4.31145 2.98084 4.8191L5.5808 7.4191C5.83462 7.67292 6.16708 7.8 6.49988 7.8C6.83267 7.8 7.16514 7.67292 7.41896 7.4191ZM6.49988 11.7C6.49988 10.9821 5.91781 10.4 5.1999 10.4H1.29998C0.582064 10.4 0 10.9821 0 11.7C0 12.4179 0.582064 13 1.29998 13H5.1999C5.91781 13 6.49988 12.4179 6.49988 11.7ZM4.81901 20.4191L7.41896 17.8191C7.92693 17.3111 7.92693 16.4886 7.41896 15.9809C6.911 15.4732 6.08844 15.4729 5.5808 15.9809L2.98084 18.5809C2.47288 19.0889 2.47288 19.9114 2.98084 20.4191C3.23466 20.6729 3.56713 20.8 3.89993 20.8C4.23272 20.8 4.56519 20.6729 4.81901 20.4191ZM17.8188 7.4191L20.4187 4.8191C20.9267 4.31112 20.9267 3.48855 20.4187 2.9809C19.9108 2.47325 19.0882 2.47292 18.5806 2.9809L15.9806 5.5809C15.4726 6.08887 15.4726 6.91145 15.9806 7.4191C16.2344 7.67292 16.5669 7.8 16.8997 7.8C17.2325 7.8 17.5649 7.67292 17.8188 7.4191ZM12.9998 5.2V1.3C12.9998 0.582075 12.4177 0 11.6998 0C10.9819 0 10.3998 0.582075 10.3998 1.3V5.2C10.3998 5.91792 10.9819 6.5 11.6998 6.5C12.4177 6.5 12.9998 5.91792 12.9998 5.2Z" fill="url(#paint0_linear_9_655)"/>
<defs>
<linearGradient id="paint0_linear_9_655" x1="19.5" y1="7.64245e-06" x2="19.5" y2="38.9998" gradientUnits="userSpaceOnUse">
<stop stop-color="#2764E0"/>
<stop offset="1" stop-color="#DD0858"/>
</linearGradient>
</defs>
</svg>
