<svg width="59" height="51" viewBox="0 0 59 51" fill="none" xmlns="http://www.w3.org/2000/svg">
<path d="M29.4885 51C29.8672 50.9996 30.2421 50.9245 30.5918 50.779C30.9415 50.6334 31.2591 50.4203 31.5265 50.1518L31.5495 50.1287L54.3212 27.3421C60.5596 21.0952 60.5596 10.9315 54.3212 4.6847C48.0827 -1.56214 37.9297 -1.56099 31.6901 4.6847L29.4885 6.88893L27.3099 4.70778C24.3087 1.70334 20.2384 0.0154663 15.9943 0.0154663C11.7502 0.0154663 7.67994 1.70334 4.67883 4.70778C-1.55961 10.9546 -1.55961 21.1183 4.67883 27.3652L14.0411 36.7372C14.5824 37.2781 15.3161 37.5817 16.0809 37.581C16.8458 37.5804 17.579 37.2756 18.1194 36.7337C18.6597 36.1918 18.9629 35.4572 18.9623 34.6915C18.9616 33.9258 18.6572 33.1917 18.1159 32.6507L8.75133 23.2798C6.83128 21.3571 5.75278 18.7495 5.75311 16.0306C5.75343 13.3118 6.83255 10.7044 8.75306 8.78214C10.6736 6.85986 13.2781 5.78011 15.9938 5.78043C18.7095 5.78076 21.3139 6.86113 23.2339 8.78387L27.4505 13.0054C27.7181 13.2734 28.0358 13.4859 28.3855 13.631C28.7352 13.776 29.11 13.8507 29.4885 13.8507C29.867 13.8507 30.2418 13.776 30.5914 13.631C30.9411 13.4859 31.2588 13.2734 31.5265 13.0054L35.7661 8.76194C36.7167 7.8099 37.8454 7.05463 39.0875 6.53927C40.3297 6.02392 41.6611 5.75855 43.0058 5.75834C45.7213 5.75791 48.3259 6.8375 50.2464 8.75963C52.1669 10.6818 53.246 13.289 53.2465 16.0077C53.2469 18.7265 52.1686 21.334 50.2487 23.2568L29.4885 44.0376L27.2833 41.83C26.7422 41.2927 26.0105 40.992 25.2484 40.9936C24.4863 40.9951 23.7558 41.2989 23.2169 41.8383C22.6779 42.3777 22.3743 43.1089 22.3725 43.8719C22.3708 44.6349 22.6709 45.3676 23.2074 45.9095L27.4505 50.1587C27.9916 50.6985 28.7246 51.0011 29.4885 51Z" fill="url(#paint0_linear_9_345)"/>
<defs>
<linearGradient id="paint0_linear_9_345" x1="29.5" y1="9.99398e-06" x2="29.5" y2="50.9998" gradientUnits="userSpaceOnUse">
<stop stop-color="#2764E0"/>
<stop offset="1" stop-color="#DD0858"/>
</linearGradient>
</defs>
</svg>
