<svg width="53" height="60" viewBox="0 0 53 60" fill="none" xmlns="http://www.w3.org/2000/svg">
<path fill-rule="evenodd" clip-rule="evenodd" d="M13.1433 46.9707C3.6888 37.5981 3.6888 22.402 13.1433 13.0295C21.8731 4.37526 35.611 3.71193 45.1086 11.0394L38.5616 17.5298C32.7128 13.8584 24.8779 14.5507 19.7778 19.6065C13.8688 25.4643 13.8688 34.9617 19.7778 40.8198C25.6867 46.6776 35.2674 46.6776 41.1763 40.8198L41.1577 40.8015L41.2452 40.7313C42.544 39.6885 42.7442 37.7994 41.6924 36.5118C40.6407 35.2242 38.735 35.0256 37.4362 36.0684L35.7732 37.4034C35.6219 37.5249 35.4856 37.6578 35.3642 37.8C31.8512 40.0287 27.128 39.621 24.0576 36.5769C20.5121 33.0624 20.5121 27.3639 24.0576 23.8491C26.7718 21.1585 30.7768 20.5276 34.0961 21.9565L28.1221 27.8787C26.9405 29.0502 26.9405 30.9498 28.1221 32.1213C29.304 33.2928 31.2202 33.2928 32.4018 32.1213L51.6606 13.0295C52.8425 11.8579 52.8425 9.95838 51.6606 8.78679C39.8424 -2.92893 20.6815 -2.92893 8.86354 8.78679C-2.95451 20.5025 -2.95451 39.4974 8.86354 51.2133C20.6815 62.9289 39.8424 62.9289 51.6606 51.2133L51.6382 51.1911L51.9986 50.8692C53.2408 49.7604 53.341 47.8635 52.2227 46.6323C51.1044 45.4011 49.1908 45.3015 47.9488 46.4103L46.3585 47.8296C46.1998 47.9715 46.0593 48.1263 45.938 48.291C36.4263 56.3202 22.1307 55.8801 13.1433 46.9707Z" fill="url(#paint0_linear_9_348)"/>
<defs>
<linearGradient id="paint0_linear_9_348" x1="26.5" y1="1.17576e-05" x2="26.5" y2="59.9997" gradientUnits="userSpaceOnUse">
<stop stop-color="#2764E0"/>
<stop offset="1" stop-color="#DD0858"/>
</linearGradient>
</defs>
</svg>
