<svg width="60" height="60" viewBox="0 0 60 60" fill="none" xmlns="http://www.w3.org/2000/svg">
<path d="M30 0C35.9783 0 41.5481 1.74866 46.226 4.76245L42.5909 8.39746C38.8933 6.23755 34.5912 5 30 5C16.1929 5 5 16.1929 5 30C5 43.8071 16.1929 55 30 55C43.8071 55 55 43.8071 55 30C55 25.5034 53.8128 21.2841 51.7349 17.6383L55.3784 13.9948C58.3057 18.6266 60 24.1155 60 30C60 46.5686 46.5685 60 30 60C13.4315 60 0 46.5686 0 30C0 13.4314 13.4315 0 30 0Z" fill="url(#paint0_linear_9_347)"/>
<path d="M30 13C33.2619 13 36.3092 13.9187 38.8973 15.5115L35.218 19.1908C33.6402 18.4277 31.8701 18 30 18C23.3726 18 18 23.3726 18 30C18 36.6274 23.3726 42 30 42C36.6274 42 42 36.6274 42 30C42 28.2266 41.6153 26.543 40.9248 25.0281L44.6249 21.328C46.1336 23.8669 47 26.8323 47 30C47 39.3888 39.3889 47 30 47C20.6111 47 13 39.3888 13 30C13 20.6112 20.6111 13 30 13Z" fill="url(#paint1_linear_9_347)"/>
<path d="M46.0858 16.2162L30.7496 31.5525L28.6283 29.4312L44.0027 14.0566L43.9615 10.4169C43.9579 10.1101 44.0765 9.81812 44.2906 9.60388L51.1425 2.67419C51.4681 2.34875 51.9645 2.25378 52.3986 2.43811C52.8327 2.62122 53.1184 3.04639 53.1237 3.51331L53.1629 6.979L56.7055 7.01904C57.1724 7.02429 57.5975 7.30994 57.7806 7.74402C57.9649 8.1781 57.8712 8.67346 57.5444 9.00024L50.6155 15.929C50.4014 16.1432 50.1094 16.2617 49.8026 16.2583L46.0858 16.2162Z" fill="url(#paint2_linear_9_347)"/>
<defs>
<linearGradient id="paint0_linear_9_347" x1="30" y1="1.17576e-05" x2="30" y2="59.9997" gradientUnits="userSpaceOnUse">
<stop stop-color="#2764E0"/>
<stop offset="1" stop-color="#DD0858"/>
</linearGradient>
<linearGradient id="paint1_linear_9_347" x1="30" y1="1.17576e-05" x2="30" y2="59.9997" gradientUnits="userSpaceOnUse">
<stop stop-color="#2764E0"/>
<stop offset="1" stop-color="#DD0858"/>
</linearGradient>
<linearGradient id="paint2_linear_9_347" x1="30" y1="1.17576e-05" x2="30" y2="59.9997" gradientUnits="userSpaceOnUse">
<stop stop-color="#2764E0"/>
<stop offset="1" stop-color="#DD0858"/>
</linearGradient>
</defs>
</svg>
