<svg width="60" height="60" viewBox="0 0 60 60" fill="none" xmlns="http://www.w3.org/2000/svg">
<path d="M37.7971 9.49237L41.1099 6.17771L46.9661 12.0371L56.6872 2.31023L60 5.62489L46.9661 18.666L37.7971 9.49237ZM56.412 15.8441C58.7338 20.1573 59.9666 25.004 59.9666 30.0408C59.9666 38.0542 56.8478 45.5876 51.1848 51.2542C45.5219 56.9203 37.9921 60 29.9835 60C21.9745 60 14.4452 56.9203 8.78174 51.2542C3.11874 45.5876 0 38.0542 0 30.0408C0 22.0278 3.11874 14.4939 8.78174 8.82779C14.4452 3.16168 21.9745 0 29.9835 0C33.1544 0 36.2498 0.532214 39.1846 1.47481L35.3568 5.30519C33.6241 4.9287 31.8269 4.72855 29.9835 4.72855C16.0336 4.72855 4.68475 16.0837 4.68475 30.0408C4.68475 36.426 7.06146 42.2661 10.974 46.724C12.3354 40.6292 16.5569 35.6034 22.1507 33.1351C19.8152 31.0044 18.3472 27.9371 18.3472 24.5331C18.3472 18.1136 23.567 12.8904 29.9835 12.8904C36.3995 12.8904 41.6194 18.1131 41.6194 24.5331C41.6194 27.9371 40.1518 31.0044 37.8163 33.1351C43.4097 35.6034 47.6317 40.6292 48.9926 46.724C52.9056 42.2656 55.2818 36.426 55.2818 30.0408C55.2818 26.2218 54.4304 22.598 52.9102 19.3479L56.412 15.8441ZM29.9835 31.4881C33.8164 31.4881 36.9347 28.3681 36.9347 24.5331C36.9347 20.6977 33.8164 17.5777 29.9835 17.5777C26.1502 17.5777 23.0319 20.6977 23.0319 24.5331C23.0319 28.3681 26.1502 31.4881 29.9835 31.4881ZM29.9835 55.3534C35.4996 55.3534 40.6082 53.5763 44.7702 50.5663C44.5523 42.594 38.0031 36.1754 29.9835 36.1754C21.964 36.1754 15.4143 42.594 15.1968 50.5663C19.3588 53.5763 24.467 55.3534 29.9835 55.3534Z" fill="url(#paint0_linear_9_344)"/>
<defs>
<linearGradient id="paint0_linear_9_344" x1="30" y1="1.17576e-05" x2="30" y2="59.9997" gradientUnits="userSpaceOnUse">
<stop stop-color="#2764E0"/>
<stop offset="1" stop-color="#DD0858"/>
</linearGradient>
</defs>
</svg>
