<svg width="105" height="67" viewBox="0 0 105 67" fill="none" xmlns="http://www.w3.org/2000/svg">
<path fill-rule="evenodd" clip-rule="evenodd" d="M30.832 34.7318L55.7066 4.34979V15.9729L65.2737 4.34979V28.626H58.8248V22.0052L53.5097 28.626H49.5411V22.2259L44.2165 28.706H65.2745C75.8655 31.2901 74.2196 51.46 55.3992 56.1256L53.9679 56.4127L52.8945 56.5563H38.5824L44.0926 50.0962H53.9679C55.5846 49.7797 58.8405 48.7507 60.9236 46.9118C61.3609 46.5258 61.7464 46.1041 62.0543 45.6459H47.8853L53.3239 39.2575H65.3461C65.3706 39.0409 65.3741 38.7831 65.3461 38.5016C65.3299 38.3385 65.303 38.1673 65.2634 37.9916C64.9718 36.6965 63.9898 35.1547 61.4818 34.7355H39.0117L39.0148 34.7318H30.832ZM61.5811 33.4696H41.7067L44.654 29.972H65.1252C69.417 31.1053 71.5021 35.8376 70.1726 41.3292C68.8535 46.7778 64.122 52.652 55.1371 54.8884L53.7708 55.1625L52.8149 55.2903H41.2989L44.6495 51.3621H54.0839L54.1977 51.3398C55.2633 51.1312 56.9376 50.65 58.5922 49.8685C60.2202 49.0996 61.9918 47.9647 63.0661 46.3658L64.4003 44.3799H50.5984L53.8816 40.5235H66.4416L66.5679 39.4036C66.6673 38.5233 66.5207 37.237 65.7946 36.0585C65.0381 34.8305 63.7176 33.8267 61.679 33.4859L61.5811 33.4696Z" fill="white"/>
<path fill-rule="evenodd" clip-rule="evenodd" d="M22.2218 65.7367C20.899 65.7367 19.4441 65.4807 18.2536 64.8407C17.0631 64.2007 15.8727 63.4328 14.9468 62.4088C16.9309 61.0008 19.3118 60.2328 21.6927 60.4888C24.0736 60.7448 26.3222 61.8968 27.9095 63.6888C26.3222 65.0967 24.3381 65.7367 22.2218 65.7367ZM26.4545 54.9849C26.4545 52.937 27.1159 51.017 28.4386 49.353C30.2904 50.889 31.4808 53.065 31.7454 55.3689C32.0099 57.6729 31.3486 60.1048 29.8936 62.0248C28.8354 61.1288 28.0418 60.1048 27.3804 58.8248C26.719 57.6729 26.4545 56.3929 26.4545 54.9849ZM12.4336 57.5449C11.1109 57.1609 9.92043 56.5209 8.86225 55.7529C7.80407 54.8569 7.01044 53.8329 6.34908 52.553C8.59771 51.657 11.1109 51.657 13.3595 52.553C15.6082 53.4489 17.46 55.1129 18.5181 57.2889C16.5341 57.9289 14.4177 58.0569 12.4336 57.5449ZM19.1795 48.201C19.7086 46.2811 20.899 44.4891 22.4863 43.3371C23.9413 45.2571 24.4704 47.6891 24.0736 49.993C23.6768 52.297 22.4863 54.4729 20.5022 55.8809C19.7086 54.7289 19.1795 53.4489 18.915 52.169C18.7827 50.889 18.915 49.481 19.1795 48.201ZM3.43908 46.5371C2.3809 45.6411 1.455 44.6171 0.925907 43.3371C0.396817 42.0572 0 40.7772 0 39.4972C2.3809 39.6252 4.76181 40.5212 6.48135 42.3132C8.20089 43.9771 9.1268 46.2811 9.1268 48.713C7.01044 48.585 5.02635 47.8171 3.43908 46.5371ZM13.6241 40.9052C14.9468 39.2412 16.7986 38.2172 18.7827 37.8332C19.1795 40.1372 18.7827 42.5691 17.46 44.6171C16.1372 46.6651 14.0209 48.073 11.64 48.585C11.3754 47.3051 11.3754 45.8971 11.7722 44.6171C12.1691 43.0811 12.6982 41.9292 13.6241 40.9052ZM1.85181 33.4813C1.05818 32.4573 0.52909 31.1774 0.264545 29.8974C0 28.6174 0 27.2094 0.396817 25.9295C2.77772 26.5695 4.62954 28.2334 5.81999 30.2814C7.01044 32.3293 7.27499 34.7613 6.7459 37.0653C4.76181 36.4253 3.04227 35.1453 1.85181 33.4813ZM13.2272 30.6654C14.9468 29.5134 16.9309 28.8734 19.0472 29.0014C18.915 31.3054 17.7245 33.6093 15.8727 35.1453C14.0209 36.6813 11.64 37.5772 9.25907 37.4492C9.39134 36.0413 9.78816 34.7613 10.4495 33.6093C11.1109 32.4573 12.0368 31.4334 13.2272 30.6654ZM3.17454 20.2976C2.77772 19.0176 2.64545 17.6096 2.90999 16.3296C3.04227 15.0497 3.57136 13.7697 4.36499 12.6177C6.34908 14.0257 7.6718 16.0737 8.20089 18.3776C8.59771 20.6816 8.20089 23.1135 6.87817 25.1615C5.02635 24.0095 3.8359 22.2175 3.17454 20.2976ZM14.9468 21.0656C16.9309 20.4256 19.0472 20.5536 21.0313 21.1936C20.1054 23.3695 18.2536 25.1615 16.1372 26.0575C13.8886 26.9534 11.3754 27.0814 9.1268 26.1855C9.65589 24.9055 10.4495 23.8815 11.5077 22.9855C12.4336 22.2175 13.6241 21.4496 14.9468 21.0656ZM8.99453 9.80177C8.59771 6.98582 9.65589 4.29787 11.3754 2.37791C13.095 4.04188 14.0209 6.34584 14.0209 8.77779C14.0209 11.2097 13.095 13.5137 11.5077 15.1777C10.185 13.6417 9.25907 11.8497 8.99453 9.80177ZM20.37 12.4897C22.4863 12.2337 24.4704 12.6177 26.3222 13.7697C24.9995 15.8177 22.8831 17.2256 20.6345 17.7376C18.2536 18.2496 15.7404 17.8656 13.7563 16.7136C14.55 15.5617 15.4759 14.6657 16.6663 13.8977C17.7245 13.1297 19.0472 12.7457 20.37 12.4897ZM21.825 2.50591C23.4122 1.22593 25.3963 0.585944 27.5127 0.457947C27.3804 2.8899 26.4545 5.06586 24.735 6.72983C23.0154 8.3938 20.6345 9.28978 18.2536 9.41778C18.2536 8.0098 18.6504 6.72983 19.3118 5.57785C19.8409 4.29787 20.7668 3.27389 21.825 2.50591Z" fill="white"/>
<path fill-rule="evenodd" clip-rule="evenodd" d="M82.3289 66.1948C83.6268 66.1948 85.0546 65.9352 86.2227 65.2863C87.3909 64.7671 88.559 63.8586 89.3378 62.8202C87.3909 61.3925 85.0546 60.6137 82.7183 60.8733C80.382 61.1329 78.1755 62.301 76.618 64.1181C78.3053 65.5459 80.2522 66.1948 82.3289 66.1948ZM78.1755 55.2922C78.1755 53.2155 77.5265 51.2686 76.2286 49.5812C74.4115 51.1388 73.2433 53.3453 72.9837 55.6815C72.7242 58.0178 73.3731 60.4839 74.8009 62.4308C75.8392 61.5223 76.618 60.4839 77.2669 59.186C77.9159 58.0178 78.1755 56.7199 78.1755 55.2922ZM91.9336 57.888C93.2316 57.4986 94.3997 56.8497 95.4381 56.0709C96.4764 55.1624 97.2552 54.124 97.9042 52.8261C95.6977 51.9175 93.2316 51.9175 91.0251 52.8261C88.8186 53.7346 87.0015 55.422 85.9631 57.6284C87.91 58.2774 89.9867 58.4072 91.9336 57.888ZM85.3142 48.4131C84.795 46.4662 83.6268 44.6491 82.0693 43.4809C80.6416 45.4278 80.1224 47.8939 80.5118 50.2302C80.9012 52.5665 82.0693 54.773 84.0162 56.2007C84.795 55.0326 85.3142 53.7346 85.5737 52.4367C85.7035 51.1388 85.5737 49.711 85.3142 48.4131ZM100.76 46.7258C101.798 45.8172 102.707 44.7789 103.226 43.4809C103.745 42.183 104.134 40.885 104.134 39.5871C101.798 39.7169 99.4617 40.6255 97.7744 42.4426C96.087 44.1299 95.1785 46.4662 95.1785 48.9323C97.2552 48.8025 99.2021 48.0237 100.76 46.7258ZM90.7655 41.0148C89.4676 39.3275 87.6504 38.2892 85.7035 37.8998C85.3142 40.2361 85.7035 42.7022 87.0015 44.7789C88.2994 46.8556 90.3761 48.2833 92.7124 48.8025C92.972 47.5045 92.972 46.0768 92.5826 44.7789C92.1932 43.2213 91.674 42.0532 90.7655 41.0148ZM102.317 33.4868C103.096 32.3187 103.615 31.1505 103.875 29.7228C104.134 28.4248 104.134 26.9971 103.745 25.6992C101.409 26.3481 99.5915 28.0355 98.4233 30.1122C97.2552 32.1889 96.9956 34.6549 97.5148 36.9912C99.4617 36.4721 101.149 35.1741 102.317 33.4868ZM91.1549 30.6313C89.4676 29.4632 87.5207 28.8142 85.444 28.944C85.5738 31.2803 86.7419 33.6166 88.559 35.1741C90.3761 36.7316 92.7124 37.6402 95.0487 37.5104C94.9189 36.0827 94.5295 34.7847 93.8806 33.6166C93.2316 32.4484 92.323 31.4101 91.1549 30.6313ZM101.019 20.118C101.409 18.8201 101.538 17.3924 101.279 16.0944C101.149 14.7965 100.63 13.4986 99.8511 12.3304C97.9042 13.7581 96.6062 15.8348 96.087 18.1711C95.6977 20.5074 96.087 22.9735 97.385 25.0502C99.2021 23.8821 100.37 22.0649 101.019 20.118ZM89.4676 20.8968C87.5206 20.2478 85.444 20.3776 83.4971 21.0266C84.4056 23.2331 86.2227 25.0502 88.2994 25.9588C90.5059 26.8673 92.972 26.9971 95.1785 26.0886C94.6593 24.7906 93.8806 23.7523 92.8422 22.8437C91.9336 22.0649 90.7655 21.2862 89.4676 20.8968ZM95.3083 9.47495C95.6977 6.61948 94.6593 3.89381 92.8422 1.94691C91.1549 3.63423 90.2463 5.97051 90.2463 8.4366C90.2463 10.9027 91.1549 13.239 92.7124 14.9263C94.1401 13.3688 95.0487 11.5516 95.3083 9.47495ZM84.146 12.2006C82.0693 11.941 80.1224 12.3304 78.3053 13.4986C79.6032 15.5753 81.6799 17.003 83.8864 17.5222C86.2227 18.0413 88.6888 17.652 90.6357 16.4838C89.8569 15.3157 88.9484 14.4071 87.7802 13.6283C86.7419 12.8496 85.444 12.4602 84.146 12.2006ZM82.7183 2.0767C81.1608 0.778763 79.2138 0.129794 77.1371 0C77.2669 2.46608 78.1755 4.67258 79.8628 6.3599C81.5501 8.04722 83.8864 8.95577 86.2227 9.08557C86.2227 7.65783 85.8333 6.3599 85.1844 5.19175C84.6652 3.89381 83.7566 2.85546 82.7183 2.0767Z" fill="white"/>
</svg>
