<svg width="141" height="90" viewBox="0 0 141 90" fill="none" xmlns="http://www.w3.org/2000/svg">
<path fill-rule="evenodd" clip-rule="evenodd" d="M41.7266 47.0042L75.3901 5.88721V21.6172L88.3377 5.88721V38.741H79.6101V29.7809L72.417 38.741H67.0462V30.0795L59.8403 38.8493H88.3388C102.672 42.3464 100.444 69.643 74.9741 75.9571L73.0372 76.3457L71.5845 76.5399H52.2154L59.6725 67.7973H73.0372C75.225 67.3691 79.6314 65.9764 82.4505 63.4878C83.0422 62.9654 83.564 62.3947 83.9807 61.7746H64.8053L72.1656 53.129H88.4356C88.4687 52.8359 88.4735 52.487 88.4356 52.106C88.4136 51.8852 88.3773 51.6536 88.3237 51.4158C87.929 49.663 86.6001 47.5766 83.2059 47.0092H52.7964L52.8006 47.0042H41.7266ZM83.3403 45.2959H56.4436L60.4323 40.5625H88.1367C93.9449 42.0963 96.7667 48.5007 94.9674 55.9326C93.1823 63.3064 86.779 71.2562 74.6194 74.2828L72.7703 74.6537L71.4768 74.8267H55.8917L60.4263 69.5105H73.194L73.3482 69.4803C74.7903 69.1981 77.0561 68.5468 79.2953 67.4892C81.4986 66.4486 83.8962 64.9127 85.3499 62.7489L87.1556 60.0613H68.4771L72.9203 54.8422H89.9181L90.0892 53.3267C90.2236 52.1354 90.0252 50.3946 89.0426 48.7996C88.0188 47.1378 86.2317 45.7793 83.4729 45.3181L83.3403 45.2959Z" fill="#1C203A"/>
<path fill-rule="evenodd" clip-rule="evenodd" d="M30.0735 88.9633C28.2834 88.9633 26.3143 88.6169 24.7032 87.7507C23.0921 86.8846 21.481 85.8453 20.228 84.4595C22.9131 82.554 26.1353 81.5147 29.3574 81.8611C32.5796 82.2076 35.6227 83.7666 37.7708 86.1917C35.6227 88.0972 32.9376 88.9633 30.0735 88.9633ZM35.8017 74.4125C35.8017 71.641 36.6968 69.0426 38.4869 66.7907C40.993 68.8694 42.6041 71.8142 42.9621 74.9322C43.3201 78.0502 42.4251 81.3415 40.456 83.9398C39.0239 82.7273 37.9499 81.3415 37.0548 79.6092C36.1598 78.0502 35.8017 76.318 35.8017 74.4125ZM16.8268 77.877C15.0367 77.3573 13.4257 76.4912 11.9936 75.4519C10.5615 74.2393 9.48746 72.8535 8.59242 71.1213C11.6356 69.9087 15.0367 69.9087 18.0799 71.1213C21.123 72.3339 23.6292 74.5858 25.0612 77.5306C22.3761 78.3967 19.5119 78.5699 16.8268 77.877ZM25.9563 65.2317C26.6723 62.6333 28.2834 60.2082 30.4315 58.6492C32.4006 61.2476 33.1166 64.5388 32.5796 67.6568C32.0426 70.7748 30.4315 73.7196 27.7464 75.6251C26.6723 74.0661 25.9563 72.3339 25.5982 70.6016C25.4192 68.8694 25.5982 66.9639 25.9563 65.2317ZM4.65423 62.9798C3.22216 61.7672 1.9691 60.3814 1.25306 58.6492C0.537026 56.917 0 55.1847 0 53.4525C3.22216 53.6257 6.44431 54.8383 8.77143 57.2634C11.0985 59.5153 12.3516 62.6334 12.3516 65.9246C9.48746 65.7514 6.80233 64.712 4.65423 62.9798ZM18.4379 55.358C20.228 53.1061 22.7341 51.7203 25.4192 51.2006C25.9563 54.3186 25.4192 57.6099 23.6292 60.3814C21.8391 63.153 18.9749 65.0585 15.7528 65.7514C15.3948 64.0191 15.3947 62.1137 15.9318 60.3814C16.4688 58.3028 17.1848 56.7438 18.4379 55.358ZM2.50612 45.311C1.43207 43.9252 0.716035 42.193 0.358017 40.4608C0 38.7285 0 36.8231 0.537026 35.0908C3.75918 35.957 6.26531 38.2089 7.87638 40.9804C9.48746 43.752 9.84548 47.0432 9.12945 50.1613C6.44431 49.2952 4.1172 47.5629 2.50612 45.311ZM17.9009 41.5001C20.228 39.9411 22.9131 39.075 25.7773 39.2482C25.5982 42.3662 23.9872 45.4842 21.481 47.5629C18.9749 49.6416 15.7528 50.8542 12.5306 50.6809C12.7096 48.7755 13.2466 47.0432 14.1417 45.4842C15.0367 43.9252 16.2898 42.5394 17.9009 41.5001ZM4.29621 27.469C3.75918 25.7368 3.58017 23.8313 3.93819 22.0991C4.1172 20.3668 4.83324 18.6346 5.90729 17.0756C8.59242 18.9811 10.3825 21.7526 11.0985 24.8707C11.6356 27.9887 11.0985 31.2799 9.30845 34.0515C6.80233 32.4925 5.19125 30.0674 4.29621 27.469ZM20.228 28.5083C22.9131 27.6422 25.7773 27.8155 28.4624 28.6816C27.2093 31.6264 24.7032 34.0515 21.8391 35.2641C18.7959 36.4766 15.3948 36.6498 12.3516 35.4373C13.0676 33.705 14.1417 32.3193 15.5738 31.1067C16.8268 30.0674 18.4379 29.028 20.228 28.5083ZM12.1726 13.2647C11.6356 9.45378 13.0676 5.81609 15.3948 3.21774C17.7219 5.46964 18.9749 8.58766 18.9749 11.8789C18.9749 15.1701 17.7219 18.2882 15.5738 20.5401C13.7837 18.4614 12.5306 16.0363 12.1726 13.2647ZM27.5673 16.9024C30.4315 16.5559 33.1166 17.0756 35.6227 18.6346C33.8326 21.4062 30.9685 23.3116 27.9254 24.0045C24.7032 24.6974 21.302 24.1778 18.6169 22.6188C19.691 21.0597 20.944 19.8472 22.5551 18.8078C23.9872 17.7685 25.7773 17.2488 27.5673 16.9024ZM29.5364 3.39096C31.6845 1.65873 34.3697 0.792608 37.2338 0.619385C37.0548 3.91063 35.8017 6.85543 33.4746 9.10733C31.1475 11.3592 27.9254 12.5718 24.7032 12.745C24.7032 10.8396 25.2402 9.10733 26.1353 7.54832C26.8513 5.81609 28.1044 4.4303 29.5364 3.39096Z" fill="#1C203A"/>
<path fill-rule="evenodd" clip-rule="evenodd" d="M111.418 89.5837C113.175 89.5837 115.107 89.2324 116.688 88.3541C118.269 87.6515 119.85 86.4219 120.904 85.0167C118.269 83.0845 115.107 82.0305 111.945 82.3819C108.783 82.7332 105.797 84.314 103.689 86.7732C105.973 88.7054 108.608 89.5837 111.418 89.5837ZM105.797 74.8287C105.797 72.0182 104.919 69.3834 103.162 67.0999C100.703 69.2078 99.1224 72.1939 98.7711 75.3557C98.4198 78.5175 99.2981 81.8549 101.23 84.4897C102.635 83.2601 103.689 81.8549 104.568 80.0983C105.446 78.5175 105.797 76.7609 105.797 74.8287ZM124.417 78.3418C126.173 77.8148 127.754 76.9366 129.159 75.8826C130.565 74.6531 131.618 73.2478 132.497 71.4913C129.511 70.2617 126.173 70.2617 123.187 71.4913C120.201 72.7209 117.742 75.0044 116.337 77.9905C118.971 78.8688 121.782 79.0444 124.417 78.3418ZM115.458 65.519C114.756 62.8842 113.175 60.4251 111.067 58.8442C109.135 61.479 108.432 64.8164 108.959 67.9782C109.486 71.14 111.067 74.1261 113.702 76.0583C114.756 74.4774 115.458 72.7209 115.81 70.9643C115.985 69.2078 115.81 67.2756 115.458 65.519ZM136.361 63.2355C137.766 62.006 138.996 60.6007 139.699 58.8442C140.401 57.0876 140.928 55.3311 140.928 53.5746C137.766 53.7502 134.605 54.9798 132.321 57.4389C130.038 59.7225 128.808 62.8842 128.808 66.2217C131.618 66.046 134.253 64.9921 136.361 63.2355ZM122.836 55.5067C121.079 53.2232 118.62 51.818 115.985 51.291C115.458 54.4528 115.985 57.7903 117.742 60.6007C119.498 63.4112 122.309 65.3434 125.471 66.046C125.822 64.2895 125.822 62.3573 125.295 60.6007C124.768 58.4929 124.065 56.912 122.836 55.5067ZM138.469 45.3188C139.523 43.7379 140.225 42.157 140.577 40.2248C140.928 38.4683 140.928 36.5361 140.401 34.7795C137.239 35.6578 134.78 37.9413 133.199 40.7518C131.618 43.5623 131.267 46.8997 131.97 50.0615C134.605 49.3588 136.888 47.6023 138.469 45.3188ZM123.363 41.4544C121.079 39.8735 118.444 38.9952 115.634 39.1709C115.81 42.3327 117.39 45.4945 119.85 47.6023C122.309 49.7102 125.471 50.9397 128.632 50.7641C128.457 48.8319 127.93 47.0753 127.051 45.4945C126.173 43.9136 124.944 42.5083 123.363 41.4544ZM136.712 27.2264C137.239 25.4699 137.415 23.5377 137.064 21.7811C136.888 20.0246 136.185 18.268 135.132 16.6872C132.497 18.6194 130.74 21.4298 130.038 24.5916C129.511 27.7534 130.038 31.0908 131.794 33.9013C134.253 32.3204 135.834 29.8612 136.712 27.2264ZM121.079 28.2803C118.444 27.4021 115.634 27.5777 112.999 28.456C114.229 31.4421 116.688 33.9013 119.498 35.1309C122.484 36.3604 125.822 36.5361 128.808 35.3065C128.105 33.55 127.051 32.1447 125.646 30.9152C124.417 29.8612 122.836 28.8073 121.079 28.2803ZM128.984 12.8228C129.511 8.95837 128.105 5.26963 125.646 2.63481C123.363 4.91832 122.133 8.0801 122.133 11.4175C122.133 14.755 123.363 17.9167 125.471 20.2002C127.403 18.0924 128.632 15.6332 128.984 12.8228ZM113.877 16.5115C111.067 16.1602 108.432 16.6872 105.973 18.268C107.729 21.0785 110.54 23.0107 113.526 23.7133C116.688 24.4159 120.025 23.889 122.66 22.3081C121.606 20.7272 120.377 19.4976 118.796 18.4437C117.39 17.3898 115.634 16.8628 113.877 16.5115ZM111.945 2.81047C109.837 1.05393 107.203 0.175654 104.392 0C104.568 3.33743 105.797 6.32355 108.081 8.60706C110.364 10.8906 113.526 12.1201 116.688 12.2958C116.688 10.3636 116.161 8.60706 115.283 7.02617C114.58 5.26963 113.35 3.86439 111.945 2.81047Z" fill="#1C203A"/>
</svg>
