<svg width="275" height="47" viewBox="0 0 275 47" fill="none" xmlns="http://www.w3.org/2000/svg">
<path d="M23.5216 35.2578C22.8461 35.3929 22.1707 35.528 21.6303 35.9332C20.9549 36.3385 20.4146 36.8789 20.0093 37.4192L15.2812 45.6595H52.9705L46.8916 35.2578H23.5216Z" fill="#1C203A"/>
<path d="M33.7877 32.0156C34.4631 32.4209 35.2736 32.6911 35.9491 32.6911H45.4052L26.493 0L20.4141 10.4017L32.0315 30.2595C32.4368 30.9349 32.9772 31.6104 33.7877 32.0156Z" fill="#1C203A"/>
<path d="M24.1962 23.3702C24.1962 22.5597 24.0611 21.7492 23.6559 21.0737L18.9278 12.9685L0.015625 45.6596H12.0384L23.3857 25.9369C24.0611 25.1263 24.1962 24.3158 24.1962 23.3702Z" fill="#1C203A"/>
<path d="M83.5001 21.4789V2.02637H78.2317L74.4493 16.4807L70.6668 2.02637H65.3984V21.4789H68.9107C68.9107 20.8035 68.5054 5.53863 68.5054 5.53863L72.8282 21.4789H76.0703L80.258 5.53863C80.258 5.53863 79.8527 21.0736 79.8527 21.4789H83.5001Z" fill="#1C203A"/>
<path d="M91.4716 19.1824L100.117 8.78072V21.4789H103.764V2.02637H100.117V4.18776L91.4716 14.5895V2.02637H87.8242V21.4789H91.4716V19.1824Z" fill="#1C203A"/>
<path d="M123.752 21.4789V2.02637H120.105V9.32107H111.729V2.02637H108.082V21.3438H111.729V12.5632H120.105V21.4789H123.752Z" fill="#1C203A"/>
<path d="M143.611 21.4789V2.02637H128.211V21.3438H131.858V5.26846H139.964V21.4789H143.611Z" fill="#1C203A"/>
<path d="M155.5 2.02637H148.07V21.4789H151.583V14.8596H155.23C160.363 14.8596 162.39 12.0228 162.39 8.51054C162.39 4.45793 159.553 2.02637 155.5 2.02637ZM154.825 11.8877H151.583V5.13337H154.419C156.176 5.13337 158.742 5.26846 158.742 8.37546C158.742 10.6719 157.391 11.8877 154.825 11.8877Z" fill="#1C203A"/>
<path d="M173.604 1.48608C167.93 1.48608 164.283 6.07904 164.418 11.7527C164.418 17.1562 167.93 21.8842 173.604 21.8842C180.493 21.8842 182.925 16.0755 182.925 11.6176C182.925 6.34922 179.547 1.48608 173.604 1.48608ZM173.604 18.507C169.416 18.507 168.065 14.5895 167.93 11.6176C167.93 7.42991 170.226 4.86326 173.469 4.86326C177.386 4.86326 179.142 8.37552 179.142 11.8878C179.142 16.3457 176.44 18.507 173.604 18.507Z" fill="#1C203A"/>
<path d="M195.488 16.4807L191.706 2.02637H186.438V21.4789H189.95C189.95 20.8035 189.545 5.53863 189.545 5.53863L193.732 21.4789H196.974L201.162 5.53863C201.162 5.53863 200.757 21.0736 200.757 21.4789H204.539V2.02637H199.271L195.488 16.4807Z" fill="#1C203A"/>
<path d="M206.969 5.26846H212.237V21.3438H215.884V5.26846H221.288V2.02637H206.969V5.26846Z" fill="#1C203A"/>
<path d="M232.502 1.48608C226.963 1.48608 223.181 6.07904 223.316 11.7527C223.316 17.1562 226.828 21.8842 232.502 21.8842C239.391 21.8842 241.823 16.0755 241.823 11.6176C241.823 6.34922 238.446 1.48608 232.502 1.48608ZM232.502 18.507C228.449 18.507 226.963 14.5895 226.963 11.6176C226.963 7.42991 229.26 4.86326 232.502 4.86326C236.419 4.86326 238.176 8.37552 238.176 11.8878C238.176 16.3457 235.339 18.507 232.502 18.507Z" fill="#1C203A"/>
<path d="M252.897 2.02637H245.332V21.4789H248.979V14.8596H252.627C257.76 14.8596 259.786 12.0228 259.786 8.51054C259.786 4.45793 256.95 2.02637 252.897 2.02637ZM252.221 11.8877H248.979V5.13337H251.816C253.572 5.13337 256.139 5.26846 256.139 8.37546C256.139 10.6719 254.788 11.8877 252.221 11.8877Z" fill="#1C203A"/>
<path d="M262.492 2.02637V21.3438H266.14V5.26846H274.11V2.02637H262.492Z" fill="#1C203A"/>
<path d="M72.961 26.2065H65.5312V45.6591H69.1786V39.0398H72.8259C77.8242 39.0398 79.8505 36.203 79.8505 32.6907C79.8505 28.6381 77.0136 26.2065 72.961 26.2065ZM72.2856 36.0679H69.0435V29.3135H71.8803C73.6365 29.3135 76.2031 29.4486 76.2031 32.5556C76.2031 34.8521 74.8523 36.0679 72.2856 36.0679Z" fill="#1C203A"/>
<path d="M90.9277 25.6665C85.3891 25.6665 81.6067 30.2595 81.7418 35.9331C81.7418 41.3366 85.254 46.0646 90.9277 46.0646C97.8171 46.0646 100.249 40.2559 100.249 35.798C100.249 30.5296 96.8715 25.6665 90.9277 25.6665ZM90.9277 42.6875C86.8751 42.6875 85.3891 38.905 85.254 35.798C85.254 31.6103 87.5505 29.0437 90.7926 29.0437C94.7101 29.0437 96.4663 32.5559 96.4663 36.0682C96.4663 40.5261 93.7645 42.6875 90.9277 42.6875Z" fill="#1C203A"/>
<path d="M111.733 42.6876C107.41 42.6876 106.329 38.4999 106.329 35.7982C106.329 31.4754 108.626 29.0438 111.733 29.0438C113.894 29.0438 115.65 30.5298 115.92 32.6912L119.568 31.7456C118.757 29.0438 116.731 25.8018 111.733 25.8018C104.978 25.8018 102.547 31.4754 102.547 35.7982C102.547 43.0929 107.005 46.1999 111.598 46.1999C117.136 46.1999 119.298 41.8771 119.973 40.2561L116.461 38.7701C115.92 40.7964 114.299 42.6876 111.733 42.6876Z" fill="#1C203A"/>
<path d="M131.186 42.6876C126.863 42.6876 125.782 38.4999 125.782 35.7982C125.782 31.4754 128.079 29.0438 131.186 29.0438C133.347 29.0438 135.103 30.5298 135.374 32.6912L139.021 31.7456C138.21 29.0438 136.184 25.8018 131.186 25.8018C124.432 25.8018 122 31.4754 122 35.7982C122 43.0929 126.458 46.1999 131.051 46.1999C136.589 46.1999 138.751 41.8771 139.426 40.2561L135.914 38.7701C135.374 40.7964 133.753 42.6876 131.186 42.6876Z" fill="#1C203A"/>
<path d="M154.422 28.3679L145.776 38.7696V26.2065H142.129V45.6591H145.776V43.3626L154.422 32.9609V45.6591H158.069V26.2065H154.422V28.3679Z" fill="#1C203A"/>
<path d="M174.684 28.3679L166.038 38.7696V26.2065H162.391V45.6591H166.038V43.3626L174.684 32.9609V45.6591H178.331V26.2065H174.684V28.3679Z" fill="#1C203A"/>
</svg>
