<svg width="218" height="62" viewBox="0 0 218 62" fill="none" xmlns="http://www.w3.org/2000/svg">
<path d="M21.2935 20.4129C18.4527 20.4129 16.2721 22.3617 16.7705 24.5604C17.2884 26.8422 20.1687 27.2485 23.339 27.6957C25.9661 28.0663 28.7922 28.465 30.6385 29.9822V24.5604H27.3616C26.3897 20.9875 23.7855 20.4129 21.2935 20.4129Z" fill="#1C203A"/>
<path fill-rule="evenodd" clip-rule="evenodd" d="M4.49247 4.5042C7.36896 1.62021 11.2703 0 15.3383 0H61.3531V46.1349C61.3531 50.2135 59.7371 54.125 56.8606 57.009C53.9841 59.893 50.0828 61.5133 46.0148 61.5133H15.3383C11.2703 61.5133 7.36896 59.893 4.49247 57.009C1.61599 54.125 0 50.2135 0 46.1349V15.3783C0 11.2997 1.61599 7.3882 4.49247 4.5042ZM43.3353 23.0613H50.6992L42.3634 32.2433L50.6867 46.0975H44.0704L38.3264 36.6407L36.3078 38.8394V46.0226H30.6261V43.5241C28.3427 45.4515 25.4364 46.4775 22.4523 46.4098C18.3031 46.4098 15.1258 45.2106 13.0076 42.8245C11.4985 41.0835 10.6203 38.8824 10.5156 36.5782H16.5712C16.5712 36.5782 16.7581 40.7757 22.4274 40.7757C24.6453 40.7757 27.9596 39.9637 28.0469 37.1279C28.1341 34.2921 25.0814 33.7049 21.9041 33.2927C17.8795 32.768 12.3971 31.8186 11.0763 25.8971C10.8572 24.6393 10.9107 23.349 11.2332 22.1139C11.5557 20.8787 12.1396 19.7276 12.9453 18.7389C13.941 17.5301 15.2034 16.5702 16.6328 15.9349C18.0622 15.2996 19.6195 15.0064 21.1814 15.0786C22.8085 14.9838 24.4373 15.2316 25.9631 15.806C27.4889 16.3805 28.8778 17.2689 30.0405 18.4141C30.2564 18.6473 30.4558 18.8846 30.6385 19.1261V15.3784H36.3203V30.7567L43.3353 23.0613Z" fill="#1C203A"/>
<path d="M86.9984 29.1452C86.8159 28.8435 86.6118 28.5554 86.3878 28.2832C86.118 27.9937 85.8074 27.7454 85.4658 27.5461C85.0761 27.3123 84.6571 27.1317 84.2198 27.0089C83.6375 26.8625 83.0382 26.7952 82.438 26.8091C82.0995 26.8155 81.762 26.8489 81.4288 26.909C81.0019 27.0086 80.5849 27.1466 80.1828 27.3213C79.7375 27.5624 79.3197 27.8515 78.9368 28.1832C78.5049 28.581 78.15 29.0554 77.8901 29.5824C77.5177 30.2542 77.2489 30.9787 77.0927 31.7311C76.8886 32.7044 76.7925 33.6974 76.8061 34.6919C76.7905 35.8116 76.9203 36.9287 77.1924 38.0149C77.4061 38.9088 77.782 39.7558 78.3013 40.5134C78.7586 41.163 79.3712 41.6871 80.0831 42.0375C80.7982 42.4106 81.5946 42.5995 82.4006 42.5871C83.2539 42.6192 84.1041 42.4658 84.8926 42.1374C85.476 41.8626 85.9975 41.4715 86.4252 40.9881C86.7737 40.5696 87.0439 40.0913 87.2227 39.5764C87.4096 39.1017 87.5715 38.652 87.6712 38.3272H92.406C92.2179 39.6412 91.7959 40.9106 91.16 42.0749C90.6015 43.0809 89.8573 43.9712 88.9671 44.6984C88.0757 45.3919 87.0608 45.9092 85.9767 46.2225C83.3593 47.0098 80.5533 46.8865 78.0147 45.8727C76.7604 45.33 75.6477 44.505 74.7627 43.4616C73.839 42.3354 73.1485 41.0358 72.7317 39.6389C72.2386 38.0203 72.0032 36.334 72.0339 34.6419C72.0153 33.3556 72.1534 32.0719 72.4451 30.8192C72.6663 29.7681 73.0267 28.7513 73.5167 27.796C73.9804 26.9533 74.5591 26.1796 75.2361 25.4974C75.8615 24.8626 76.58 24.3276 77.3668 23.9108C78.1361 23.4953 78.9516 23.1724 79.7965 22.9489C80.6393 22.7608 81.4999 22.6645 82.3633 22.6615C83.4802 22.6436 84.5947 22.7738 85.6776 23.0488C86.5498 23.2898 87.3874 23.6425 88.1696 24.0982C88.8597 24.5021 89.4855 25.0074 90.0262 25.5973C90.4966 26.1298 90.9139 26.7072 91.2722 27.3213C91.5597 27.8967 91.8014 28.494 91.9948 29.1077C92.1484 29.6499 92.2445 30.2068 92.2814 30.7692H87.5965L87.3722 29.9822C87.2734 29.6923 87.1483 29.4121 86.9984 29.1452Z" fill="#1C203A"/>
<path d="M105.087 29.1702H110.894L103.941 36.2284L111.218 46.1475H105.499L100.515 38.9643L98.7328 40.7882V46.1475H94.3594V29.1702H98.7453V35.6163L105.087 29.1702Z" fill="#1C203A"/>
<path d="M111.021 34.0547C111.377 32.9969 111.964 32.0323 112.74 31.2313C113.508 30.4267 114.438 29.7963 115.469 29.3824C116.612 28.9197 117.837 28.6903 119.07 28.7078C120.323 28.687 121.569 28.9163 122.733 29.3824C123.758 29.7935 124.681 30.4246 125.437 31.2313C126.184 32.0732 126.767 33.0477 127.156 34.1046C127.92 36.4463 127.92 38.9711 127.156 41.3128C126.77 42.3711 126.186 43.3462 125.437 44.1861C124.671 44.981 123.751 45.6102 122.733 46.035C121.569 46.5011 120.323 46.7304 119.07 46.7096C117.837 46.7271 116.612 46.4978 115.469 46.035C114.445 45.6074 113.518 44.9787 112.74 44.1861C111.947 43.3455 111.358 42.3321 111.021 41.2254C110.207 38.8919 110.207 36.3506 111.021 34.0172V34.0547ZM115.22 39.5389C115.318 40.1417 115.543 40.7166 115.88 41.2254C116.186 41.7385 116.614 42.1677 117.126 42.4746C117.713 42.7841 118.37 42.9348 119.032 42.9119C119.728 42.9436 120.419 42.7929 121.038 42.4746C121.54 42.1814 121.967 41.7751 122.284 41.2878C122.611 40.7827 122.835 40.2182 122.945 39.6263C123.21 38.345 123.21 37.0225 122.945 35.7411C122.833 35.1382 122.609 34.5618 122.284 34.0422C121.943 33.5116 121.462 33.0854 120.895 32.8101C120.328 32.5347 119.697 32.4207 119.07 32.4806C118.407 32.4577 117.75 32.6084 117.163 32.9178C116.655 33.2287 116.227 33.6571 115.917 34.1671C115.57 34.6741 115.332 35.2487 115.22 35.8536C115.083 36.4861 115.008 37.1304 114.995 37.7774C115.014 38.3704 115.089 38.9603 115.22 39.5389Z" fill="#1C203A"/>
<path d="M136.003 32.7429L135.941 35.9035C135.866 37.69 135.742 39.2515 135.58 40.6007C135.442 41.7498 135.152 42.8755 134.72 43.9487C134.369 44.7591 133.81 45.4617 133.1 45.985C132.318 46.4637 131.412 46.6985 130.496 46.6596C129.985 46.6596 129.574 46.6596 129.25 46.5971C128.934 46.5457 128.624 46.4577 128.328 46.3348V42.587L128.901 42.7744C129.167 42.797 129.433 42.797 129.699 42.7744C130.023 42.7898 130.34 42.6778 130.583 42.4621C130.91 42.1747 131.144 41.7964 131.256 41.3753C131.478 40.6462 131.628 39.8973 131.705 39.1391C131.792 38.1897 131.854 36.9779 131.892 35.4788L132.016 29.0576H145.635V46.1474H141.287V32.7429H136.003Z" fill="#1C203A"/>
<path d="M159.489 29.1702H165.345L158.355 36.2284L165.644 46.1475H159.925L154.941 38.9643L153.159 40.7882V46.1475H148.773V29.1702H153.159V35.6163L159.489 29.1702Z" fill="#1C203A"/>
<path d="M165.43 34.0546C165.791 32.984 166.377 32.004 167.15 31.1813C167.924 30.379 168.858 29.7491 169.891 29.3324C171.034 28.8686 172.259 28.6393 173.492 28.6578C174.741 28.637 175.982 28.8663 177.143 29.3324C178.176 29.7517 179.1 30.401 179.846 31.2313C180.602 32.0666 181.186 33.043 181.566 34.1045C182.33 36.4462 182.33 38.971 181.566 41.3127C181.189 42.3756 180.604 43.3524 179.846 44.186C179.085 44.9865 178.164 45.6166 177.143 46.0349C175.982 46.501 174.741 46.7303 173.492 46.7095C172.259 46.728 171.034 46.4987 169.891 46.0349C168.865 45.6043 167.934 44.9762 167.15 44.186C166.374 43.3655 165.787 42.3848 165.43 41.3127C164.633 38.9765 164.633 36.4408 165.43 34.1045V34.0546ZM169.642 39.5388C169.749 40.1489 169.987 40.7285 170.339 41.2378C170.644 41.7519 171.073 42.1813 171.585 42.487C172.177 42.7964 172.838 42.9471 173.504 42.9243C174.187 42.9495 174.865 42.799 175.473 42.487C175.975 42.1938 176.401 41.7875 176.719 41.3002C177.045 40.7951 177.27 40.2306 177.379 39.6387C177.645 38.3574 177.645 37.0349 177.379 35.7536C177.268 35.1506 177.044 34.5742 176.719 34.0546C176.378 33.5197 175.896 33.0898 175.326 32.812C174.757 32.5343 174.122 32.4196 173.492 32.4805C172.825 32.4577 172.164 32.6084 171.573 32.9177C171.064 33.2287 170.637 33.657 170.327 34.167C169.979 34.674 169.741 35.2486 169.629 35.8535C169.486 36.4849 169.411 37.1299 169.405 37.7773C169.422 38.3712 169.501 38.9616 169.642 39.5388Z" fill="#1C203A"/>
<path d="M195.21 29.37C195.877 29.5045 196.52 29.7404 197.116 30.0696C197.663 30.4074 198.113 30.8807 198.425 31.4438C198.769 32.1233 198.933 32.8809 198.898 33.6425C198.914 34.0642 198.864 34.4858 198.749 34.8917C198.663 35.2386 198.51 35.5653 198.3 35.8537C198.132 36.1163 197.917 36.3451 197.665 36.5283C197.425 36.7143 197.166 36.8735 196.892 37.003C197.687 37.2405 198.374 37.7485 198.836 38.4396C199.296 39.1392 199.53 39.9632 199.509 40.8007C199.522 41.5436 199.391 42.2819 199.122 42.9744C198.858 43.6041 198.458 44.1673 197.951 44.6234C197.422 45.1153 196.793 45.4861 196.107 45.7103C195.33 45.9782 194.512 46.1092 193.69 46.0975H184.195V29.1702H192.917C193.686 29.1633 194.454 29.2302 195.21 29.37ZM193.241 35.7162C193.513 35.6451 193.77 35.5267 194.001 35.3665C194.195 35.234 194.34 35.0406 194.413 34.8168C194.507 34.5613 194.549 34.2894 194.537 34.0173C194.546 33.7778 194.504 33.5391 194.413 33.3177C194.323 33.1065 194.182 32.9216 194.001 32.7805C193.781 32.6176 193.531 32.4989 193.266 32.4307C192.885 32.326 192.49 32.2797 192.095 32.2933H188.594V35.8412H191.97C192.397 35.8381 192.822 35.7963 193.241 35.7162ZM193.528 42.8245C193.857 42.7094 194.158 42.5264 194.413 42.2873C194.613 42.1082 194.756 41.8734 194.824 41.6127C194.892 41.3859 194.925 41.15 194.923 40.9131C194.945 40.5558 194.89 40.1979 194.761 39.8638C194.674 39.5964 194.492 39.37 194.251 39.2266C193.983 39.023 193.663 38.9014 193.328 38.8769C192.879 38.8064 192.425 38.7729 191.97 38.7769H188.594V43.0244H191.97C192.497 43.0426 193.023 42.9751 193.528 42.8245Z" fill="#1C203A"/>
<path d="M201.29 34.0546C201.643 32.9879 202.226 32.012 202.997 31.196C203.768 30.38 204.708 29.7438 205.751 29.3324C206.89 28.8687 208.11 28.6392 209.339 28.6578C210.593 28.637 211.838 28.8663 213.003 29.3324C214.034 29.7554 214.958 30.4042 215.706 31.2313C216.462 32.0666 217.046 33.043 217.426 34.1045C218.19 36.4462 218.19 38.971 217.426 41.3127C217.049 42.3756 216.465 43.3524 215.706 44.186C214.956 44.9586 214.058 45.5706 213.065 45.9849C211.901 46.451 210.655 46.6804 209.402 46.6595C208.173 46.6781 206.952 46.4487 205.813 45.9849C204.786 45.5576 203.854 44.929 203.072 44.1361C202.297 43.3156 201.71 42.3348 201.353 41.2628C200.539 38.9293 200.539 36.388 201.353 34.0546H201.29ZM205.489 39.5388C205.597 40.1489 205.835 40.7285 206.187 41.2378C206.493 41.7509 206.921 42.1801 207.433 42.487C208.02 42.7949 208.677 42.9455 209.339 42.9243C210.022 42.9506 210.7 42.8 211.308 42.487C211.811 42.1961 212.239 41.7893 212.554 41.3002C212.89 40.7986 213.119 40.233 213.227 39.6387C213.476 38.3557 213.476 37.0366 213.227 35.7536C213.117 35.1482 212.888 34.5708 212.554 34.0546C212.231 33.575 211.805 33.1738 211.308 32.8803C210.693 32.5787 210.011 32.441 209.327 32.4805C208.665 32.4593 208.008 32.6099 207.421 32.9177C206.912 33.2287 206.485 33.657 206.175 34.167C205.827 34.674 205.589 35.2486 205.477 35.8535C205.34 36.486 205.265 37.1303 205.253 37.7773C205.275 38.3707 205.354 38.9606 205.489 39.5388Z" fill="#1C203A"/>
</svg>
