<svg width="17" height="13" viewBox="0 0 17 13" fill="none" xmlns="http://www.w3.org/2000/svg">
<path d="M0.879351 4.33334H13.9978L12.5679 5.65463C12.403 5.80701 12.3103 6.01367 12.3103 6.22917C12.3103 6.44466 12.403 6.65133 12.5679 6.8037C12.7328 6.95608 12.9564 7.04169 13.1896 7.04169C13.4229 7.04169 13.6465 6.95608 13.8114 6.8037L16.7424 4.09538C16.8241 4.01993 16.8889 3.93036 16.9331 3.83178C16.9773 3.7332 17 3.62754 17 3.52084C17 3.41414 16.9773 3.30848 16.9331 3.2099C16.8889 3.11132 16.8241 3.02175 16.7424 2.94631L13.8114 0.237981C13.6465 0.0856043 13.4229 -1.60555e-09 13.1896 0C12.9564 1.60555e-09 12.7328 0.0856043 12.5679 0.237981C12.403 0.390358 12.3103 0.597025 12.3103 0.812518C12.3103 1.02801 12.403 1.23468 12.5679 1.38706L13.9978 2.70835H0.879351C0.646144 2.70835 0.422489 2.79395 0.257587 2.94632C0.0926853 3.09869 4.43045e-05 3.30536 4.43045e-05 3.52084C4.43045e-05 3.73633 0.0926853 3.94299 0.257587 4.09537C0.422489 4.24774 0.646144 4.33334 0.879351 4.33334Z" fill="#2764E0"/>
<path d="M16.1206 8.66666H3.00217L4.43214 7.34537C4.59704 7.19299 4.68969 6.98633 4.68969 6.77083C4.68969 6.55534 4.59704 6.34867 4.43214 6.1963C4.26723 6.04392 4.04357 5.95831 3.81036 5.95831C3.57715 5.95831 3.35349 6.04392 3.18858 6.1963L0.257559 8.90462C0.175903 8.98007 0.11113 9.06964 0.0669375 9.16822C0.0227454 9.2668 0 9.37246 0 9.47916C0 9.58586 0.0227454 9.69152 0.0669375 9.7901C0.11113 9.88868 0.175903 9.97825 0.257559 10.0537L3.18858 12.762C3.35349 12.9144 3.57715 13 3.81036 13C4.04357 13 4.26723 12.9144 4.43214 12.762C4.59704 12.6096 4.68969 12.403 4.68969 12.1875C4.68969 11.972 4.59704 11.7653 4.43214 11.6129L3.00217 10.2917H16.1206C16.3539 10.2917 16.5775 10.2061 16.7424 10.0537C16.9073 9.90131 17 9.69465 17 9.47916C17 9.26367 16.9073 9.05701 16.7424 8.90464C16.5775 8.75226 16.3539 8.66666 16.1206 8.66666Z" fill="#2764E0"/>
</svg>
