<svg width="230" height="36" viewBox="0 0 230 36" fill="none" xmlns="http://www.w3.org/2000/svg">
<path d="M64.4123 31.5851H71.0297L72.558 28.9426H64.4123V31.5851ZM116.249 29.0444H111.095V26.4699H116.249C117.08 26.4699 117.678 26.6638 117.678 27.7402C117.678 28.5887 117.312 29.0444 116.249 29.0444ZM111.095 22.1352H115.784C116.481 22.1352 116.783 22.494 116.783 23.1777C116.783 23.8613 116.318 24.2541 115.784 24.2541H111.095V22.1352ZM118.306 24.511C119.083 24.1862 119.74 23.6674 119.74 22.3631C119.74 19.8855 117.614 19.5946 116.115 19.5946H108.202V31.5899H116.249C119.938 31.5899 120.705 29.602 120.705 27.7741C120.705 25.7183 119.513 24.8698 118.306 24.511ZM142.684 31.5851H149.301L150.829 28.9426H142.684V31.5851ZM64.4123 24.2492V26.8868H73.7548L75.3177 24.2492H64.4123ZM130.774 29.0396H126.486V26.368H130.774C131.274 26.368 132.04 26.4989 132.04 27.7062C132.04 28.8166 131.412 29.0444 130.774 29.0444V29.0396ZM130.942 23.8904H126.486V19.5897H123.558V31.5851H130.908C132.901 31.5851 134.963 30.5087 134.963 27.6723C134.963 23.9534 132.303 23.8904 130.938 23.8904H130.942ZM136.462 31.5851H139.355V19.5897H136.462V31.5851ZM81.6334 19.5897L74.6203 31.5851H78.0774L82.7017 23.6625L87.3556 31.5851H90.9809L83.9678 19.5897H81.6383H81.6334ZM98.3253 29.1075C95.5013 29.1075 94.3044 27.5123 94.3044 25.5535C94.3044 23.4007 95.6694 21.9655 98.3253 21.9655C101.317 21.9655 102.346 23.4007 102.346 25.5535C102.346 28.1281 100.388 29.1075 98.3253 29.1075ZM98.3599 19.294C93.4735 19.294 91.1441 22.2274 91.1441 25.5195C91.1441 28.8117 93.4043 31.7451 98.3599 31.7451C100.521 31.7451 105.506 30.7657 105.506 25.5195C105.506 22.0964 103.276 19.294 98.3599 19.294ZM47.6166 28.9426L52.2359 21.0201L56.8898 28.9426H47.6116H47.6166ZM53.5366 16.9473H51.1429L44.1298 28.9426H42.3691V35.1052H45.1585V31.5851H59.521V35.1052H62.3153V28.9426H60.5546L53.5416 16.9473H53.5366ZM78.0477 19.5897H64.4173V22.2274H76.4849L78.0477 19.5897ZM142.689 24.2492V26.8868H152.031L153.594 24.2492H142.689ZM156.319 19.5897H142.689V22.2274H154.756L156.319 19.5897ZM227.404 19.5897L220.485 27.3814V19.5897H217.562V31.5851H220.025L227.073 23.7304V31.5851H230.001V19.5897H227.409H227.404ZM159.91 19.5897L152.892 31.5851H156.349L160.973 23.6625L165.627 31.5851H169.252L162.234 19.5897H159.91ZM195.549 24.2492H189.129V19.5897H186.201V31.5851H189.129V26.8917H195.549V31.5851H198.477V19.5897H195.549V24.2492ZM204.723 27.3765V19.5849H201.795V31.5803H204.253L211.301 23.7256V31.5803H214.229V19.5849H211.637L204.723 27.3765ZM173.367 27.3135V19.5897H170.439V31.5851H172.902L179.95 23.7934V31.5851H182.878V19.5897H180.42L173.372 27.3135H173.367Z" fill="#231F20"/>
<path d="M20.858 25.4893L6.93121 19.4603L3.97343 24.587L19.6393 27.6014L20.8531 25.4943L20.858 25.4893ZM18.9159 31.4737H23.5483L27.6159 24.4184L31.6834 31.4737H36.3158L27.6159 16.3913L18.9159 31.4737ZM3.28477 25.7868L0 31.4737H17.4048L18.9506 28.7963L3.28477 25.7818V25.7868ZM26.8628 15.0873L18.1579 0L14.8731 5.6968L25.317 17.7647L26.8628 15.0873ZM24.6234 18.9695L14.1795 6.89664L11.2267 12.0183L23.4096 21.0717L24.6234 18.9645V18.9695ZM22.7506 22.2121L10.5628 13.1636L7.58519 18.32L21.512 24.3539L22.7457 22.2121H22.7506Z" fill="#FBAD18"/>
</svg>
