<svg width="15" height="16" viewBox="0 0 15 16" fill="none" xmlns="http://www.w3.org/2000/svg">
<path d="M2.06539 16H12.9346C14.074 16 15 15.0489 15 13.8785V3.30665C15 2.13628 14.074 1.18516 12.9346 1.18516H12.1154V0.592582C12.1154 0.266652 11.8557 0 11.5384 0C11.2211 0 10.9615 0.266652 10.9615 0.592582V1.18516H4.03848V0.592582C4.03848 0.266652 3.77883 0 3.46152 0C3.14421 0 2.88461 0.266652 2.88461 0.592582V1.18516H2.06539C0.925969 1.18516 0 2.13628 0 3.30665V13.8785C0 15.0489 0.925969 16 2.06539 16ZM1.15387 3.30665C1.15387 2.79111 1.56348 2.37038 2.06539 2.37038H2.88461V2.96296C2.88461 3.28889 3.14421 3.55554 3.46152 3.55554C3.77883 3.55554 4.03843 3.28889 4.03843 2.96296V2.37038H10.9615V2.96296C10.9615 3.28889 11.2211 3.55554 11.5384 3.55554C11.8557 3.55554 12.1153 3.28889 12.1153 2.96296V2.37038H12.9346C13.4365 2.37038 13.8461 2.79111 13.8461 3.30665V5.03704H1.15387V3.30665ZM1.15387 6.22221H13.8462V13.8785C13.8462 14.3941 13.4366 14.8148 12.9347 14.8148H2.06539C1.56348 14.8148 1.15387 14.3941 1.15387 13.8785V6.22221Z" fill="#2764E0"/>
</svg>
