<svg width="16" height="14" viewBox="0 0 16 14" fill="none" xmlns="http://www.w3.org/2000/svg">
<path fill-rule="evenodd" clip-rule="evenodd" d="M4.33348 2.79418C4.33348 1.9764 3.65991 1.31065 2.83057 1.31065C2.00211 1.31065 1.32766 1.9764 1.32766 2.79418C1.32766 3.61195 2.00211 4.2777 2.83057 4.2777C3.65991 4.2777 4.33348 3.61195 4.33348 2.79418ZM5.66114 2.79406C5.66114 4.33438 4.39189 5.58812 2.83057 5.58812C1.27013 5.58812 0 4.33438 0 2.79406C0 1.25375 1.27013 0 2.83057 0C4.39189 0 5.66114 1.25375 5.66114 2.79406ZM15.0471 2.79394C15.0471 2.43223 14.7497 2.13867 14.3832 2.13867H8.93983C8.5734 2.13867 8.276 2.43223 8.276 2.79394C8.276 3.15565 8.5734 3.44921 8.93983 3.44921H14.3832C14.7497 3.44921 15.0471 3.15565 15.0471 2.79394ZM10.7133 10.3184C10.7133 11.1362 11.3868 11.8019 12.2162 11.8019C13.0455 11.8019 13.7191 11.1362 13.7191 10.3184C13.7191 9.49978 13.0455 8.8349 12.2162 8.8349C11.3868 8.8349 10.7133 9.49978 10.7133 10.3184ZM9.38562 10.3185C9.38562 8.77729 10.6549 7.52441 12.2162 7.52441C13.7775 7.52441 15.0468 8.77729 15.0468 10.3185C15.0468 11.8588 13.7775 13.1125 12.2162 13.1125C10.6549 13.1125 9.38562 11.8588 9.38562 10.3185ZM0.664464 9.66202H6.10698C6.47341 9.66202 6.77081 9.95558 6.77081 10.3173C6.77081 10.679 6.47341 10.9726 6.10698 10.9726H0.664464C0.298031 10.9726 0.000635195 10.679 0.000635195 10.3173C0.000635195 9.95558 0.298031 9.66202 0.664464 9.66202Z" fill="#212529"/>
</svg>
