<svg width="16" height="16" viewBox="0 0 16 16" fill="none" xmlns="http://www.w3.org/2000/svg">
<path d="M16 11.1145V15.0228C16.0002 15.1574 15.9733 15.2906 15.9209 15.4145C15.8685 15.5384 15.7917 15.6505 15.695 15.7441C15.5265 15.908 15.3007 15.9998 15.0657 16C15.0525 16 15.0394 15.9997 15.0263 15.9991C11.0958 15.8313 7.37203 14.1921 4.5938 11.4067C1.80806 8.62834 0.16863 4.90423 0.000825157 0.973401C-0.004432 0.850495 0.0154738 0.72781 0.0593219 0.612871C0.10317 0.497933 0.170036 0.393163 0.255819 0.304987C0.349407 0.208342 0.461498 0.13153 0.585408 0.0791324C0.709318 0.0267343 0.84251 -0.000177671 0.977043 8.82689e-07H4.88535C5.11613 0.000983897 5.3389 0.0846619 5.51326 0.235851C5.68761 0.38704 5.80199 0.595722 5.83564 0.824031L6.35187 4.43763C6.37259 4.58516 6.35886 4.73549 6.31175 4.87683C6.26463 5.01817 6.18542 5.14667 6.08032 5.25226L4.54757 6.785C4.49662 6.83496 4.46369 6.90043 4.45396 6.97112C4.44423 7.04182 4.45825 7.11374 4.49381 7.17561C5.57566 8.94045 7.05967 10.4243 8.82461 11.5061C8.8864 11.5415 8.9582 11.5554 9.02877 11.5457C9.09934 11.536 9.16469 11.5031 9.21459 11.4523L10.7477 9.91959C10.8533 9.81464 10.9818 9.73552 11.123 9.68841C11.2643 9.6413 11.4145 9.62749 11.562 9.64804L15.1757 10.1643C15.404 10.1978 15.6128 10.3122 15.764 10.4866C15.9153 10.6609 15.999 10.8837 16 11.1145Z" fill="#212529"/>
</svg>
