<svg width="16" height="16" viewBox="0 0 16 16" fill="none" xmlns="http://www.w3.org/2000/svg">
<path d="M7.94295 0.000935128C7.88362 0.00284624 7.82347 0.00697085 7.76413 0.0148251C7.45029 0.0562873 7.15247 0.179476 6.89784 0.370746C6.89725 0.370744 6.89666 0.370744 6.89606 0.370746L0.891075 4.89007C0.347349 5.29919 0.00554539 5.98008 0.00394895 6.66099C-0.00189105 9.15091 0.000473333 11.6478 0.000473333 13.7777C0.000473333 15.0012 0.999318 16 2.22263 16H13.7778C15.0012 16 16 15.0012 16 13.7777V6.6662C16 5.98514 15.6588 5.30283 15.1146 4.89354C13.0089 3.30992 10.9051 1.72577 9.10437 0.370745C8.76737 0.117585 8.35817 -0.0124198 7.94295 0.000935128ZM2.22263 6.22173H13.7778C13.8691 6.22164 13.9581 6.24962 14.0329 6.30187C14.1076 6.35412 14.1645 6.42811 14.1958 6.5138C14.2271 6.5995 14.2312 6.69274 14.2077 6.78088C14.1842 6.86902 14.1341 6.94779 14.0643 7.00649L9.14604 11.1386C8.48402 11.6948 7.51646 11.6948 6.85444 11.1386L1.93618 7.00649C1.86637 6.94779 1.8163 6.86902 1.79277 6.78088C1.76925 6.69274 1.77341 6.5995 1.80469 6.5138C1.83597 6.42811 1.89285 6.35412 1.96762 6.30187C2.04239 6.24962 2.13142 6.22164 2.22263 6.22173Z" fill="#212529"/>
</svg>
