<svg width="24" height="26" viewBox="0 0 24 26" fill="none" xmlns="http://www.w3.org/2000/svg">
<path d="M6.54405 11.6852L3.16723 8.45432H7.8977V0H16.1046V8.45432H20.8317L17.456 11.6852C21.338 12.3925 24 13.825 24 15.4817V21.7305C24 24.0878 18.6273 26 12.0006 26C5.37162 26 0 24.0878 0 21.7305V15.4818C0 13.825 2.66205 12.3925 6.54405 11.6852ZM12.0006 18.8945C17.294 18.8945 21.5906 17.3683 21.5906 15.4807C21.5906 14.1932 19.5788 13.072 16.6121 12.4907L12.0005 16.9053L7.38674 12.4907C4.42116 13.0709 2.4105 14.192 2.4105 15.4807C2.41171 17.3672 6.70148 18.8945 12.0006 18.8945Z" fill="url(#paint0_linear_1_3563)"/>
<defs>
<linearGradient id="paint0_linear_1_3563" x1="19.3334" y1="3.22612e-07" x2="4.65447" y2="25.0147" gradientUnits="userSpaceOnUse">
<stop stop-color="#2764E0"/>
<stop offset="1" stop-color="#DD0858"/>
</linearGradient>
</defs>
</svg>
