<svg width="24" height="22" viewBox="0 0 24 22" fill="none" xmlns="http://www.w3.org/2000/svg">
<path d="M23.9719 8.36606C23.8854 8.11182 23.6257 7.95237 23.1933 7.88774L15.9524 6.87589L12.7072 0.568293C12.5051 0.189366 12.2696 0 12.0004 0C11.7216 0 11.486 0.189366 11.2937 0.568293L8.04817 6.87589L0.807195 7.88774C0.374527 7.95242 0.114845 8.11182 0.0284024 8.36606C-0.0579392 8.6203 0.0525518 8.89522 0.360179 9.19097L5.6106 14.0984L4.37014 21.0296C4.32214 21.3348 4.35089 21.5721 4.45678 21.7435C4.56247 21.9146 4.72606 22 4.9472 22C5.11074 22 5.30302 21.9446 5.52416 21.8333L12.0007 18.5615L18.4771 21.8333C18.6982 21.9443 18.8907 22 19.0542 22C19.2756 22 19.4393 21.9146 19.5447 21.7435C19.6502 21.5721 19.6791 21.3348 19.631 21.0296L18.3907 14.0984L23.6262 9.19097C23.9437 8.89522 24.059 8.6203 23.9719 8.36606ZM17.1065 12.8229L16.3997 13.4746L16.573 14.3895L17.4383 19.3109L12.8516 16.982L12.0004 16.552V3.20223L14.2939 7.66608L14.7263 8.49774L15.6786 8.63642L20.8137 9.35717L17.1065 12.8229Z" fill="url(#paint0_linear_1_3569)"/>
<defs>
<linearGradient id="paint0_linear_1_3569" x1="4.66663" y1="2.72979e-07" x2="16.001" y2="22.827" gradientUnits="userSpaceOnUse">
<stop stop-color="#2764E0"/>
<stop offset="1" stop-color="#DD0858"/>
</linearGradient>
</defs>
</svg>
