<svg width="24" height="24" viewBox="0 0 24 24" fill="none" xmlns="http://www.w3.org/2000/svg">
<path d="M11.8727 21.3818C11.8727 21.8996 11.7179 22.4058 11.428 22.8364C11.1381 23.267 10.7261 23.6025 10.244 23.8007C9.76187 23.9989 9.23138 24.0507 8.71958 23.9497C8.20779 23.8487 7.73768 23.5993 7.36869 23.2332C6.99971 22.867 6.74843 22.4005 6.64663 21.8926C6.54483 21.3847 6.59707 20.8583 6.79677 20.3799C6.99646 19.9015 7.33463 19.4926 7.7685 19.2049C8.20238 18.9172 8.71248 18.7636 9.2343 18.7636C9.93383 18.7643 10.6045 19.0404 11.0991 19.5312C11.5938 20.0221 11.872 20.6876 11.8727 21.3818ZM18.0289 18.7636C17.5071 18.7636 16.997 18.9172 16.5631 19.2049C16.1292 19.4926 15.791 19.9015 15.5913 20.3799C15.3916 20.8583 15.3394 21.3847 15.4412 21.8926C15.543 22.4005 15.7943 22.867 16.1633 23.2332C16.5323 23.5993 17.0024 23.8487 17.5142 23.9497C18.026 24.0507 18.5564 23.9989 19.0385 23.8007C19.5206 23.6025 19.9327 23.267 20.2226 22.8364C20.5125 22.4058 20.6673 21.8996 20.6673 21.3818C20.6666 20.6876 20.3884 20.0221 19.8937 19.5312C19.3991 19.0404 18.7284 18.7643 18.0289 18.7636ZM23.9683 6.00262L22.245 14.8948C22.1285 15.4918 21.8065 16.0299 21.3342 16.4173C20.8619 16.8046 20.2686 17.017 19.6559 17.0182H7.59807C7.01656 17.0157 6.45216 16.8227 5.9926 16.4691C5.53305 16.1155 5.2041 15.6211 5.05688 15.0628C5.03621 15.0153 2.35695 1.74545 2.35695 1.74545H0.879458C0.646211 1.74545 0.422517 1.65351 0.257587 1.48984C0.0926568 1.32617 0 1.10419 0 0.872727C0 0.641266 0.0926568 0.419284 0.257587 0.255616C0.422517 0.0919477 0.646211 0 0.879458 0H2.35695C2.76337 0.000783622 3.15704 0.1409 3.47131 0.396631C3.78559 0.652363 4.00117 1.008 4.08156 1.40335L4.59033 3.92727H22.241C22.5002 3.92727 22.7562 3.98409 22.9906 4.09369C23.2251 4.20328 23.4322 4.36293 23.5973 4.56123C23.7623 4.75952 23.8811 4.99155 23.9453 5.24073C24.0094 5.48991 24.0173 5.75007 23.9683 6.00262ZM17.5892 10.4727C17.5892 10.2413 17.4965 10.0193 17.3316 9.85562C17.1666 9.69195 16.9429 9.6 16.7097 9.6H14.5111V7.41818C14.5111 7.18672 14.4184 6.96474 14.2535 6.80107C14.0885 6.6374 13.8648 6.54545 13.6316 6.54545C13.3983 6.54545 13.1747 6.6374 13.0097 6.80107C12.8448 6.96474 12.7521 7.18672 12.7521 7.41818V9.6H10.5535C10.3202 9.6 10.0966 9.69195 9.93162 9.85562C9.76669 10.0193 9.67403 10.2413 9.67403 10.4727C9.67403 10.7042 9.76669 10.9262 9.93162 11.0898C10.0966 11.2535 10.3202 11.3455 10.5535 11.3455H12.7521V13.5273C12.7521 13.7587 12.8448 13.9807 13.0097 14.1444C13.1747 14.3081 13.3983 14.4 13.6316 14.4C13.8648 14.4 14.0885 14.3081 14.2535 14.1444C14.4184 13.9807 14.5111 13.7587 14.5111 13.5273V11.3455H16.7097C16.9429 11.3455 17.1666 11.2535 17.3316 11.0898C17.4965 10.9262 17.5892 10.7042 17.5892 10.4727Z" fill="url(#paint0_linear_1_3567)"/>
<defs>
<linearGradient id="paint0_linear_1_3567" x1="4.66663" y1="2.97796e-07" x2="17.6667" y2="23.9999" gradientUnits="userSpaceOnUse">
<stop stop-color="#2764E0"/>
<stop offset="1" stop-color="#DD0858"/>
</linearGradient>
</defs>
</svg>
