<svg width="32" height="16" viewBox="0 0 32 16" fill="none" xmlns="http://www.w3.org/2000/svg">
<path d="M32 8C32 3.58876 28.4422 0 24.0691 0C21.9507 0 19.9591 0.832127 18.4612 2.34318L10.3919 10.4826C9.73462 11.1457 8.86056 11.511 7.93081 11.511C6.01156 11.511 4.45019 9.93598 4.45019 8C4.45019 6.06402 6.01156 4.48904 7.93081 4.48904C8.86056 4.48904 9.73462 4.85426 10.392 5.51742L11.5274 6.66263L14.6742 3.48845L13.5387 2.34318C12.0408 0.832127 10.0492 0 7.93081 0C3.55775 0 0 3.58876 0 8C0 12.4112 3.55775 16 7.93087 16C10.0493 16 12.0409 15.1679 13.5388 13.6568L21.6081 5.5173C22.2654 4.85419 23.1394 4.48898 24.0692 4.48898C25.9884 4.48898 27.5498 6.06396 27.5498 7.99994C27.5498 9.93591 25.9884 11.5109 24.0692 11.5109C23.1394 11.5109 22.2653 11.1457 21.608 10.4824L20.4726 9.33724L17.3258 12.5114L18.4612 13.6567C19.9592 15.1677 21.9508 15.9999 24.0692 15.9999C28.4422 16 32 12.4112 32 8Z" fill="url(#paint0_linear_1_3565)"/>
<defs>
<linearGradient id="paint0_linear_1_3565" x1="6.22217" y1="1.9853e-07" x2="11.4439" y2="19.2802" gradientUnits="userSpaceOnUse">
<stop stop-color="#2764E0"/>
<stop offset="1" stop-color="#DD0858"/>
</linearGradient>
</defs>
</svg>
