<svg width="22" height="22" viewBox="0 0 22 22" fill="none" xmlns="http://www.w3.org/2000/svg">
<path d="M21.8307 19.0984L12.2047 1.59052C11.9601 1.14613 11.5095 0.880371 11 0.880371C10.4905 0.880371 10.04 1.14613 9.79534 1.59052L0.169354 19.0984C-0.0638385 19.5251 -0.0559322 20.0285 0.191354 20.4456C0.440402 20.868 0.883025 21.1197 1.37489 21.1197H20.6251C21.117 21.1197 21.5596 20.868 21.8087 20.4456C22.0559 20.0285 22.0639 19.5251 21.8307 19.0984ZM10.7827 7.93862C10.8566 7.92629 10.9296 7.92014 11.0018 7.92014C11.6354 7.92014 12.1941 8.37333 12.3015 9.01129C12.327 9.15649 12.3244 9.30434 12.3015 9.44158L11.4338 14.5956C11.3977 14.8085 11.2112 14.9599 11.0009 14.9599C10.9771 14.9599 10.9516 14.9581 10.9278 14.9537C10.7369 14.9221 10.5961 14.7742 10.5662 14.5956L9.69853 9.44158C9.578 8.72972 10.0646 8.05652 10.7827 7.93862ZM11 18.4798C10.2723 18.4798 9.68005 17.8876 9.68005 17.1598C9.68005 16.432 10.2722 15.8398 11 15.8398C11.7278 15.8398 12.32 16.4321 12.32 17.1598C12.32 17.8875 11.7277 18.4798 11 18.4798Z" fill="url(#paint0_linear_1_3571)"/>
<defs>
<linearGradient id="paint0_linear_1_3571" x1="4.27775" y1="0.880371" x2="14.7276" y2="21.8506" gradientUnits="userSpaceOnUse">
<stop stop-color="#2764E0"/>
<stop offset="1" stop-color="#DD0858"/>
</linearGradient>
</defs>
</svg>
