<svg width="253" height="67" viewBox="0 0 253 67" fill="none" xmlns="http://www.w3.org/2000/svg">
<path d="M33.048 25.2941L52.5455 53.4488H41.6299L24.8424 29.4345H16.7875V53.4488H7.22688V8.95832H0L4.81792 0H16.7875V21.1537H24.8424L40.8018 0H51.6421L33.048 25.2941ZM49.6096 34.1771C49.6096 30.0116 50.5631 26.3731 52.4702 23.2615C54.3271 20.3507 56.8615 18.1174 60.0735 16.5616C63.2854 15.0058 66.7483 14.2279 70.4621 14.2279C74.2763 14.2279 77.7141 14.9807 80.7755 16.4863C83.9874 18.0421 86.5219 20.3507 88.3788 23.4121C90.2357 26.4233 91.1641 30.0116 91.1641 34.1771C91.1641 38.3928 90.2357 42.0313 88.3788 45.0927C86.5219 48.1039 83.9874 50.4376 80.7755 52.0938C77.6137 53.6997 74.1759 54.5027 70.4621 54.5027C66.7985 54.5027 63.3607 53.6997 60.1488 52.0938C56.8866 50.4878 54.302 48.1541 52.3949 45.0927C50.538 41.9812 49.6096 38.3426 49.6096 34.1771ZM211.989 15.4324H220.496V20.6267C221.8 18.6193 223.532 17.0886 225.69 16.0347C227.898 14.9305 230.734 14.3785 234.197 14.3785C237.76 14.3785 240.922 15.1815 243.682 16.7875C246.342 18.4436 248.399 20.8024 249.855 23.8638C251.36 26.875 252.113 30.3379 252.113 34.2524C252.113 38.2172 251.36 41.7302 249.855 44.7916C248.399 47.8028 246.342 50.1365 243.682 51.7927C242.427 52.6458 240.947 53.2732 239.24 53.6747C237.584 54.1263 235.903 54.3522 234.197 54.3522C231.236 54.3522 229.027 54.1263 227.572 53.6747C224.561 52.7713 222.428 51.2657 221.173 49.1579V66.9239H211.989V15.4324ZM96.0573 15.4324H105.167V29.8862H120.75V15.4324H129.783V53.4488H120.75V37.4142H105.167V53.4488H96.0573V15.4324ZM133.773 15.4324H168.778V22.6593H155.83V53.4488H146.571V22.6593H133.773V15.4324ZM181.35 15.4324C184.763 24.7671 187.874 34.0015 190.685 43.1355C193.345 34.1019 196.356 24.8675 199.718 15.4324H208.902L194.9 54.2016C193.746 57.3634 192.642 59.7974 191.588 61.5038C190.434 63.2101 189.003 64.4899 187.297 65.3431C185.641 66.2464 183.433 66.6981 180.672 66.6981C179.117 66.6981 178.263 66.673 178.113 66.6228L175.026 59.3959C175.98 59.5967 177.159 59.6971 178.565 59.6971C180.271 59.6971 181.651 59.4461 182.705 58.9443C183.659 58.5428 184.386 57.9907 184.888 57.2881C185.39 56.6357 185.817 55.8076 186.168 54.8039L171.714 15.4324H181.35ZM58.869 34.1019C58.869 38.2673 59.8727 41.4542 61.8802 43.6624C63.8877 45.8204 66.673 46.8995 70.2363 46.8995C73.8497 46.8995 76.6602 45.8204 78.6676 43.6624C80.7253 41.4542 81.7541 38.2673 81.7541 34.1019C81.7541 30.0367 80.7504 26.9753 78.7429 24.9177C76.7355 22.8099 73.8999 21.7559 70.2363 21.7559C66.6228 21.7559 63.8124 22.8099 61.8049 24.9177C59.8476 26.9753 58.869 30.0367 58.869 34.1019ZM220.947 34.1771C221.048 37.9411 222.051 40.9523 223.958 43.2107C225.866 45.4691 228.551 46.5983 232.013 46.5983C235.476 46.5983 238.136 45.4691 239.993 43.2107C241.9 40.9523 242.879 37.9411 242.929 34.1771C242.879 30.4633 241.9 27.5023 239.993 25.2941C238.136 23.0357 235.476 21.9065 232.013 21.9065C228.551 21.9065 225.866 23.0106 223.958 25.2188C222.051 27.427 221.048 30.4131 220.947 34.1771Z" fill="white"/>
</svg>
