<svg width="94" height="25" viewBox="0 0 94 25" fill="none" xmlns="http://www.w3.org/2000/svg">
<path d="M12.6803 9.63628L19.8572 19.9998H15.8393L9.65989 11.1603H6.69495V19.9998H3.17579V3.62317H0.515625L2.28906 0.325684H6.69495V8.11218H9.65989L15.5344 0.325684H19.5247L12.6803 9.63628ZM18.7765 12.906C18.7765 11.3728 19.1275 10.0334 19.8295 8.88808C20.513 7.81658 21.4459 6.99458 22.6282 6.42188C23.8105 5.84918 25.0852 5.56288 26.4522 5.56288C27.8562 5.56288 29.1216 5.83998 30.2485 6.39418C31.4308 6.96688 32.3637 7.81658 33.0472 8.94348C33.7307 10.0519 34.0724 11.3728 34.0724 12.906C34.0724 14.4578 33.7307 15.7971 33.0472 16.924C32.3637 18.0324 31.4308 18.8914 30.2485 19.501C29.0846 20.0922 27.8192 20.3877 26.4522 20.3877C25.1036 20.3877 23.8382 20.0922 22.6559 19.501C21.4552 18.9099 20.5038 18.0509 19.8018 16.924C19.1183 15.7786 18.7765 14.4393 18.7765 12.906ZM78.547 6.00628H81.6782V7.91818C82.1585 7.17928 82.7959 6.61588 83.5902 6.22788C84.403 5.82148 85.4468 5.61828 86.7214 5.61828C88.033 5.61828 89.1969 5.91388 90.2129 6.50498C91.192 7.11458 91.9494 7.98288 92.4851 9.10978C93.0393 10.2182 93.3164 11.4928 93.3164 12.9337C93.3164 14.3931 93.0393 15.6863 92.4851 16.8132C91.9494 17.9215 91.192 18.7806 90.2129 19.3902C89.7511 19.7042 89.2061 19.9351 88.578 20.0829C87.9684 20.2492 87.3495 20.3323 86.7214 20.3323C85.6315 20.3323 84.8187 20.2492 84.283 20.0829C83.1746 19.7504 82.3894 19.1962 81.9276 18.4203V24.9599H78.547V6.00628ZM35.8736 6.00628H39.2265V11.3266H44.9625V6.00628H48.2877V19.9998H44.9625V14.0976H39.2265V19.9998H35.8736V6.00628ZM49.7563 6.00628H62.6415V8.66638H57.8753V19.9998H54.467V8.66638H49.7563V6.00628ZM67.269 6.00628C68.5252 9.44228 69.6706 12.8414 70.7051 16.2035C71.6841 12.8783 72.7925 9.47918 74.0303 6.00628H77.4109L72.2568 20.2769C71.8319 21.4407 71.4255 22.3367 71.0376 22.9648C70.6127 23.5929 70.0862 24.0639 69.4581 24.378C68.8485 24.7105 68.0357 24.8768 67.0196 24.8768C66.447 24.8768 66.1329 24.8675 66.0775 24.8491L64.9414 22.1889C65.2924 22.2628 65.7265 22.2997 66.2437 22.2997C66.8718 22.2997 67.3799 22.2074 67.7678 22.0226C68.1188 21.8748 68.3867 21.6716 68.5714 21.413C68.7561 21.1729 68.9131 20.868 69.0425 20.4986L63.7221 6.00628H67.269ZM22.1848 12.8783C22.1848 14.4116 22.5543 15.5847 23.2932 16.3975C24.0322 17.1919 25.0575 17.589 26.3691 17.589C27.6991 17.589 28.7336 17.1919 29.4726 16.3975C30.23 15.5847 30.6087 14.4116 30.6087 12.8783C30.6087 11.382 30.2392 10.2551 29.5003 9.49768C28.7614 8.72178 27.7176 8.33388 26.3691 8.33388C25.039 8.33388 24.0045 8.72178 23.2655 9.49768C22.5451 10.2551 22.1848 11.382 22.1848 12.8783ZM81.8445 12.906C81.8814 14.2915 82.2509 15.3999 82.9529 16.2312C83.6549 17.0625 84.6432 17.4782 85.9178 17.4782C87.1925 17.4782 88.1716 17.0625 88.8551 16.2312C89.5571 15.3999 89.9173 14.2915 89.9358 12.906C89.9173 11.539 89.5571 10.4491 88.8551 9.63628C88.1716 8.80498 87.1925 8.38928 85.9178 8.38928C84.6432 8.38928 83.6549 8.79568 82.9529 9.60848C82.2509 10.4214 81.8814 11.5205 81.8445 12.906Z" fill="#222222"/>
</svg>
