<svg width="226" height="26" viewBox="0 0 226 26" fill="none" xmlns="http://www.w3.org/2000/svg">
<path d="M12.1647 9.72613L19.3416 20.0896H15.3237L9.14427 11.2501H6.17933V20.0896H2.66016V3.71302H0L1.77344 0.415527H6.17933V8.20203H9.14427L15.0188 0.415527H19.0091L12.1647 9.72613ZM18.2609 12.9958C18.2609 11.4626 18.6119 10.1232 19.3139 8.97793C19.9974 7.90643 20.9303 7.08443 22.1126 6.51173C23.2949 5.93903 24.5696 5.65273 25.9366 5.65273C27.3406 5.65273 28.606 5.92983 29.7329 6.48403C30.9152 7.05673 31.8481 7.90643 32.5316 9.03333C33.2151 10.1417 33.5568 11.4626 33.5568 12.9958C33.5568 14.5476 33.2151 15.8869 32.5316 17.0138C31.8481 18.1222 30.9152 18.9812 29.7329 19.5908C28.569 20.182 27.3036 20.4775 25.9366 20.4775C24.588 20.4775 23.3226 20.182 22.1403 19.5908C20.9396 18.9997 19.9882 18.1407 19.2862 17.0138C18.6027 15.8684 18.2609 14.5291 18.2609 12.9958ZM78.0314 6.09613H81.1626V8.00803C81.6429 7.26913 82.2803 6.70573 83.0746 6.31773C83.8874 5.91133 84.9312 5.70813 86.2058 5.70813C87.5174 5.70813 88.6813 6.00373 89.6973 6.59483C90.6764 7.20443 91.4338 8.07273 91.9695 9.19963C92.5237 10.308 92.8008 11.5826 92.8008 13.0235C92.8008 14.4829 92.5237 15.7761 91.9695 16.903C91.4338 18.0113 90.6764 18.8704 89.6973 19.48C89.2355 19.794 88.6905 20.0249 88.0624 20.1727C87.4528 20.339 86.8339 20.4221 86.2058 20.4221C85.1159 20.4221 84.3031 20.339 83.7674 20.1727C82.659 19.8402 81.8738 19.286 81.412 18.5101V25.0497H78.0314V6.09613ZM35.358 6.09613H38.7109V11.4164H44.4469V6.09613H47.7721V20.0896H44.4469V14.1874H38.7109V20.0896H35.358V6.09613ZM49.2407 6.09613H62.1259V8.75623H57.3597V20.0896H53.9514V8.75623H49.2407V6.09613ZM66.7534 6.09613C68.0096 9.53213 69.155 12.9312 70.1895 16.2933C71.1685 12.9681 72.2769 9.56903 73.5147 6.09613H76.8953L71.7412 20.3667C71.3163 21.5305 70.9099 22.4265 70.522 23.0546C70.0971 23.6827 69.5706 24.1537 68.9425 24.4678C68.3329 24.8003 67.5201 24.9666 66.504 24.9666C65.9314 24.9666 65.6173 24.9573 65.5619 24.9389L64.4258 22.2787C64.7768 22.3526 65.2109 22.3895 65.7281 22.3895C66.3562 22.3895 66.8643 22.2972 67.2522 22.1124C67.6032 21.9646 67.8711 21.7614 68.0558 21.5028C68.2405 21.2627 68.3975 20.9578 68.5269 20.5884L63.2065 6.09613H66.7534ZM21.6692 12.9681C21.6692 14.5014 22.0387 15.6745 22.7776 16.4873C23.5166 17.2817 24.5419 17.6788 25.8535 17.6788C27.1835 17.6788 28.218 17.2817 28.957 16.4873C29.7144 15.6745 30.0931 14.5014 30.0931 12.9681C30.0931 11.4718 29.7236 10.3449 28.9847 9.58753C28.2458 8.81163 27.202 8.42373 25.8535 8.42373C24.5234 8.42373 23.4889 8.81163 22.7499 9.58753C22.0295 10.3449 21.6692 11.4718 21.6692 12.9681ZM81.3289 12.9958C81.3658 14.3813 81.7353 15.4897 82.4373 16.321C83.1393 17.1523 84.1276 17.568 85.4022 17.568C86.6769 17.568 87.656 17.1523 88.3395 16.321C89.0415 15.4897 89.4017 14.3813 89.4202 12.9958C89.4017 11.6288 89.0415 10.5389 88.3395 9.72613C87.656 8.89483 86.6769 8.47913 85.4022 8.47913C84.1276 8.47913 83.1393 8.88553 82.4373 9.69833C81.7353 10.5112 81.3658 11.6103 81.3289 12.9958Z" fill="#222222"/>
<path d="M113.278 4.54445C112.244 3.69467 111.283 3.09428 110.396 2.74329C109.51 2.3923 108.549 2.2168 107.515 2.2168C106.018 2.2168 104.716 2.54932 103.607 3.21436C102.499 3.8794 101.64 4.82155 101.03 6.04075C100.421 7.26005 100.116 8.66395 100.116 10.2527C100.116 11.8045 100.421 13.19 101.03 14.4092C101.64 15.647 102.49 16.6075 103.58 17.291C104.67 17.956 105.926 18.2885 107.348 18.2885C108.106 18.2885 108.835 18.1869 109.537 17.9837C110.184 17.799 110.812 17.5128 111.422 17.1248C112.05 16.7184 112.77 16.1456 113.583 15.4067L115.107 17.097C114.239 17.9653 113.417 18.6395 112.641 19.1199C111.865 19.6002 111.052 19.9511 110.202 20.1728C109.353 20.3945 108.411 20.5055 107.376 20.5055C105.399 20.5055 103.672 20.0621 102.194 19.1754C100.716 18.3071 99.5624 17.0971 98.7314 15.5454C97.9181 13.9751 97.5117 12.2109 97.5117 10.2527C97.5117 8.77485 97.7426 7.41705 98.2044 6.17935C98.6664 4.92315 99.3404 3.83322 100.227 2.90955C102.056 0.96985 104.494 0 107.542 0C108.946 0 110.212 0.21244 111.339 0.63733C112.465 1.06222 113.611 1.77344 114.775 2.771L113.278 4.54445ZM129.171 16.1826C129.171 17.3649 128.755 18.3164 127.924 19.0368C127.092 19.7388 125.956 20.0898 124.515 20.0898H117.255V6.09625H124.183C125.531 6.09625 126.621 6.42875 127.453 7.09375C128.302 7.74035 128.727 8.60855 128.727 9.69845C128.727 10.5114 128.515 11.1856 128.09 11.7213C127.683 12.257 127.111 12.6358 126.372 12.8575C127.24 13.0607 127.924 13.4579 128.422 14.049C128.921 14.6217 129.171 15.3328 129.171 16.1826ZM119.611 12.0539H123.823C124.654 12.0539 125.282 11.8783 125.707 11.5273C126.15 11.1578 126.372 10.6406 126.372 9.97565C126.372 9.32905 126.15 8.83025 125.707 8.47925C125.282 8.12825 124.654 7.95275 123.823 7.95275H119.611V12.0539ZM126.76 15.9886C126.76 15.3051 126.52 14.7787 126.039 14.4092C125.559 14.0213 124.848 13.8272 123.906 13.8272H119.611V18.2055H123.906C124.848 18.2055 125.559 18.0208 126.039 17.6513C126.52 17.2634 126.76 16.7091 126.76 15.9886ZM144.861 17.6513C143.882 18.6674 142.903 19.3971 141.923 19.8404C140.944 20.2653 139.799 20.4776 138.487 20.4776C137.01 20.4776 135.726 20.1728 134.636 19.5632C133.527 18.9536 132.668 18.0946 132.059 16.9862C131.449 15.8778 131.144 14.5846 131.144 13.1068C131.144 11.7028 131.44 10.4282 132.031 9.28285C132.641 8.15595 133.481 7.27845 134.553 6.65045C135.643 6.02235 136.908 5.70825 138.349 5.70825C140.381 5.70825 141.96 6.30865 143.087 7.50945C144.233 8.71015 144.805 10.3636 144.805 12.4696C144.805 12.5989 144.787 12.9406 144.75 13.4948H133.61C133.703 14.4924 133.934 15.3514 134.303 16.0718C134.71 16.8293 135.273 17.4204 135.994 17.8453C136.714 18.2702 137.582 18.4825 138.598 18.4825C139.559 18.4825 140.409 18.3071 141.148 17.9561C141.905 17.6051 142.672 17.0139 143.448 16.1826L144.861 17.6513ZM142.533 11.7491C142.478 10.4744 142.071 9.46755 141.314 8.72865C140.575 7.97125 139.577 7.59255 138.321 7.59255C137.083 7.59255 136.049 7.97125 135.218 8.72865C134.386 9.46755 133.878 10.4744 133.694 11.7491H142.533ZM152.709 8.03585V20.0898H150.326V8.03585H145.421V6.09625H157.614V8.03585H152.709ZM172.861 13.1068C172.861 14.5477 172.556 15.8225 171.946 16.9309C171.318 18.0577 170.45 18.9351 169.342 19.5632C168.233 20.1728 166.968 20.4776 165.545 20.4776C164.104 20.4776 162.839 20.1637 161.749 19.5356C160.622 18.926 159.745 18.0669 159.117 16.9585C158.507 15.8501 158.202 14.5662 158.202 13.1068V12.996C158.202 11.5736 158.516 10.3173 159.144 9.22745C159.754 8.11905 160.613 7.26005 161.721 6.65045C162.83 6.02235 164.104 5.70825 165.545 5.70825C166.968 5.70825 168.233 6.01305 169.342 6.62265C170.45 7.23235 171.309 8.09135 171.919 9.19975C172.547 10.3081 172.861 11.5736 172.861 12.996V13.1068ZM160.641 13.1068C160.641 14.1782 160.844 15.1112 161.25 15.9056C161.657 16.7369 162.229 17.3742 162.968 17.8176C163.707 18.2609 164.566 18.4825 165.545 18.4825C166.524 18.4825 167.383 18.2517 168.122 17.7899C168.861 17.3465 169.425 16.7183 169.813 15.9056C170.219 15.0928 170.422 14.1598 170.422 13.1068V12.996C170.422 11.9431 170.219 11.0194 169.813 10.225C169.406 9.43065 168.824 8.81175 168.067 8.36845C167.328 7.92505 166.488 7.70335 165.545 7.70335C164.603 7.70335 163.763 7.91585 163.024 8.34075C162.285 8.78405 161.703 9.41215 161.278 10.225C160.853 11.0379 160.641 11.9615 160.641 12.996V13.1068ZM184.692 0.41565V5.73595C186.207 5.79135 187.574 6.11465 188.793 6.70585C189.994 7.31545 190.917 8.15595 191.564 9.22745C192.229 10.2988 192.562 11.592 192.562 13.1068C192.562 14.5846 192.238 15.8685 191.592 16.9585C190.927 18.0299 189.994 18.8706 188.793 19.4802C187.592 20.0898 186.225 20.4222 184.692 20.4776V25.0776H182.392V20.4776C180.84 20.4222 179.482 20.0898 178.319 19.4802C177.118 18.8706 176.185 18.0299 175.52 16.9585C174.855 15.8685 174.522 14.5846 174.522 13.1068C174.522 11.6104 174.855 10.3265 175.52 9.25515C176.185 8.18365 177.118 7.34315 178.319 6.73355C179.519 6.12395 180.877 5.79135 182.392 5.73595V0.41565H184.692ZM182.447 7.62025C180.729 7.69415 179.381 8.21135 178.402 9.17205C177.441 10.1327 176.961 11.4442 176.961 13.1068C176.961 14.7694 177.441 16.0811 178.402 17.0417C179.381 18.0023 180.729 18.5103 182.447 18.5657V7.62025ZM184.636 18.5657C186.355 18.5103 187.703 18.0023 188.682 17.0417C189.661 16.0811 190.151 14.7694 190.151 13.1068C190.151 11.4442 189.661 10.1327 188.682 9.17205C187.703 8.21135 186.355 7.69415 184.636 7.62025V18.5657ZM208.905 13.1068C208.905 14.5477 208.601 15.8225 207.991 16.9309C207.363 18.0577 206.495 18.9351 205.386 19.5632C204.278 20.1728 203.012 20.4776 201.59 20.4776C200.149 20.4776 198.884 20.1637 197.794 19.5356C196.667 18.926 195.789 18.0669 195.161 16.9585C194.552 15.8501 194.247 14.5662 194.247 13.1068V12.996C194.247 11.5736 194.561 10.3173 195.189 9.22745C195.799 8.11905 196.658 7.26005 197.766 6.65045C198.874 6.02235 200.149 5.70825 201.59 5.70825C203.012 5.70825 204.278 6.01305 205.386 6.62265C206.495 7.23235 207.354 8.09135 207.963 9.19975C208.591 10.3081 208.905 11.5736 208.905 12.996V13.1068ZM196.685 13.1068C196.685 14.1782 196.889 15.1112 197.295 15.9056C197.701 16.7369 198.274 17.3742 199.013 17.8176C199.752 18.2609 200.611 18.4825 201.59 18.4825C202.569 18.4825 203.428 18.2517 204.167 17.7899C204.906 17.3465 205.469 16.7183 205.857 15.9056C206.264 15.0928 206.467 14.1598 206.467 13.1068V12.996C206.467 11.9431 206.264 11.0194 205.857 10.225C205.451 9.43065 204.869 8.81175 204.112 8.36845C203.373 7.92505 202.532 7.70335 201.59 7.70335C200.648 7.70335 199.807 7.91585 199.068 8.34075C198.329 8.78405 197.748 9.41215 197.323 10.225C196.898 11.0379 196.685 11.9615 196.685 12.996V13.1068ZM225.835 13.1068C225.835 14.5477 225.558 15.8225 225.004 16.9309C224.431 18.0393 223.628 18.8983 222.593 19.5079C221.559 20.1175 220.376 20.4223 219.046 20.4223C216.552 20.4223 214.797 19.6371 213.781 18.0669V25.0776H211.398V6.09625H213.615V8.56235C214.705 6.67815 216.525 5.73595 219.074 5.73595C220.367 5.73595 221.531 6.03155 222.565 6.62265C223.6 7.25075 224.404 8.10975 224.976 9.19975C225.549 10.2896 225.835 11.5459 225.835 12.9683V13.1068ZM223.424 12.9683C223.424 11.9338 223.23 11.0194 222.843 10.225C222.436 9.44915 221.863 8.83945 221.124 8.39615C220.404 7.95275 219.582 7.73105 218.658 7.73105C217.716 7.73105 216.866 7.94355 216.109 8.36845C215.333 8.81175 214.733 9.42135 214.308 10.1973C213.883 10.9732 213.67 11.8969 213.67 12.9683V13.1068C213.67 14.714 214.123 16.0071 215.028 16.9862C215.933 17.9468 217.134 18.4272 218.631 18.4272C219.554 18.4272 220.386 18.1962 221.124 17.7344C221.845 17.291 222.408 16.6721 222.815 15.8778C223.221 15.065 223.424 14.1413 223.424 13.1068V12.9683Z" fill="#26AD50"/>
</svg>
