<svg width="43" height="34" viewBox="0 0 43 34" fill="none" xmlns="http://www.w3.org/2000/svg">
<path fill-rule="evenodd" clip-rule="evenodd" d="M38.6423 4.18494V10.5035C31.4123 7.94763 22.591 8.99868 22.591 16.5205C22.591 24.0422 32.6974 24.6439 38.6423 22.5382V29.1568C22.591 37.2809 0 33.1089 0 16.4007C0 1.41702 22.5917 -4.84092 38.6423 4.18494ZM11.2506 18.6244C11.8457 18.9219 12.1433 18.9219 12.7384 18.9219C15.7137 18.9219 18.9863 16.3711 18.9859 12.7376C18.9859 9.10364 15.9565 6.42589 12.606 6.42589C9.27942 6.42589 6.54721 9.18948 6.52737 12.2225L6.53206 23.7079C6.82494 25.3865 8.44046 26.3088 9.9943 26.3687L10.0603 12.6737C10.0603 11.1859 11.5142 9.99598 12.7384 9.99598C13.9803 9.99598 15.4162 10.8883 15.4162 12.6737C15.4162 14.4591 13.9283 15.3515 12.7384 15.3515C11.5829 15.3515 11.3965 15.2515 11.2626 15.1797C11.2585 15.1775 11.2545 15.1754 11.2506 15.1733V18.6244Z" fill="#191A25"/>
<path fill-rule="evenodd" clip-rule="evenodd" d="M38.6423 4.18494V10.5035C31.4123 7.94763 22.591 8.99868 22.591 16.5205C22.591 24.0422 32.6974 24.6439 38.6423 22.5382V29.1568C22.591 37.2809 0 33.1089 0 16.4007C0 1.41702 22.5917 -4.84092 38.6423 4.18494ZM11.2506 18.6244C11.8457 18.9219 12.1433 18.9219 12.7384 18.9219C15.7137 18.9219 18.9863 16.3711 18.9859 12.7376C18.9859 9.10364 15.9565 6.42589 12.606 6.42589C9.27942 6.42589 6.54721 9.18948 6.52737 12.2225L6.53206 23.7079C6.82494 25.3865 8.44046 26.3088 9.9943 26.3687L10.0603 12.6737C10.0603 11.1859 11.5142 9.99598 12.7384 9.99598C13.9803 9.99598 15.4162 10.8883 15.4162 12.6737C15.4162 14.4591 13.9283 15.3515 12.7384 15.3515C11.5829 15.3515 11.3965 15.2515 11.2626 15.1797C11.2585 15.1775 11.2545 15.1754 11.2506 15.1733V18.6244Z" fill="url(#paint0_linear_1_3169)"/>
<path d="M33.7561 16.2811V13.0078H42.9796V16.2811H40.8966V20.1487H36.1366V16.2811H33.7561Z" fill="#191A25"/>
<path d="M33.7561 16.2811V13.0078H42.9796V16.2811H40.8966V20.1487H36.1366V16.2811H33.7561Z" fill="url(#paint1_linear_1_3169)"/>
<defs>
<linearGradient id="paint0_linear_1_3169" x1="19.3211" y1="0" x2="19.3211" y2="33.1739" gradientUnits="userSpaceOnUse">
<stop stop-color="#484848"/>
<stop offset="1" stop-color="#525252" stop-opacity="0"/>
</linearGradient>
<linearGradient id="paint1_linear_1_3169" x1="19.3211" y1="0" x2="19.3211" y2="33.1739" gradientUnits="userSpaceOnUse">
<stop stop-color="#484848"/>
<stop offset="1" stop-color="#525252" stop-opacity="0"/>
</linearGradient>
</defs>
</svg>
