<svg width="32" height="32" viewBox="0 0 32 32" fill="none" xmlns="http://www.w3.org/2000/svg">
<path d="M29.0909 0H2.90911C1.30466 0 0 1.30466 0 2.90911V29.0909C0 30.6953 1.30466 32 2.90911 32H29.0909C30.6953 32 32 30.6953 32 29.0909V2.90911C31.9999 1.30466 30.6953 0 29.0909 0ZM25.2563 9.22655L21.1427 13.3402C21.0007 13.4822 20.8146 13.5532 20.6285 13.5532C20.4424 13.5532 20.2564 13.4822 20.1143 13.3402C18.6696 11.8955 16.5227 11.4203 14.5935 11.8753L13.0256 8.4261C12.8608 8.06106 12.4304 7.89769 12.0625 8.06528C11.6967 8.23151 11.5355 8.66256 11.7017 9.02835L13.2296 12.3896C12.745 12.6432 12.2827 12.9431 11.8856 13.3401C11.6015 13.6242 11.1413 13.6242 10.8573 13.3401L6.74365 9.22649C6.45954 8.94237 6.45954 8.48215 6.74365 8.1981C9.21592 5.72515 12.5035 4.36363 16 4.36363C19.4965 4.36363 22.7841 5.72515 25.2563 8.19817C25.5405 8.48221 25.5405 8.94244 25.2563 9.22655Z" fill="#191A25"/>
<path d="M29.0909 0H2.90911C1.30466 0 0 1.30466 0 2.90911V29.0909C0 30.6953 1.30466 32 2.90911 32H29.0909C30.6953 32 32 30.6953 32 29.0909V2.90911C31.9999 1.30466 30.6953 0 29.0909 0ZM25.2563 9.22655L21.1427 13.3402C21.0007 13.4822 20.8146 13.5532 20.6285 13.5532C20.4424 13.5532 20.2564 13.4822 20.1143 13.3402C18.6696 11.8955 16.5227 11.4203 14.5935 11.8753L13.0256 8.4261C12.8608 8.06106 12.4304 7.89769 12.0625 8.06528C11.6967 8.23151 11.5355 8.66256 11.7017 9.02835L13.2296 12.3896C12.745 12.6432 12.2827 12.9431 11.8856 13.3401C11.6015 13.6242 11.1413 13.6242 10.8573 13.3401L6.74365 9.22649C6.45954 8.94237 6.45954 8.48215 6.74365 8.1981C9.21592 5.72515 12.5035 4.36363 16 4.36363C19.4965 4.36363 22.7841 5.72515 25.2563 8.19817C25.5405 8.48221 25.5405 8.94244 25.2563 9.22655Z" fill="url(#paint0_linear_1_3166)"/>
<defs>
<linearGradient id="paint0_linear_1_3166" x1="16" y1="0" x2="16" y2="32" gradientUnits="userSpaceOnUse">
<stop stop-color="#484848"/>
<stop offset="1" stop-color="#525252" stop-opacity="0"/>
</linearGradient>
</defs>
</svg>
