<svg width="39" height="31" viewBox="0 0 39 31" fill="none" xmlns="http://www.w3.org/2000/svg">
<path d="M28.2535 17.3C27.9235 17.919 27.3155 18.3 26.6535 18.3H12.3435C11.6845 18.3 11.0745 17.919 10.7445 17.3C10.4145 16.683 10.4145 15.919 10.7445 15.3L14.3225 8.588C14.6515 7.969 15.2605 7.588 15.9215 7.588H23.0745C23.7335 7.588 24.3435 7.969 24.6735 8.588L28.2515 15.3C28.5835 15.921 28.5835 16.683 28.2535 17.3ZM17.7535 27.55L14.1765 20.839C13.8465 20.22 13.2375 19.839 12.5775 19.839H5.4235C4.7645 19.839 4.1545 20.22 3.8255 20.839L0.2475 27.55C-0.0825 28.169 -0.0825 28.933 0.2475 29.55C0.5775 30.169 1.1855 30.55 1.8465 30.55H16.1545C16.8135 30.55 17.4245 30.169 17.7535 29.55C18.0835 28.933 18.0835 28.171 17.7535 27.55ZM38.7525 27.55L35.1745 20.839C34.8445 20.22 34.2365 19.839 33.5765 19.839H26.4225C25.7635 19.839 25.1525 20.22 24.8235 20.839L21.2465 27.55C20.9165 28.169 20.9165 28.933 21.2465 29.55C21.5755 30.169 22.1845 30.55 22.8445 30.55H37.1535C37.8135 30.55 38.4245 30.169 38.7535 29.55C39.0835 28.933 39.0835 28.171 38.7525 27.55ZM32.1175 8.243L31.4785 11.237L28.4825 11.875L31.4785 12.512L32.1175 15.506L32.7555 12.512L35.7515 11.875L32.7555 11.237L32.1175 8.243ZM8.8885 4.75L8.2505 7.743L5.2545 8.381L8.2505 9.018L8.8885 12.012L9.5265 9.018L12.5225 8.381L9.5265 7.743L8.8885 4.75ZM24.1395 0L23.5005 2.993L20.5045 3.631L23.5005 4.269L24.1395 7.263L24.7775 4.269L27.7735 3.632L24.7775 2.994L24.1395 0Z" fill="#191A25"/>
<path d="M28.2535 17.3C27.9235 17.919 27.3155 18.3 26.6535 18.3H12.3435C11.6845 18.3 11.0745 17.919 10.7445 17.3C10.4145 16.683 10.4145 15.919 10.7445 15.3L14.3225 8.588C14.6515 7.969 15.2605 7.588 15.9215 7.588H23.0745C23.7335 7.588 24.3435 7.969 24.6735 8.588L28.2515 15.3C28.5835 15.921 28.5835 16.683 28.2535 17.3ZM17.7535 27.55L14.1765 20.839C13.8465 20.22 13.2375 19.839 12.5775 19.839H5.4235C4.7645 19.839 4.1545 20.22 3.8255 20.839L0.2475 27.55C-0.0825 28.169 -0.0825 28.933 0.2475 29.55C0.5775 30.169 1.1855 30.55 1.8465 30.55H16.1545C16.8135 30.55 17.4245 30.169 17.7535 29.55C18.0835 28.933 18.0835 28.171 17.7535 27.55ZM38.7525 27.55L35.1745 20.839C34.8445 20.22 34.2365 19.839 33.5765 19.839H26.4225C25.7635 19.839 25.1525 20.22 24.8235 20.839L21.2465 27.55C20.9165 28.169 20.9165 28.933 21.2465 29.55C21.5755 30.169 22.1845 30.55 22.8445 30.55H37.1535C37.8135 30.55 38.4245 30.169 38.7535 29.55C39.0835 28.933 39.0835 28.171 38.7525 27.55ZM32.1175 8.243L31.4785 11.237L28.4825 11.875L31.4785 12.512L32.1175 15.506L32.7555 12.512L35.7515 11.875L32.7555 11.237L32.1175 8.243ZM8.8885 4.75L8.2505 7.743L5.2545 8.381L8.2505 9.018L8.8885 12.012L9.5265 9.018L12.5225 8.381L9.5265 7.743L8.8885 4.75ZM24.1395 0L23.5005 2.993L20.5045 3.631L23.5005 4.269L24.1395 7.263L24.7775 4.269L27.7735 3.632L24.7775 2.994L24.1395 0Z" fill="url(#paint0_linear_1_3157)"/>
<defs>
<linearGradient id="paint0_linear_1_3157" x1="19.5004" y1="0" x2="19.5004" y2="30.55" gradientUnits="userSpaceOnUse">
<stop stop-color="#484848"/>
<stop offset="1" stop-color="#525252" stop-opacity="0"/>
</linearGradient>
</defs>
</svg>
