<svg width="37" height="26" viewBox="0 0 37 26" fill="none" xmlns="http://www.w3.org/2000/svg">
<path fill-rule="evenodd" clip-rule="evenodd" d="M2.62724 0H23.9412C24.5423 0 25.0294 0.485023 25.0294 1.08335V3.25002H31.2304C31.9107 3.25002 32.5086 3.69891 32.6954 4.35001L34.5608 10.8497C34.7796 10.888 34.9831 10.9922 35.1422 11.1506L36.6812 12.6827C36.8853 12.8858 37 13.1615 37 13.4488V20.5835C37 21.1816 36.5127 21.6667 35.9118 21.6667H32.6471C32.6471 24.06 30.6982 26 28.2941 26C25.89 26 23.9412 24.06 23.9412 21.6667H13.0588C13.0588 24.06 11.11 26 8.70588 26C6.30182 26 4.35294 24.06 4.35294 21.6667H1.08824C0.487216 21.6667 0 21.1816 0 20.5835V2.61541C0 2.3281 0.114645 2.05254 0.318737 1.84937L1.85773 0.317302C2.06183 0.114128 2.33862 0 2.62724 0ZM32.2927 10.8335L30.7379 5.41669H25.0294V9.75C25.0294 10.3484 25.5167 10.8335 26.1176 10.8335H32.2927ZM28.2941 19.5C29.4962 19.5 30.4706 20.4702 30.4706 21.6667C30.4706 22.8634 29.4962 23.8335 28.2941 23.8335C27.0921 23.8335 26.1176 22.8634 26.1176 21.6667C26.1176 20.4702 27.0921 19.5 28.2941 19.5ZM6.52941 21.6667C6.52941 22.8634 7.50386 23.8335 8.70588 23.8335C9.90792 23.8335 10.8823 22.8634 10.8823 21.6667C10.8823 20.4702 9.90792 19.5 8.70588 19.5C7.50386 19.5 6.52941 20.4702 6.52941 21.6667Z" fill="#191A25"/>
<path fill-rule="evenodd" clip-rule="evenodd" d="M2.62724 0H23.9412C24.5423 0 25.0294 0.485023 25.0294 1.08335V3.25002H31.2304C31.9107 3.25002 32.5086 3.69891 32.6954 4.35001L34.5608 10.8497C34.7796 10.888 34.9831 10.9922 35.1422 11.1506L36.6812 12.6827C36.8853 12.8858 37 13.1615 37 13.4488V20.5835C37 21.1816 36.5127 21.6667 35.9118 21.6667H32.6471C32.6471 24.06 30.6982 26 28.2941 26C25.89 26 23.9412 24.06 23.9412 21.6667H13.0588C13.0588 24.06 11.11 26 8.70588 26C6.30182 26 4.35294 24.06 4.35294 21.6667H1.08824C0.487216 21.6667 0 21.1816 0 20.5835V2.61541C0 2.3281 0.114645 2.05254 0.318737 1.84937L1.85773 0.317302C2.06183 0.114128 2.33862 0 2.62724 0ZM32.2927 10.8335L30.7379 5.41669H25.0294V9.75C25.0294 10.3484 25.5167 10.8335 26.1176 10.8335H32.2927ZM28.2941 19.5C29.4962 19.5 30.4706 20.4702 30.4706 21.6667C30.4706 22.8634 29.4962 23.8335 28.2941 23.8335C27.0921 23.8335 26.1176 22.8634 26.1176 21.6667C26.1176 20.4702 27.0921 19.5 28.2941 19.5ZM6.52941 21.6667C6.52941 22.8634 7.50386 23.8335 8.70588 23.8335C9.90792 23.8335 10.8823 22.8634 10.8823 21.6667C10.8823 20.4702 9.90792 19.5 8.70588 19.5C7.50386 19.5 6.52941 20.4702 6.52941 21.6667Z" fill="url(#paint0_linear_1_3168)"/>
<defs>
<linearGradient id="paint0_linear_1_3168" x1="18.5" y1="0" x2="18.5" y2="26" gradientUnits="userSpaceOnUse">
<stop stop-color="#484848"/>
<stop offset="1" stop-color="#525252" stop-opacity="0"/>
</linearGradient>
</defs>
</svg>
