<svg width="28" height="33" viewBox="0 0 28 33" fill="none" xmlns="http://www.w3.org/2000/svg">
<path d="M25.1035 0H2.89645C1.29935 0 0 1.30112 0 2.90039V30.0996C0 31.6989 1.29935 33 2.89645 33H25.1035C26.7007 33 28 31.6989 28 30.0996V2.90039C28 1.30112 26.7007 0 25.1035 0ZM9.391 27.1141C9.391 27.6481 8.95873 28.0809 8.42552 28.0809H4.94959C4.41638 28.0809 3.9841 27.6481 3.9841 27.1141V24.0482C3.9841 23.5142 4.41632 23.0814 4.94959 23.0814H8.42558C8.95879 23.0814 9.39107 23.5142 9.39107 24.0482V27.1141H9.391ZM9.391 19.6865C9.391 20.2204 8.95873 20.6533 8.42552 20.6533H4.94959C4.41632 20.6533 3.9841 20.2205 3.9841 19.6865V16.6205C3.9841 16.0866 4.41638 15.6537 4.94959 15.6537H8.42558C8.95879 15.6537 9.39107 16.0866 9.39107 16.6205V19.6865H9.391ZM16.7035 27.1141C16.7035 27.6481 16.2712 28.0809 15.738 28.0809H12.262C11.7288 28.0809 11.2965 27.6481 11.2965 27.1141V24.0482C11.2965 23.5142 11.7288 23.0814 12.262 23.0814H15.738C16.2712 23.0814 16.7035 23.5142 16.7035 24.0482V27.1141ZM16.7035 19.6865C16.7035 20.2204 16.2712 20.6533 15.738 20.6533H12.262C11.7288 20.6533 11.2965 20.2205 11.2965 19.6865V16.6205C11.2965 16.0866 11.7288 15.6537 12.262 15.6537H15.738C16.2712 15.6537 16.7035 16.0866 16.7035 16.6205V19.6865ZM24.0159 27.1141C24.0159 27.6481 23.5836 28.0809 23.0504 28.0809H19.5744C19.0412 28.0809 18.6089 27.6481 18.6089 27.1141V24.0482C18.6089 23.5142 19.0412 23.0814 19.5744 23.0814H23.0504C23.5836 23.0814 24.0159 23.5142 24.0159 24.0482V27.1141ZM24.0159 19.6865C24.0159 20.2204 23.5836 20.6533 23.0504 20.6533H19.5744C19.0412 20.6533 18.6089 20.2205 18.6089 19.6865V16.6205C18.6089 16.0866 19.0412 15.6537 19.5744 15.6537H23.0504C23.5836 15.6537 24.0159 16.0866 24.0159 16.6205V19.6865ZM24.0159 10.3849C24.0159 10.9188 23.5836 11.3517 23.0504 11.3517H4.94959C4.41638 11.3517 3.9841 10.9188 3.9841 10.3849V6.24718C3.9841 5.71325 4.41638 5.28039 4.94959 5.28039H23.0505C23.5837 5.28039 24.016 5.71325 24.016 6.24718V10.3849H24.0159Z" fill="#191A25"/>
<path d="M25.1035 0H2.89645C1.29935 0 0 1.30112 0 2.90039V30.0996C0 31.6989 1.29935 33 2.89645 33H25.1035C26.7007 33 28 31.6989 28 30.0996V2.90039C28 1.30112 26.7007 0 25.1035 0ZM9.391 27.1141C9.391 27.6481 8.95873 28.0809 8.42552 28.0809H4.94959C4.41638 28.0809 3.9841 27.6481 3.9841 27.1141V24.0482C3.9841 23.5142 4.41632 23.0814 4.94959 23.0814H8.42558C8.95879 23.0814 9.39107 23.5142 9.39107 24.0482V27.1141H9.391ZM9.391 19.6865C9.391 20.2204 8.95873 20.6533 8.42552 20.6533H4.94959C4.41632 20.6533 3.9841 20.2205 3.9841 19.6865V16.6205C3.9841 16.0866 4.41638 15.6537 4.94959 15.6537H8.42558C8.95879 15.6537 9.39107 16.0866 9.39107 16.6205V19.6865H9.391ZM16.7035 27.1141C16.7035 27.6481 16.2712 28.0809 15.738 28.0809H12.262C11.7288 28.0809 11.2965 27.6481 11.2965 27.1141V24.0482C11.2965 23.5142 11.7288 23.0814 12.262 23.0814H15.738C16.2712 23.0814 16.7035 23.5142 16.7035 24.0482V27.1141ZM16.7035 19.6865C16.7035 20.2204 16.2712 20.6533 15.738 20.6533H12.262C11.7288 20.6533 11.2965 20.2205 11.2965 19.6865V16.6205C11.2965 16.0866 11.7288 15.6537 12.262 15.6537H15.738C16.2712 15.6537 16.7035 16.0866 16.7035 16.6205V19.6865ZM24.0159 27.1141C24.0159 27.6481 23.5836 28.0809 23.0504 28.0809H19.5744C19.0412 28.0809 18.6089 27.6481 18.6089 27.1141V24.0482C18.6089 23.5142 19.0412 23.0814 19.5744 23.0814H23.0504C23.5836 23.0814 24.0159 23.5142 24.0159 24.0482V27.1141ZM24.0159 19.6865C24.0159 20.2204 23.5836 20.6533 23.0504 20.6533H19.5744C19.0412 20.6533 18.6089 20.2205 18.6089 19.6865V16.6205C18.6089 16.0866 19.0412 15.6537 19.5744 15.6537H23.0504C23.5836 15.6537 24.0159 16.0866 24.0159 16.6205V19.6865ZM24.0159 10.3849C24.0159 10.9188 23.5836 11.3517 23.0504 11.3517H4.94959C4.41638 11.3517 3.9841 10.9188 3.9841 10.3849V6.24718C3.9841 5.71325 4.41638 5.28039 4.94959 5.28039H23.0505C23.5837 5.28039 24.016 5.71325 24.016 6.24718V10.3849H24.0159Z" fill="url(#paint0_linear_1_3173)"/>
<defs>
<linearGradient id="paint0_linear_1_3173" x1="14" y1="0" x2="14" y2="33" gradientUnits="userSpaceOnUse">
<stop stop-color="#484848"/>
<stop offset="1" stop-color="#525252" stop-opacity="0"/>
</linearGradient>
</defs>
</svg>
