<svg width="20" height="18" viewBox="0 0 20 18" fill="none" xmlns="http://www.w3.org/2000/svg">
<path id="Union" d="M8.57073 0.277911C8.95198 -0.0926369 9.57012 -0.0926369 9.95138 0.277911C10.3326 0.648458 10.3326 1.24923 9.95138 1.61978L3.33414 8.05112H19.0237C19.5629 8.05112 20 8.47593 20 8.99996C20 9.52399 19.5629 9.9488 19.0237 9.9488H3.33319L9.9505 16.3802C10.3318 16.7508 10.3318 17.3515 9.9505 17.7221C9.56925 18.0926 8.95111 18.0926 8.56985 17.7221L0.285943 9.67089C-0.0953145 9.30035 -0.0953145 8.69957 0.285943 8.32903C0.294632 8.32059 0.303443 8.31233 0.31237 8.30427L8.57073 0.277911Z" fill="#212529"/>
</svg>
