<svg width="20" height="14" viewBox="0 0 20 14" fill="none" xmlns="http://www.w3.org/2000/svg">
<path fill-rule="evenodd" clip-rule="evenodd" d="M1.42013 0H12.9412C13.2661 0 13.5294 0.261166 13.5294 0.58334V1.75001H16.8813C17.249 1.75001 17.5722 1.99172 17.6732 2.34231L18.6815 5.84213C18.7998 5.86275 18.9098 5.91888 18.9958 6.00417L19.8277 6.82914C19.938 6.93852 20 7.08697 20 7.24167V11.0834C20 11.4055 19.7366 11.6667 19.4118 11.6667H17.6471C17.6471 12.9554 16.5936 14 15.2941 14C13.9946 14 12.9412 12.9554 12.9412 11.6667H7.05882C7.05882 12.9554 6.00538 14 4.70588 14C3.40639 14 2.35294 12.9554 2.35294 11.6667H0.58824C0.26336 11.6667 0 11.4055 0 11.0834V1.4083C0 1.25359 0.0619701 1.10522 0.17229 0.995815L1.00418 0.170855C1.1145 0.0614536 1.26412 0 1.42013 0ZM17.4555 5.8334L16.6151 2.91668H13.5294V5.25C13.5294 5.57219 13.7928 5.8334 14.1176 5.8334H17.4555ZM15.2941 10.5C15.9439 10.5 16.4706 11.0224 16.4706 11.6667C16.4706 12.3111 15.9439 12.8334 15.2941 12.8334C14.6444 12.8334 14.1176 12.3111 14.1176 11.6667C14.1176 11.0224 14.6444 10.5 15.2941 10.5ZM3.52941 11.6667C3.52941 12.3111 4.05614 12.8334 4.70588 12.8334C5.35563 12.8334 5.88235 12.3111 5.88235 11.6667C5.88235 11.0224 5.35563 10.5 4.70588 10.5C4.05614 10.5 3.52941 11.0224 3.52941 11.6667Z" fill="#2764E0"/>
</svg>
