<svg width="14" height="17" viewBox="0 0 14 17" fill="none" xmlns="http://www.w3.org/2000/svg">
<g id="Vector">
<path d="M1.62007 14.4721C1.78007 14.4721 1.81207 14.4561 1.95607 14.4241L4.83607 13.8481C5.14007 13.7681 5.44407 13.6241 5.68407 13.3841L12.6601 6.40809C13.7321 5.33609 13.7321 3.49609 12.6601 2.42409L12.0681 1.80009C10.9961 0.728094 9.14007 0.728094 8.06807 1.80009L1.09207 8.79209C0.868075 9.0161 0.708075 9.33609 0.628075 9.64009L0.0200747 12.5521C-0.0599253 13.0961 0.100075 13.6241 0.484075 14.0081C0.788075 14.3121 1.23607 14.4721 1.62007 14.4721ZM2.16407 9.94409L9.14007 2.95209C9.60407 2.48809 10.4521 2.48809 10.9001 2.95209L11.5081 3.56009C12.0521 4.10409 12.0521 4.87209 11.5081 5.40009L4.54807 12.3921L1.58807 12.8881L2.16407 9.94409Z" fill="#2764E0"/>
<path d="M12.5961 15.4641H0.788075C0.324075 15.4641 0.0200747 15.7681 0.0200747 16.2321C0.0200747 16.6961 0.404075 17.0001 0.788075 17.0001H12.5321C12.9961 17.0001 13.3801 16.6961 13.3801 16.2321C13.3641 15.7681 12.9801 15.4641 12.5961 15.4641Z" fill="#2764E0"/>
</g>
</svg>
