<svg width="51" height="55" viewBox="0 0 51 55" fill="none" xmlns="http://www.w3.org/2000/svg">
<path d="M34.6923 11H9.30769C3.30564 11 0 14.3056 0 20.3077V45.6923C0 51.6944 3.30564 55 9.30769 55H34.6923C40.6944 55 44 51.6944 44 45.6923V20.3077C44 14.3056 40.6944 11 34.6923 11ZM40.6154 45.6923C40.6154 49.8441 38.8441 51.6154 34.6923 51.6154H9.30769C5.1559 51.6154 3.38462 49.8441 3.38462 45.6923V20.3077C3.38462 16.1559 5.1559 14.3846 9.30769 14.3846H34.6923C38.8441 14.3846 40.6154 16.1559 40.6154 20.3077V45.6923ZM33.8462 27.359C33.8462 27.8078 33.6679 28.2382 33.3505 28.5556C33.0331 28.873 32.6027 29.0513 32.1538 29.0513H23.1282C22.6794 29.0513 22.2489 28.873 21.9316 28.5556C21.6142 28.2382 21.4359 27.8078 21.4359 27.359C21.4359 26.9101 21.6142 26.4797 21.9316 26.1623C22.2489 25.845 22.6794 25.6667 23.1282 25.6667H32.1538C32.6027 25.6667 33.0331 25.845 33.3505 26.1623C33.6679 26.4797 33.8462 26.9101 33.8462 27.359ZM33.8462 38.641C33.8462 39.0899 33.6679 39.5203 33.3505 39.8377C33.0331 40.155 32.6027 40.3333 32.1538 40.3333H23.1282C22.6794 40.3333 22.2489 40.155 21.9316 39.8377C21.6142 39.5203 21.4359 39.0899 21.4359 38.641C21.4359 38.1922 21.6142 37.7618 21.9316 37.4444C22.2489 37.127 22.6794 36.9487 23.1282 36.9487H32.1538C32.6027 36.9487 33.0331 37.127 33.3505 37.4444C33.6679 37.7618 33.8462 38.1922 33.8462 38.641ZM17.5549 24.6513C17.7121 24.8084 17.8369 24.995 17.922 25.2004C18.0071 25.4058 18.0509 25.626 18.0509 25.8483C18.0509 26.0706 18.0071 26.2908 17.922 26.4962C17.8369 26.7016 17.7121 26.8882 17.5549 27.0453L14.5538 30.0667C14.397 30.2241 14.2107 30.3491 14.0054 30.4343C13.8002 30.5196 13.5802 30.5635 13.3579 30.5635C13.1357 30.5635 12.9157 30.5196 12.7105 30.4343C12.5052 30.3491 12.3189 30.2241 12.1621 30.0667L10.657 28.5639C10.3384 28.2476 10.1584 27.8177 10.1567 27.3687C10.155 26.9198 10.3317 26.4885 10.648 26.1698C10.9643 25.8512 11.3942 25.6712 11.8432 25.6695C12.2921 25.6678 12.7234 25.8445 13.0421 26.1608L13.3512 26.4699L15.1563 24.6648C15.3125 24.5057 15.4986 24.3791 15.704 24.2923C15.9093 24.2054 16.1298 24.16 16.3528 24.1588C16.5757 24.1575 16.7967 24.2004 17.003 24.2849C17.2093 24.3694 17.3969 24.494 17.5549 24.6513ZM17.5549 35.9333C17.7121 36.0905 17.8369 36.2771 17.922 36.4825C18.0071 36.6879 18.0509 36.908 18.0509 37.1304C18.0509 37.3527 18.0071 37.5728 17.922 37.7782C17.8369 37.9836 17.7121 38.1702 17.5549 38.3274L14.5538 41.3487C14.397 41.5062 14.2107 41.6311 14.0054 41.7164C13.8002 41.8016 13.5802 41.8455 13.3579 41.8455C13.1357 41.8455 12.9157 41.8016 12.7105 41.7164C12.5052 41.6311 12.3189 41.5062 12.1621 41.3487L10.657 39.846C10.3393 39.5288 10.1605 39.0984 10.1601 38.6494C10.1597 38.2004 10.3376 37.7697 10.6548 37.4519C10.9719 37.1341 11.4024 36.9554 11.8513 36.9549C12.3003 36.9545 12.7311 37.1325 13.0488 37.4496L13.3579 37.7588L15.1631 35.9536C15.3187 35.7951 15.5041 35.6688 15.7085 35.582C15.913 35.4952 16.1326 35.4495 16.3548 35.4476C16.5769 35.4457 16.7972 35.4877 17.0032 35.571C17.2091 35.6543 17.3966 35.7775 17.5549 35.9333Z" fill="black"/>
<rect x="27" width="24" height="24" rx="12" fill="black"/>
<path d="M41.9072 17.5H36.4863V16.2812H38.4668V9.84473L36.4355 10.3843V9.10205L39.9395 8.22607V16.2812H41.9072V17.5Z" fill="white"/>
</svg>
