<svg width="40" height="40" viewBox="0 0 40 40" fill="none" xmlns="http://www.w3.org/2000/svg">
<path d="M23.6363 0H38.1817C39.1859 0 39.9999 0.814016 40 1.81821V16.3637C40 17.3678 39.186 18.1819 38.1818 18.1819C37.1777 18.1819 36.3636 17.3678 36.3636 16.3637V6.2076L17.6491 24.922C17.2943 25.2769 16.8289 25.4545 16.3636 25.4545C15.8983 25.4545 15.4329 25.2769 15.078 24.922C14.3681 24.2119 14.3681 23.0608 15.078 22.3508L33.7923 3.63641H23.6363C22.6322 3.63641 21.8181 2.82239 21.8181 1.81821C21.8181 0.814016 22.6322 0 23.6363 0Z" fill="black"/>
<path d="M29.0908 20C29.0908 18.9958 29.9049 18.1818 30.909 18.1818C31.9131 18.1818 32.7272 18.9958 32.7273 20V38.1818C32.7273 39.186 31.9132 40 30.9091 40H1.8182C0.814047 40 0 39.186 0 38.1819V9.0909C0 8.08684 0.814047 7.27269 1.8182 7.27269H20C21.0041 7.27269 21.8182 8.08671 21.8182 9.0909C21.8182 10.095 21.0041 10.9091 20 10.9091H3.63631V36.3637H29.0908V20Z" fill="black"/>
</svg>
