<svg width="144" height="16" viewBox="0 0 144 16" fill="none" xmlns="http://www.w3.org/2000/svg">
<path d="M7.73394 6.04727L12.2968 12.7784H9.74234L5.81366 7.03711H3.92864V12.7784H1.69125V2.14173H0L1.1275 0H3.92864V5.05736H5.81366L9.54849 0H12.0854L7.73394 6.04727ZM11.6097 8.17095C11.6097 7.17513 11.8329 6.30519 12.2792 5.56131C12.7137 4.86537 13.3069 4.33147 14.0585 3.9595C14.8102 3.58753 15.6206 3.40158 16.4897 3.40158C17.3823 3.40158 18.1868 3.58156 18.9033 3.94151C19.655 4.31348 20.2481 4.86537 20.6826 5.59729C21.1172 6.3172 21.3344 7.17513 21.3344 8.17095C21.3344 9.17885 21.1172 10.0487 20.6826 10.7807C20.2481 11.5006 19.655 12.0585 18.9033 12.4544C18.1633 12.8384 17.3588 13.0303 16.4897 13.0303C15.6323 13.0303 14.8278 12.8384 14.0761 12.4544C13.3128 12.0705 12.7079 11.5126 12.2616 10.7807C11.827 10.0367 11.6097 9.16683 11.6097 8.17095ZM49.6101 3.68957H51.6008V4.93136C51.9061 4.45144 52.3114 4.08551 52.8164 3.8335C53.3331 3.56954 53.9967 3.43756 54.8071 3.43756C55.641 3.43756 56.3809 3.62956 57.0269 4.01348C57.6494 4.40941 58.1309 4.97338 58.4715 5.7053C58.8238 6.42521 59 7.25307 59 8.18894C59 9.13683 58.8238 9.97676 58.4715 10.7087C58.1309 11.4285 57.6494 11.9865 57.0269 12.3825C56.7333 12.5864 56.3868 12.7364 55.9875 12.8324C55.5999 12.9404 55.2064 12.9944 54.8071 12.9944C54.1142 12.9944 53.5974 12.9404 53.2568 12.8324C52.5521 12.6164 52.0529 12.2565 51.7593 11.7525V16H49.6101V3.68957ZM22.4796 3.68957H24.6112V7.14512H28.258V3.68957H30.3721V12.7784H28.258V8.9449H24.6112V12.7784H22.4796V3.68957ZM31.3058 3.68957H39.4978V5.41731H36.4676V12.7784H34.3007V5.41731H31.3058V3.68957ZM42.4398 3.68957C43.2385 5.92126 43.9667 8.12899 44.6244 10.3127C45.2468 8.15296 45.9515 5.94523 46.7385 3.68957H48.8877L45.6109 12.9584C45.3408 13.7143 45.0824 14.2962 44.8358 14.7042C44.5657 15.1121 44.2309 15.418 43.8316 15.6221C43.444 15.838 42.9273 15.946 42.2813 15.946C41.9172 15.946 41.7175 15.94 41.6823 15.928L40.96 14.2002C41.1832 14.2482 41.4592 14.2722 41.788 14.2722C42.1873 14.2722 42.5103 14.2122 42.757 14.0922C42.9801 13.9962 43.1504 13.8642 43.2679 13.6963C43.3853 13.5403 43.4851 13.3423 43.5674 13.1024L40.1848 3.68957H42.4398ZM13.7766 8.15296C13.7766 9.14884 14.0115 9.91077 14.4813 10.4387C14.9511 10.9547 15.603 11.2126 16.4369 11.2126C17.2824 11.2126 17.9402 10.9547 18.41 10.4387C18.8915 9.91077 19.1323 9.14884 19.1323 8.15296C19.1323 7.18111 18.8974 6.44918 18.4276 5.95725C17.9578 5.4533 17.2942 5.20135 16.4369 5.20135C15.5912 5.20135 14.9335 5.4533 14.4637 5.95725C14.0057 6.44918 13.7766 7.18111 13.7766 8.15296ZM51.7065 8.17095C51.73 9.07084 51.9649 9.79075 52.4112 10.3307C52.8575 10.8706 53.4858 11.1406 54.2962 11.1406C55.1066 11.1406 55.7291 10.8706 56.1636 10.3307C56.6099 9.79075 56.839 9.07084 56.8507 8.17095C56.839 7.28308 56.6099 6.57518 56.1636 6.04727C55.7291 5.50734 55.1066 5.23734 54.2962 5.23734C53.4858 5.23734 52.8575 5.50129 52.4112 6.02921C51.9649 6.55719 51.73 7.27106 51.7065 8.17095Z" fill="#222222"/>
<path d="M72.0751 2.89945C71.4143 2.35728 70.8002 1.97421 70.2334 1.75028C69.6673 1.52634 69.0532 1.41436 68.3925 1.41436C67.4359 1.41436 66.6039 1.62652 65.8952 2.05083C65.1872 2.47514 64.6383 3.07625 64.2485 3.85412C63.8593 4.63206 63.6644 5.52778 63.6644 6.5414C63.6644 7.53149 63.8593 8.41546 64.2485 9.19334C64.6383 9.98308 65.1814 10.596 65.878 11.0321C66.5745 11.4563 67.3771 11.6685 68.2857 11.6685C68.7701 11.6685 69.2359 11.6037 69.6845 11.474C70.098 11.3562 70.4993 11.1735 70.8891 10.9259C71.2904 10.6667 71.7504 10.3013 72.27 9.82983L73.2438 10.9083C72.6892 11.4623 72.1639 11.8924 71.668 12.1989C71.1721 12.5054 70.6526 12.7292 70.1095 12.8707C69.567 13.0121 68.965 13.0829 68.3036 13.0829C67.0403 13.0829 65.9367 12.8 64.9923 12.2343C64.0478 11.6803 63.3104 10.9083 62.7794 9.91826C62.2597 8.91637 62 7.79078 62 6.5414C62 5.59854 62.1475 4.73223 62.4426 3.94255C62.7379 3.14107 63.1686 2.44567 63.7354 1.85635C64.9041 0.618785 66.462 0 68.4097 0C69.3069 0 70.1159 0.135541 70.836 0.40663C71.5555 0.677718 72.2879 1.13149 73.0317 1.76796L72.0751 2.89945ZM82.2308 10.3249C82.2308 11.0792 81.965 11.6862 81.434 12.1458C80.9023 12.5937 80.1764 12.8177 79.2556 12.8177H74.6164V3.88953H79.0435C79.9048 3.88953 80.6014 4.10168 81.133 4.52596C81.6755 4.9385 81.9471 5.49243 81.9471 6.18781C81.9471 6.70646 81.8116 7.13668 81.5401 7.47847C81.28 7.82025 80.9145 8.06187 80.4422 8.20332C80.9969 8.33297 81.434 8.58639 81.7522 8.96352C82.0711 9.32892 82.2308 9.78268 82.2308 10.3249ZM76.1219 7.69061H78.8134C79.3444 7.69061 79.7457 7.57863 80.0173 7.35469C80.3004 7.11894 80.4422 6.78896 80.4422 6.36467C80.4422 5.95213 80.3004 5.63388 80.0173 5.40994C79.7457 5.18599 79.3444 5.07402 78.8134 5.07402H76.1219V7.69061ZM80.6902 10.2011C80.6902 9.765 80.5368 9.42909 80.2295 9.19334C79.9227 8.94585 79.4684 8.82207 78.8664 8.82207H76.1219V11.6155H78.8664C79.4684 11.6155 79.9227 11.4976 80.2295 11.2619C80.5368 11.0144 80.6902 10.6608 80.6902 10.2011ZM92.2569 11.2619C91.6313 11.9102 91.0057 12.3757 90.3795 12.6586C89.7539 12.9297 89.0222 13.0652 88.1838 13.0652C87.24 13.0652 86.4195 12.8707 85.723 12.4818C85.0144 12.0928 84.4654 11.5448 84.0763 10.8376C83.6865 10.1304 83.4916 9.30531 83.4916 8.36244C83.4916 7.46666 83.6807 6.65338 84.0584 5.92265C84.4482 5.20367 84.985 4.6438 85.67 4.24313C86.3665 3.84238 87.1749 3.64198 88.0957 3.64198C89.3941 3.64198 90.4031 4.02505 91.1233 4.79118C91.8556 5.55726 92.2211 6.61216 92.2211 7.95583C92.2211 8.03833 92.2096 8.25634 92.186 8.60993H85.0674C85.1268 9.24642 85.2744 9.79448 85.5102 10.2541C85.7703 10.7374 86.1301 11.1145 86.5908 11.3856C87.0509 11.6567 87.6055 11.7923 88.2548 11.7923C88.8689 11.7923 89.412 11.6803 89.8842 11.4563C90.368 11.2324 90.8581 10.8553 91.354 10.3249L92.2569 11.2619ZM90.7693 7.49614C90.7341 6.68285 90.4741 6.04049 89.9903 5.56906C89.5181 5.08582 88.8804 4.8442 88.0778 4.8442C87.2867 4.8442 86.6259 5.08582 86.0949 5.56906C85.5633 6.04049 85.2386 6.68285 85.1211 7.49614H90.7693ZM97.2718 5.12704V12.8177H95.7491V5.12704H92.6147V3.88953H100.406V5.12704H97.2718ZM110.149 8.36244C110.149 9.28177 109.954 10.0951 109.564 10.8022C109.163 11.5212 108.608 12.081 107.9 12.4818C107.192 12.8707 106.383 13.0652 105.474 13.0652C104.553 13.0652 103.745 12.8648 103.048 12.4641C102.328 12.0752 101.768 11.5271 101.367 10.8199C100.977 10.1127 100.782 9.29357 100.782 8.36244V8.29169C100.782 7.38417 100.983 6.58268 101.384 5.8873C101.774 5.18012 102.323 4.63206 103.031 4.24313C103.739 3.84238 104.553 3.64198 105.474 3.64198C106.383 3.64198 107.192 3.83645 107.9 4.22539C108.608 4.61439 109.157 5.16245 109.547 5.86963C109.948 6.57681 110.149 7.38417 110.149 8.29169V8.36244ZM102.34 8.36244C102.34 9.04602 102.47 9.64123 102.73 10.1481C102.99 10.6785 103.355 11.0851 103.827 11.368C104.3 11.6508 104.849 11.7923 105.474 11.7923C106.1 11.7923 106.649 11.6449 107.121 11.3503C107.593 11.0674 107.953 10.6667 108.201 10.1481C108.461 9.62949 108.591 9.03428 108.591 8.36244V8.29169C108.591 7.61992 108.461 7.03058 108.201 6.52373C107.941 6.01695 107.569 5.62208 107.086 5.33925C106.613 5.05635 106.077 4.9149 105.474 4.9149C104.872 4.9149 104.335 5.05048 103.863 5.32157C103.391 5.60441 103.019 6.00515 102.748 6.52373C102.476 7.04238 102.34 7.63165 102.34 8.29169V8.36244ZM117.709 0.265193V3.65966C118.677 3.695 119.551 3.90127 120.33 4.27847C121.097 4.66741 121.687 5.20367 122.101 5.8873C122.525 6.57088 122.738 7.39597 122.738 8.36244C122.738 9.30531 122.531 10.1245 122.118 10.8199C121.693 11.5035 121.097 12.0398 120.33 12.4287C119.562 12.8177 118.689 13.0298 117.709 13.0652V16H116.24V13.0652C115.248 13.0298 114.38 12.8177 113.637 12.4287C112.869 12.0398 112.273 11.5035 111.848 10.8199C111.423 10.1245 111.211 9.30531 111.211 8.36244C111.211 7.40771 111.423 6.58855 111.848 5.90498C112.273 5.22134 112.869 4.68508 113.637 4.29614C114.404 3.90721 115.271 3.695 116.24 3.65966V0.265193H117.709ZM116.275 4.86188C115.177 4.90903 114.315 5.23901 113.69 5.85196C113.076 6.46484 112.769 7.30167 112.769 8.36244C112.769 9.42322 113.076 10.26 113.69 10.8729C114.315 11.4858 115.177 11.8099 116.275 11.8453V4.86188ZM117.673 11.8453C118.772 11.8099 119.633 11.4858 120.259 10.8729C120.884 10.26 121.198 9.42322 121.198 8.36244C121.198 7.30167 120.884 6.46484 120.259 5.85196C119.633 5.23901 118.772 4.90903 117.673 4.86188V11.8453ZM133.182 8.36244C133.182 9.28177 132.987 10.0951 132.598 10.8022C132.196 11.5212 131.642 12.081 130.933 12.4818C130.225 12.8707 129.416 13.0652 128.507 13.0652C127.586 13.0652 126.778 12.8648 126.082 12.4641C125.361 12.0752 124.8 11.5271 124.399 10.8199C124.01 10.1127 123.815 9.29357 123.815 8.36244V8.29169C123.815 7.38417 124.016 6.58268 124.417 5.8873C124.807 5.18012 125.356 4.63206 126.064 4.24313C126.772 3.84238 127.586 3.64198 128.507 3.64198C129.416 3.64198 130.225 3.83645 130.933 4.22539C131.642 4.61439 132.19 5.16245 132.58 5.86963C132.981 6.57681 133.182 7.38417 133.182 8.29169V8.36244ZM125.373 8.36244C125.373 9.04602 125.503 9.64123 125.763 10.1481C126.022 10.6785 126.388 11.0851 126.86 11.368C127.333 11.6508 127.882 11.7923 128.507 11.7923C129.133 11.7923 129.682 11.6449 130.154 11.3503C130.626 11.0674 130.986 10.6667 131.234 10.1481C131.494 9.62949 131.624 9.03428 131.624 8.36244V8.29169C131.624 7.61992 131.494 7.03058 131.234 6.52373C130.974 6.01695 130.603 5.62208 130.119 5.33925C129.647 5.05635 129.109 4.9149 128.507 4.9149C127.905 4.9149 127.368 5.05048 126.896 5.32157C126.423 5.60441 126.052 6.00515 125.781 6.52373C125.509 7.04238 125.373 7.63165 125.373 8.29169V8.36244ZM144 8.36244C144 9.28177 143.823 10.0951 143.469 10.8022C143.103 11.5094 142.59 12.0575 141.928 12.4464C141.268 12.8354 140.512 13.0298 139.662 13.0298C138.068 13.0298 136.947 12.5289 136.297 11.5271V16H134.775V3.88953H136.191V5.46296C136.888 4.2608 138.051 3.65966 139.68 3.65966C140.506 3.65966 141.25 3.84825 141.91 4.22539C142.572 4.62613 143.086 5.17419 143.451 5.86963C143.817 6.56501 144 7.36649 144 8.27401V8.36244ZM142.459 8.27401C142.459 7.61398 142.335 7.03058 142.088 6.52373C141.828 6.02875 141.462 5.63975 140.99 5.35692C140.53 5.07402 140.004 4.93257 139.414 4.93257C138.812 4.93257 138.269 5.06815 137.785 5.33925C137.289 5.62208 136.906 6.01102 136.634 6.50606C136.363 7.0011 136.226 7.59044 136.226 8.27401V8.36244C136.226 9.38787 136.516 10.2129 137.094 10.8376C137.673 11.4505 138.44 11.7569 139.397 11.7569C139.986 11.7569 140.518 11.6096 140.99 11.3149C141.45 11.032 141.81 10.6372 142.07 10.1304C142.33 9.61182 142.459 9.02248 142.459 8.36244V8.27401Z" fill="#222222"/>
</svg>
