<svg width="15" height="11" viewBox="0 0 15 11" fill="none" xmlns="http://www.w3.org/2000/svg">
<path d="M14.435 0.292877C14.0445 -0.0976257 13.4113 -0.0976257 13.0208 0.292877L5.24261 8.07101L1.7071 4.53555C1.31657 4.14499 0.683407 4.14499 0.292889 4.53555C-0.0976295 4.92606 -0.0976295 5.55923 0.292889 5.94974L4.52978 10.1867C4.53167 10.1886 4.53358 10.1905 4.53549 10.1924C4.5843 10.2412 4.63691 10.2839 4.69236 10.3205C5.08052 10.5768 5.60798 10.5341 5.9497 10.1924C5.95161 10.1905 5.95355 10.1886 5.95544 10.1867L14.435 1.70712C14.8255 1.31656 14.8255 0.683441 14.435 0.292877Z" fill="#212529"/>
</svg>
