<svg width="16" height="16" viewBox="0 0 16 16" fill="none" xmlns="http://www.w3.org/2000/svg">
<path d="M8 0C3.58862 0 0 3.58862 0 8C0 12.4114 3.58862 16 8 16C12.4114 16 16 12.4114 16 8C16 3.58862 12.4114 0 8 0Z" fill="#2764E0"/>
<path d="M12.0542 6.30518L7.72083 10.6384C7.59082 10.7684 7.42017 10.8339 7.24951 10.8339C7.07886 10.8339 6.9082 10.7684 6.7782 10.6384L4.61157 8.4718C4.35083 8.21118 4.35083 7.78979 4.61157 7.52917C4.87219 7.26843 5.29346 7.26843 5.5542 7.52917L7.24951 9.22449L11.1116 5.36255C11.3722 5.10181 11.7935 5.10181 12.0542 5.36255C12.3148 5.62317 12.3148 6.04443 12.0542 6.30518Z" fill="#FAFAFA"/>
</svg>
