<svg width="12" height="12" viewBox="0 0 12 12" fill="none" xmlns="http://www.w3.org/2000/svg">
<path d="M0.28166 10.3253C-0.0938867 10.7084 -0.0938867 11.3296 0.28166 11.7126C0.657069 12.0958 1.26581 12.0958 1.64122 11.7126L5.99991 7.26494L10.3587 11.7127C10.7343 12.0958 11.343 12.0958 11.7184 11.7127C12.0939 11.3296 12.0939 10.7084 11.7184 10.3253L7.35961 5.87757L11.4785 1.67467C11.854 1.29153 11.854 0.670439 11.4785 0.287301C11.1031 -0.095767 10.4943 -0.095767 10.1189 0.287301L6.00005 4.4902L1.88119 0.287301C1.50564 -0.095767 0.897032 -0.095767 0.521486 0.287301C0.146077 0.670439 0.146077 1.2916 0.521486 1.67467L4.64035 5.87764L0.28166 10.3253Z" fill="white"/>
</svg>
