<svg width="229" height="32" viewBox="0 0 229 32" fill="none" xmlns="http://www.w3.org/2000/svg">
<path d="M13.6803 15.6365L20.8572 26H16.8393L10.6599 17.1605H7.69495V26H4.17579V9.62342H1.51562L3.28906 6.32593H7.69495V14.1124H10.6599L16.5344 6.32593H20.5247L13.6803 15.6365ZM19.7765 18.9062C19.7765 17.373 20.1275 16.0336 20.8295 14.8883C21.513 13.8168 22.4459 12.9948 23.6282 12.4221C24.8105 11.8494 26.0852 11.5631 27.4522 11.5631C28.8562 11.5631 30.1216 11.8402 31.2485 12.3944C32.4308 12.9671 33.3637 13.8168 34.0472 14.9437C34.7307 16.0521 35.0724 17.373 35.0724 18.9062C35.0724 20.458 34.7307 21.7973 34.0472 22.9242C33.3637 24.0326 32.4308 24.8916 31.2485 25.5012C30.0846 26.0924 28.8192 26.3879 27.4522 26.3879C26.1036 26.3879 24.8382 26.0924 23.6559 25.5012C22.4552 24.9101 21.5038 24.0511 20.8018 22.9242C20.1183 21.7788 19.7765 20.4395 19.7765 18.9062ZM79.547 12.0065H82.6782V13.9184C83.1585 13.1795 83.7959 12.6161 84.5902 12.2281C85.403 11.8217 86.4468 11.6185 87.7214 11.6185C89.033 11.6185 90.1969 11.9141 91.2129 12.5052C92.192 13.1148 92.9494 13.9831 93.4851 15.11C94.0393 16.2184 94.3164 17.493 94.3164 18.9339C94.3164 20.3933 94.0393 21.6865 93.4851 22.8134C92.9494 23.9217 92.192 24.7808 91.2129 25.3904C90.7511 25.7044 90.2061 25.9353 89.578 26.0831C88.9684 26.2494 88.3495 26.3325 87.7214 26.3325C86.6315 26.3325 85.8187 26.2494 85.283 26.0831C84.1746 25.7506 83.3894 25.1964 82.9276 24.4205V30.9601H79.547V12.0065ZM36.8736 12.0065H40.2265V17.3268H45.9625V12.0065H49.2877V26H45.9625V20.0978H40.2265V26H36.8736V12.0065ZM50.7563 12.0065H63.6415V14.6666H58.8753V26H55.467V14.6666H50.7563V12.0065ZM68.269 12.0065C69.5252 15.4425 70.6706 18.8416 71.7051 22.2037C72.6841 18.8785 73.7925 15.4794 75.0303 12.0065H78.4109L73.2568 26.2771C72.8319 27.4409 72.4255 28.3369 72.0376 28.965C71.6127 29.5931 71.0862 30.0641 70.4581 30.3782C69.8485 30.7107 69.0357 30.877 68.0196 30.877C67.447 30.877 67.1329 30.8677 67.0775 30.8493L65.9414 28.1891C66.2924 28.263 66.7265 28.2999 67.2437 28.2999C67.8718 28.2999 68.3799 28.2076 68.7678 28.0228C69.1188 27.875 69.3867 27.6718 69.5714 27.4132C69.7561 27.1731 69.9131 26.8682 70.0425 26.4988L64.7221 12.0065H68.269ZM23.1848 18.8785C23.1848 20.4118 23.5543 21.5849 24.2932 22.3977C25.0322 23.1921 26.0575 23.5892 27.3691 23.5892C28.6991 23.5892 29.7336 23.1921 30.4726 22.3977C31.23 21.5849 31.6087 20.4118 31.6087 18.8785C31.6087 17.3822 31.2392 16.2553 30.5003 15.4979C29.7614 14.722 28.7176 14.3341 27.3691 14.3341C26.039 14.3341 25.0045 14.722 24.2655 15.4979C23.5451 16.2553 23.1848 17.3822 23.1848 18.8785ZM82.8445 18.9062C82.8814 20.2917 83.2509 21.4001 83.9529 22.2314C84.6549 23.0627 85.6432 23.4784 86.9178 23.4784C88.1925 23.4784 89.1716 23.0627 89.8551 22.2314C90.5571 21.4001 90.9173 20.2917 90.9358 18.9062C90.9173 17.5392 90.5571 16.4493 89.8551 15.6365C89.1716 14.8052 88.1925 14.3895 86.9178 14.3895C85.6432 14.3895 84.6549 14.7959 83.9529 15.6087C83.2509 16.4216 82.8814 17.5207 82.8445 18.9062Z" fill="#222222"/>
<path d="M114.79 10.4546C113.756 9.60483 112.795 9.00444 111.908 8.65345C111.022 8.30246 110.061 8.12696 109.027 8.12696C107.53 8.12696 106.228 8.45948 105.119 9.12452C104.011 9.78956 103.152 10.7317 102.542 11.9509C101.933 13.1702 101.628 14.5741 101.628 16.1628C101.628 17.7146 101.933 19.1001 102.542 20.3193C103.152 21.5571 104.002 22.5177 105.092 23.2012C106.182 23.8662 107.438 24.1987 108.86 24.1987C109.618 24.1987 110.347 24.0971 111.049 23.8939C111.696 23.7092 112.324 23.4229 112.934 23.0349C113.562 22.6285 114.282 22.0558 115.095 21.3169L116.619 23.0072C115.751 23.8755 114.929 24.5497 114.153 25.0301C113.377 25.5104 112.564 25.8613 111.714 26.083C110.865 26.3047 109.923 26.4156 108.888 26.4156C106.911 26.4156 105.184 25.9722 103.706 25.0855C102.228 24.2172 101.074 23.0072 100.243 21.4555C99.4298 19.8852 99.0234 18.121 99.0234 16.1628C99.0234 14.685 99.2543 13.3272 99.7161 12.0895C100.178 10.8333 100.852 9.74338 101.739 8.81971C103.568 6.88001 106.006 5.91016 109.054 5.91016C110.458 5.91016 111.724 6.1226 112.851 6.54749C113.977 6.97238 115.123 7.6836 116.287 8.68116L114.79 10.4546ZM130.683 22.0928C130.683 23.2751 130.267 24.2265 129.436 24.9469C128.604 25.6489 127.468 25.9999 126.027 25.9999H118.767V12.0064H125.695C127.043 12.0064 128.133 12.3389 128.965 13.0039C129.814 13.6505 130.239 14.5187 130.239 15.6086C130.239 16.4215 130.027 17.0958 129.602 17.6315C129.195 18.1672 128.623 18.5459 127.884 18.7676C128.752 18.9708 129.436 19.368 129.934 19.9591C130.433 20.5318 130.683 21.243 130.683 22.0928ZM121.123 17.964H125.335C126.166 17.964 126.794 17.7885 127.219 17.4375C127.662 17.068 127.884 16.5508 127.884 15.8858C127.884 15.2392 127.662 14.7404 127.219 14.3894C126.794 14.0384 126.166 13.8629 125.335 13.8629H121.123V17.964ZM128.272 21.8988C128.272 21.2153 128.032 20.6888 127.551 20.3193C127.071 19.9314 126.36 19.7374 125.418 19.7374H121.123V24.1156H125.418C126.36 24.1156 127.071 23.9309 127.551 23.5614C128.032 23.1735 128.272 22.6193 128.272 21.8988ZM146.373 23.5614C145.394 24.5775 144.415 25.3072 143.435 25.7505C142.456 26.1754 141.311 26.3878 139.999 26.3878C138.522 26.3878 137.238 26.083 136.148 25.4734C135.039 24.8638 134.18 24.0048 133.571 22.8964C132.961 21.788 132.656 20.4948 132.656 19.017C132.656 17.613 132.952 16.3383 133.543 15.193C134.153 14.0661 134.993 13.1886 136.065 12.5606C137.155 11.9325 138.42 11.6184 139.861 11.6184C141.893 11.6184 143.472 12.2188 144.599 13.4196C145.745 14.6203 146.317 16.2737 146.317 18.3797C146.317 18.509 146.299 18.8507 146.262 19.4049H135.122C135.215 20.4025 135.446 21.2615 135.815 21.9819C136.222 22.7394 136.785 23.3305 137.506 23.7554C138.226 24.1803 139.094 24.3927 140.11 24.3927C141.071 24.3927 141.921 24.2172 142.66 23.8662C143.417 23.5152 144.184 22.9241 144.96 22.0928L146.373 23.5614ZM144.045 17.6592C143.99 16.3845 143.583 15.3777 142.826 14.6388C142.087 13.8814 141.089 13.5027 139.833 13.5027C138.595 13.5027 137.561 13.8814 136.73 14.6388C135.898 15.3777 135.39 16.3845 135.206 17.6592H144.045ZM154.221 13.946V25.9999H151.838V13.946H146.933V12.0064H159.126V13.946H154.221ZM174.373 19.017C174.373 20.4579 174.068 21.7326 173.458 22.841C172.83 23.9678 171.962 24.8453 170.854 25.4734C169.745 26.083 168.48 26.3878 167.057 26.3878C165.616 26.3878 164.351 26.0738 163.261 25.4457C162.134 24.8361 161.257 23.9771 160.629 22.8687C160.019 21.7603 159.714 20.4764 159.714 19.017V18.9061C159.714 17.4837 160.028 16.2275 160.656 15.1376C161.266 14.0292 162.125 13.1702 163.233 12.5606C164.342 11.9325 165.616 11.6184 167.057 11.6184C168.48 11.6184 169.745 11.9232 170.854 12.5328C171.962 13.1425 172.821 14.0015 173.431 15.1099C174.059 16.2183 174.373 17.4837 174.373 18.9061V19.017ZM162.153 19.017C162.153 20.0884 162.356 21.0213 162.762 21.8157C163.169 22.647 163.741 23.2843 164.48 23.7277C165.219 24.171 166.078 24.3927 167.057 24.3927C168.036 24.3927 168.895 24.1618 169.634 23.7C170.373 23.2566 170.937 22.6285 171.325 21.8157C171.731 21.0029 171.934 20.07 171.934 19.017V18.9061C171.934 17.8532 171.731 16.9295 171.325 16.1351C170.918 15.3408 170.336 14.7219 169.579 14.2786C168.84 13.8352 168 13.6135 167.057 13.6135C166.115 13.6135 165.275 13.826 164.536 14.2509C163.797 14.6942 163.215 15.3223 162.79 16.1351C162.365 16.948 162.153 17.8716 162.153 18.9061V19.017ZM186.204 6.32581V11.6461C187.719 11.7015 189.086 12.0248 190.305 12.616C191.506 13.2256 192.429 14.0661 193.076 15.1376C193.741 16.209 194.074 17.5022 194.074 19.017C194.074 20.4948 193.75 21.7787 193.104 22.8687C192.439 23.9401 191.506 24.7807 190.305 25.3903C189.104 25.9999 187.737 26.3324 186.204 26.3878V30.9877H183.904V26.3878C182.352 26.3324 180.994 25.9999 179.831 25.3903C178.63 24.7807 177.697 23.9401 177.032 22.8687C176.367 21.7787 176.034 20.4948 176.034 19.017C176.034 17.5206 176.367 16.2367 177.032 15.1653C177.697 14.0938 178.63 13.2533 179.831 12.6437C181.031 12.0341 182.389 11.7015 183.904 11.6461V6.32581H186.204ZM183.959 13.5304C182.241 13.6043 180.893 14.1215 179.914 15.0822C178.953 16.0428 178.473 17.3544 178.473 19.017C178.473 20.6796 178.953 21.9912 179.914 22.9518C180.893 23.9124 182.241 24.4204 183.959 24.4758V13.5304ZM186.148 24.4758C187.867 24.4204 189.215 23.9124 190.194 22.9518C191.173 21.9912 191.663 20.6796 191.663 19.017C191.663 17.3544 191.173 16.0428 190.194 15.0822C189.215 14.1215 187.867 13.6043 186.148 13.5304V24.4758ZM210.417 19.017C210.417 20.4579 210.113 21.7326 209.503 22.841C208.875 23.9678 208.007 24.8453 206.898 25.4734C205.79 26.083 204.524 26.3878 203.102 26.3878C201.661 26.3878 200.396 26.0738 199.306 25.4457C198.179 24.8361 197.301 23.9771 196.673 22.8687C196.064 21.7603 195.759 20.4764 195.759 19.017V18.9061C195.759 17.4837 196.073 16.2275 196.701 15.1376C197.311 14.0292 198.17 13.1702 199.278 12.5606C200.386 11.9325 201.661 11.6184 203.102 11.6184C204.524 11.6184 205.79 11.9232 206.898 12.5328C208.007 13.1425 208.866 14.0015 209.475 15.1099C210.103 16.2183 210.417 17.4837 210.417 18.9061V19.017ZM198.197 19.017C198.197 20.0884 198.401 21.0213 198.807 21.8157C199.213 22.647 199.786 23.2843 200.525 23.7277C201.264 24.171 202.123 24.3927 203.102 24.3927C204.081 24.3927 204.94 24.1618 205.679 23.7C206.418 23.2566 206.981 22.6285 207.369 21.8157C207.776 21.0029 207.979 20.07 207.979 19.017V18.9061C207.979 17.8532 207.776 16.9295 207.369 16.1351C206.963 15.3408 206.381 14.7219 205.624 14.2786C204.885 13.8352 204.044 13.6135 203.102 13.6135C202.16 13.6135 201.319 13.826 200.58 14.2509C199.841 14.6942 199.26 15.3223 198.835 16.1351C198.41 16.948 198.197 17.8716 198.197 18.9061V19.017ZM227.347 19.017C227.347 20.4579 227.07 21.7326 226.516 22.841C225.943 23.9494 225.14 24.8084 224.105 25.418C223.071 26.0276 221.888 26.3324 220.558 26.3324C218.064 26.3324 216.309 25.5473 215.293 23.9771V30.9877H212.91V12.0064H215.127V14.4725C216.217 12.5883 218.037 11.6461 220.586 11.6461C221.879 11.6461 223.043 11.9417 224.077 12.5328C225.112 13.1609 225.916 14.0199 226.488 15.1099C227.061 16.1998 227.347 17.456 227.347 18.8784V19.017ZM224.936 18.8784C224.936 17.8439 224.742 16.9295 224.355 16.1351C223.948 15.3593 223.375 14.7496 222.636 14.3063C221.916 13.8629 221.094 13.6412 220.17 13.6412C219.228 13.6412 218.378 13.8537 217.621 14.2786C216.845 14.7219 216.245 15.3315 215.82 16.1074C215.395 16.8833 215.182 17.807 215.182 18.8784V19.017C215.182 20.6242 215.635 21.9173 216.54 22.8964C217.445 23.857 218.646 24.3373 220.143 24.3373C221.066 24.3373 221.898 24.1064 222.636 23.6446C223.357 23.2012 223.92 22.5823 224.327 21.788C224.733 20.9752 224.936 20.0515 224.936 19.017V18.8784Z" fill="#26AD50"/>
</svg>
