<svg width="18" height="18" viewBox="0 0 18 18" fill="none" xmlns="http://www.w3.org/2000/svg">
<path fill-rule="evenodd" clip-rule="evenodd" d="M4 3V4H3C1.34315 4 0 5.34315 0 7V15C0 16.6569 1.34315 18 3 18H11C12.6569 18 14 16.6569 14 15V14H15C16.6569 14 18 12.6569 18 11V3C18 1.34315 16.6569 0 15 0H7C5.34315 0 4 1.34315 4 3ZM15 1.4H7C6.11634 1.4 5.4 2.11634 5.4 3V4H11C12.6569 4 14 5.34315 14 7V12.6H15C15.8837 12.6 16.6 11.8837 16.6 11V3C16.6 2.11634 15.8837 1.4 15 1.4ZM1.86544 16.1282C1.57777 15.8389 1.4 15.4402 1.4 15V7C1.4 6.11634 2.11634 5.4 3 5.4H11C11.4402 5.4 11.8389 5.57777 12.1282 5.86544C12.4198 6.15526 12.6004 6.55674 12.6004 7.00039V15.0004C12.6004 15.884 11.884 16.6004 11.0004 16.6004H3.00039C2.55674 16.6004 2.15526 16.4198 1.86544 16.1282Z" fill="#2764E0"/>
</svg>
