<svg width="14" height="14" viewBox="0 0 14 14" fill="none" xmlns="http://www.w3.org/2000/svg">
<path d="M7.82353 0.823529C7.82353 0.368707 7.45482 0 7 0C6.54518 0 6.17647 0.368707 6.17647 0.823529V6.17607H0.823529C0.368707 6.17607 0 6.54478 0 6.9996C0 7.45442 0.368707 7.82313 0.823529 7.82313H6.17647V13.1765C6.17647 13.6313 6.54518 14 7 14C7.45482 14 7.82353 13.6313 7.82353 13.1765V7.82313H13.1765C13.6313 7.82313 14 7.45442 14 6.9996C14 6.54478 13.6313 6.17607 13.1765 6.17607H7.82353V0.823529Z" fill="#2764E0"/>
</svg>
