<svg width="10" height="10" viewBox="0 0 10 10" fill="none" xmlns="http://www.w3.org/2000/svg">
<path d="M0.246142 0.246142C-0.0820384 0.574323 -0.0820565 1.10641 0.246142 1.43461L3.81154 5L0.246142 8.56539C-0.0820384 8.89357 -0.0820565 9.42566 0.246142 9.75386C0.574341 10.0821 1.10643 10.082 1.43461 9.75386L5 6.18846L8.56539 9.75386C8.89359 10.0821 9.42568 10.082 9.75386 9.75386C10.082 9.42568 10.0821 8.89359 9.75386 8.56539L6.18846 5L9.75386 1.43461C10.082 1.10643 10.0821 0.574341 9.75386 0.246142C9.42566 -0.0820565 8.89357 -0.0820384 8.56539 0.246142L5 3.81154L1.43461 0.246142C1.10641 -0.0820565 0.574323 -0.0820384 0.246142 0.246142Z" fill="#9295AE"/>
</svg>
