<svg width="13" height="16" viewBox="0 0 13 16" fill="none" xmlns="http://www.w3.org/2000/svg">
<path fill-rule="evenodd" clip-rule="evenodd" d="M9.59998 1.59167H12.475C12.5606 1.59378 12.642 1.6287 12.7025 1.6892C12.763 1.7497 12.7979 1.83114 12.8 1.91667V2.875C12.7978 2.95975 12.7627 3.04029 12.7019 3.09944C12.6412 3.1586 12.5598 3.1917 12.475 3.19167H0.325C0.24023 3.1917 0.15881 3.1586 0.0980902 3.09944C0.0373802 3.04029 0.00218 2.95975 0 2.875V1.91667C0.00212 1.83114 0.0370401 1.7497 0.0975301 1.6892C0.15803 1.6287 0.23947 1.59378 0.325 1.59167H3.2V0.31667C3.2 0.23269 3.23337 0.15214 3.29275 0.0927501C3.35214 0.0333701 3.43269 0 3.51667 0H9.28338C9.32488 0 9.36608 0.00819008 9.40448 0.0241101C9.44298 0.0400201 9.47788 0.0633501 9.50728 0.0927501C9.53668 0.12216 9.55998 0.15707 9.57588 0.19549C9.59178 0.23391 9.59998 0.27509 9.59998 0.31667V1.59167ZM4.31651 4.79167H5.28317C5.45806 4.79167 5.59984 4.93345 5.59984 5.10834V12.4667C5.59984 12.6416 5.45806 12.7833 5.28317 12.7833H4.31651C4.14162 12.7833 3.99984 12.6416 3.99984 12.4667V5.10834C3.99984 4.93345 4.14162 4.79167 4.31651 4.79167ZM8.48348 4.79167H7.51678C7.34188 4.79167 7.20008 4.93345 7.20008 5.10834V12.4667C7.20008 12.6416 7.34188 12.7833 7.51678 12.7833H8.48348C8.65838 12.7833 8.80008 12.6416 8.80008 12.4667V5.10834C8.80008 4.93345 8.65838 4.79167 8.48348 4.79167ZM10.3917 14.3667V4.30837C10.3917 4.22438 10.425 4.14384 10.4844 4.08445C10.5438 4.02507 10.6243 3.9917 10.7083 3.9917H11.6833C11.7673 3.9917 11.8479 4.02507 11.9072 4.08445C11.9666 4.14384 12 4.22438 12 4.30837V14.825C11.9978 15.133 11.8739 15.4276 11.6553 15.6446C11.4368 15.8616 11.1413 15.9834 10.8333 15.9834H1.96664C1.65866 15.9834 1.36317 15.8616 1.14461 15.6446C0.92606 15.4276 0.80217 15.133 0.79997 14.825V4.30837C0.79997 4.22438 0.83333 4.14384 0.89272 4.08445C0.95211 4.02507 1.03265 3.9917 1.11664 3.9917H2.09164C2.17562 3.9917 2.25617 4.02507 2.31556 4.08445C2.37494 4.14384 2.40831 4.22438 2.40831 4.30837V14.3667H10.3917Z" fill="#9295AE"/>
</svg>
