<svg width="14" height="12" viewBox="0 0 14 12" fill="none" xmlns="http://www.w3.org/2000/svg">
<path fill-rule="evenodd" clip-rule="evenodd" d="M7.32639 6.95712C7.13266 7.10914 6.86734 7.10914 6.67361 6.95712L1.09375 2.57874V1.73077C1.09375 1.41215 1.33861 1.15385 1.64063 1.15385H12.3594C12.6614 1.15385 12.9063 1.41215 12.9063 1.73077V2.57874L7.32639 6.95712ZM7.97917 7.88294L14 3.15853V1.73077C14 0.774902 13.2655 0 12.3594 0H1.64063C0.734544 0 4.69387e-07 0.774902 4.69387e-07 1.73077V3.15853L6.02083 7.88294C6.60203 8.339 7.39797 8.33899 7.97917 7.88294Z" fill="white"/>
<path d="M12.9063 5.45479V10.2692C12.9063 10.5873 12.6609 10.8462 12.3594 10.8462H1.64062C1.33908 10.8462 1.09375 10.5873 1.09375 10.2692V5.45479L0 4.59656V10.2692C0 11.2236 0.735984 12 1.64062 12H12.3594C13.264 12 14 11.2236 14 10.2692V4.59656L12.9063 5.45479Z" fill="white"/>
</svg>
