<svg width="19" height="17" viewBox="0 0 19 17" fill="none" xmlns="http://www.w3.org/2000/svg">
<path fill-rule="evenodd" clip-rule="evenodd" d="M5.45912 3.51915C5.45912 2.4891 4.61072 1.65053 3.56609 1.65053C2.52258 1.65053 1.67306 2.4891 1.67306 3.51915C1.67306 4.5492 2.52258 5.38777 3.56609 5.38777C4.61072 5.38777 5.45912 4.5492 5.45912 3.51915ZM7.13064 3.51934C7.13064 5.45949 5.53193 7.03868 3.56532 7.03868C1.59982 7.03868 0 5.45949 0 3.51934C0 1.57919 1.59982 0 3.56532 0C5.53193 0 7.13064 1.57919 7.13064 3.51934ZM18.9536 3.51898C18.9536 3.06338 18.579 2.69362 18.1174 2.69362H11.2611C10.7995 2.69362 10.4249 3.06338 10.4249 3.51898C10.4249 3.97458 10.7995 4.34434 11.2611 4.34434H18.1174C18.579 4.34434 18.9536 3.97458 18.9536 3.51898ZM13.4951 12.9966C13.4951 14.0266 14.3435 14.8652 15.3882 14.8652C16.4328 14.8652 17.2812 14.0266 17.2812 12.9966C17.2812 11.9654 16.4328 11.128 15.3882 11.128C14.3435 11.128 13.4951 11.9654 13.4951 12.9966ZM11.8223 12.9967C11.8223 11.0555 13.421 9.47738 15.3876 9.47738C17.3542 9.47738 18.9529 11.0555 18.9529 12.9967C18.9529 14.9369 17.3542 16.5161 15.3876 16.5161C13.421 16.5161 11.8223 14.9369 11.8223 12.9967ZM0.837121 12.1699H7.69239C8.15394 12.1699 8.52854 12.5397 8.52854 12.9953C8.52854 13.4509 8.15394 13.8206 7.69239 13.8206H0.837121C0.375569 13.8206 0.000976562 13.4509 0.000976562 12.9953C0.000976562 12.5397 0.375569 12.1699 0.837121 12.1699Z" fill="#2764E0"/>
</svg>
