<svg width="24" height="22" viewBox="0 0 24 22" fill="none" xmlns="http://www.w3.org/2000/svg">
<path fill-rule="evenodd" clip-rule="evenodd" d="M7.05313 5.24923C7.05313 3.98111 6.00864 2.94874 4.72259 2.94874C3.4379 2.94874 2.39204 3.98111 2.39204 5.24923C2.39204 6.51734 3.4379 7.54972 4.72259 7.54972C6.00864 7.54972 7.05313 6.51734 7.05313 5.24923ZM9.11192 5.24923C9.11192 7.63778 7.14372 9.58195 4.72259 9.58195C2.30283 9.58195 0.333252 7.63778 0.333252 5.24923C0.333252 2.86067 2.30283 0.916504 4.72259 0.916504C7.14372 0.916504 9.11192 2.86067 9.11192 5.24923ZM23.6666 5.2495C23.6666 4.6886 23.2054 4.23338 22.6372 4.23338H14.1962C13.6279 4.23338 13.1668 4.6886 13.1668 5.2495C13.1668 5.8104 13.6279 6.26562 14.1962 6.26562H22.6372C23.2054 6.26562 23.6666 5.8104 23.6666 5.2495ZM16.9462 16.9148C16.9462 18.1829 17.9907 19.2152 19.2768 19.2152C20.5628 19.2152 21.6073 18.1829 21.6073 16.9148C21.6073 15.6453 20.5628 14.6143 19.2768 14.6143C17.9907 14.6143 16.9462 15.6453 16.9462 16.9148ZM14.8875 16.9148C14.8875 14.5248 16.8557 12.582 19.2768 12.582C21.6979 12.582 23.6661 14.5248 23.6661 16.9148C23.6661 19.3033 21.6979 21.2475 19.2768 21.2475C16.8557 21.2475 14.8875 19.3033 14.8875 16.9148ZM1.36362 15.8984H9.80328C10.3715 15.8984 10.8327 16.3537 10.8327 16.9146C10.8327 17.4755 10.3715 17.9307 9.80328 17.9307H1.36362C0.795397 17.9307 0.334229 17.4755 0.334229 16.9146C0.334229 16.3537 0.795397 15.8984 1.36362 15.8984Z" fill="#212529"/>
</svg>
