<svg width="24" height="24" viewBox="0 0 24 24" fill="none" xmlns="http://www.w3.org/2000/svg">
<path fill-rule="evenodd" clip-rule="evenodd" d="M21.7294 6.93565C22.5111 7.54115 22.9906 8.44065 23.0722 9.41948L23.0839 9.65398V19.1145C23.0839 21.5528 21.1577 23.5361 18.7439 23.6645H16.4222C15.3127 23.6423 14.4156 22.779 14.3339 21.694L14.3222 21.5295V18.194C14.3222 17.8311 14.0527 17.529 13.6922 17.4695L13.5872 17.4578H10.4711C10.0989 17.4695 9.79557 17.7378 9.7489 18.0878L9.73724 18.194V21.519C9.73724 21.5878 9.7244 21.6695 9.7139 21.7278L9.70224 21.7523L9.6894 21.8328C9.55057 22.8256 8.7339 23.5828 7.7189 23.654L7.56724 23.6645H5.4789C3.04057 23.6645 1.04557 21.7523 0.917236 19.3478V9.65398C0.927736 8.66115 1.36057 7.73948 2.0839 7.09782L9.35224 1.25282C10.8339 0.0756492 12.9106 0.0289825 14.4377 1.11282L14.6256 1.25282L21.7294 6.93565ZM21.4494 19.3012L21.4622 19.1145V9.66448C21.4494 9.16398 21.2406 8.69615 20.8789 8.34732L20.7272 8.21782L13.6106 2.52448C12.7239 1.81282 11.4639 1.77898 10.5306 2.39615L10.3544 2.52448L3.26107 8.24232C2.8539 8.54448 2.6089 8.99948 2.55057 9.47782L2.53774 9.66448V19.1145C2.53774 20.6662 3.75107 21.9378 5.29224 22.0312H7.56724C7.8239 22.0312 8.04557 21.8573 8.0794 21.6123L8.1039 21.4023L8.11557 21.3428V18.194C8.11557 16.9457 9.07224 15.9306 10.2972 15.8362H13.5872C14.8344 15.8362 15.8494 16.794 15.9439 18.019V21.5295C15.9439 21.7745 16.1189 21.9857 16.3522 22.0312H18.5211C20.0844 22.0312 21.3561 20.8307 21.4494 19.3012Z" fill="#212529"/>
</svg>
