<svg width="16" height="16" viewBox="0 0 16 16" fill="none" xmlns="http://www.w3.org/2000/svg">
<path d="M7.19998 7.19998V12H8.80002V7.19998H7.19998Z" fill="#DDDDDD"/>
<path d="M7.19998 5.60004V4H8.80002V5.60004H7.19998Z" fill="#DDDDDD"/>
<path fill-rule="evenodd" clip-rule="evenodd" d="M8 0C3.58002 0 0 3.57997 0 8C0 12.4199 3.58002 16 8 16C12.4199 16 16 12.42 16 8C16 3.57997 12.42 0 8 0ZM8 14.4C4.47201 14.4 1.59999 11.528 1.59999 8C1.59999 4.47201 4.47201 1.60004 8 1.60004C11.528 1.60004 14.4 4.47201 14.4 8C14.4 11.528 11.528 14.4 8 14.4Z" fill="#DDDDDD"/>
</svg>
