<svg width="45" height="33" viewBox="0 0 45 33" fill="none" xmlns="http://www.w3.org/2000/svg">
<path d="M20.4251 9.76941C15.4016 9.76941 11.3184 13.8527 11.3184 18.8762C11.3184 23.8996 15.4016 27.9829 20.4251 27.9829C25.4486 27.9829 29.5319 23.8996 29.5319 18.8762C29.5319 13.8527 25.4486 9.76941 20.4251 9.76941ZM20.4251 26.201C16.3866 26.201 13.1093 22.9146 13.1093 18.8851C13.1093 14.8556 16.3956 11.5693 20.4251 11.5693C24.4546 11.5693 27.741 14.8556 27.741 18.8851C27.741 22.9146 24.4636 26.201 20.4251 26.201Z" fill="#9295AE"/>
<path d="M20.4254 14.1929C17.8375 14.1929 15.7422 16.2972 15.7422 18.8761C15.7422 21.455 17.8465 23.5593 20.4254 23.5593C23.0043 23.5593 25.1086 21.455 25.1086 18.8761C25.1086 16.2972 23.0133 14.1929 20.4254 14.1929ZM20.4254 21.7773C18.8315 21.7773 17.5331 20.4789 17.5331 18.885C17.5331 17.2911 18.8315 15.9927 20.4254 15.9927C22.0193 15.9927 23.3177 17.2911 23.3177 18.885C23.3177 20.4789 22.0193 21.7773 20.4254 21.7773Z" fill="#9295AE"/>
<path d="M3.71613 32.675H37.1344C39.185 32.675 40.8505 31.0095 40.8505 28.9589V14.4078C40.8505 13.9153 40.4476 13.5124 39.9551 13.5124C39.4626 13.5124 39.0596 13.9153 39.0596 14.4078V28.9679C39.0596 30.0335 38.2 30.8931 37.1344 30.8931H3.71613C2.65054 30.8841 1.7909 30.0245 1.7909 28.9679V8.79334C1.7909 7.72775 2.65054 6.86812 3.71613 6.86812H11.2379C12.8676 6.86812 14.3004 5.82044 14.7839 4.26235L15.1331 3.14304C15.3839 2.33713 16.1271 1.7909 16.9688 1.7909H23.8907C24.7324 1.7909 25.4756 2.33713 25.7263 3.14304L26.0756 4.26235C26.5591 5.82044 27.9918 6.86812 29.6216 6.86812H31.5289C32.0214 6.86812 32.4243 6.46516 32.4243 5.97267C32.4243 5.48017 32.0214 5.07721 31.5289 5.07721H29.6216C28.7798 5.07721 28.0366 4.53099 27.7859 3.72508L27.4366 2.60577C26.9531 1.04768 25.5204 0 23.8907 0H16.9688C15.3391 0 13.9064 1.04768 13.4228 2.60577L13.0736 3.72508C12.8229 4.53099 12.0796 5.07721 11.2379 5.07721H3.71613C1.66554 5.07721 0 6.75171 0 8.79334V28.9679C0 31.0095 1.66554 32.675 3.71613 32.675Z" fill="#9295AE"/>
<path d="M43.8783 5.07723H40.8517V2.0506C40.8517 1.5581 40.4487 1.15515 39.9562 1.15515C39.4637 1.15515 39.0607 1.5581 39.0607 2.0506V5.07723H36.0341C35.5416 5.07723 35.1387 5.48019 35.1387 5.97268C35.1387 6.46518 35.5416 6.86814 36.0341 6.86814H39.0607V9.89476C39.0607 10.3873 39.4637 10.7902 39.9562 10.7902C40.4487 10.7902 40.8517 10.3873 40.8517 9.89476V6.86814H43.8783C44.3708 6.86814 44.7737 6.46518 44.7737 5.97268C44.7737 5.48019 44.3708 5.07723 43.8783 5.07723Z" fill="#9295AE"/>
</svg>
