<svg width="18" height="20" viewBox="0 0 18 20" fill="none" xmlns="http://www.w3.org/2000/svg">
<path d="M4.72346 12.4459C5.0214 12.1399 5.50453 12.1399 5.80247 12.4459L7.42099 14.1082L11.1975 10.2295C11.4955 9.9235 11.9786 9.9235 12.2765 10.2295C12.5745 10.5355 12.5745 11.0317 12.2765 11.3377L7.96049 15.7705C7.66255 16.0765 7.17942 16.0765 6.88148 15.7705L4.72346 13.5541C4.42551 13.2481 4.42551 12.7519 4.72346 12.4459Z" fill="#2764E0"/>
<path fill-rule="evenodd" clip-rule="evenodd" d="M11.106 0.0118984C11.0629 0.0042104 11.0186 0.000198364 10.9733 0.000198364C10.928 0.000198364 10.8837 0.0042104 10.8406 0.0118984H4.584C2.0967 0.0118984 0 2.02973 0 4.4909V15.3399C0 17.9221 1.98544 19.8649 4.584 19.8649H12.572C15.0406 19.8649 17.052 17.8199 17.052 15.3399V6.0379C17.052 5.84426 16.9771 5.65812 16.843 5.51844L11.777 0.242444C11.6356 0.0951554 11.4402 0.0118984 11.236 0.0118984H11.106ZM10.2233 1.5111L4.584 1.5119C2.91254 1.5119 1.5 2.8713 1.5 4.4909V15.3399C1.5 17.0863 2.80667 18.3649 4.584 18.3649H12.572C14.2065 18.3649 15.552 16.997 15.552 15.3399L15.5517 6.98328L14.6752 6.98627C14.3417 6.98586 13.9624 6.98516 13.5407 6.9842C11.7704 6.98046 10.3261 5.59367 10.2285 3.8476L10.2233 3.6592V1.5111ZM14.7307 5.48404L13.544 5.4842C12.5376 5.48207 11.7233 4.66576 11.7233 3.6592V2.35205L14.7307 5.48404Z" fill="#2764E0"/>
</svg>
