<svg width="18" height="20" viewBox="0 0 18 20" fill="none" xmlns="http://www.w3.org/2000/svg">
<path d="M4.72346 12.4457C5.0214 12.1397 5.50453 12.1397 5.80247 12.4457L7.42099 14.108L11.1975 10.2293C11.4955 9.9233 11.9786 9.9233 12.2765 10.2293C12.5745 10.5353 12.5745 11.0315 12.2765 11.3375L7.96049 15.7703C7.66255 16.0763 7.17942 16.0763 6.88148 15.7703L4.72346 13.5539C4.42551 13.2479 4.42551 12.7517 4.72346 12.4457Z" fill="#359526"/>
<path fill-rule="evenodd" clip-rule="evenodd" d="M11.106 0.0117C11.0629 0.00401204 11.0186 0 10.9733 0C10.928 0 10.8837 0.00401204 10.8406 0.0117H4.584C2.0967 0.0117 0 2.02953 0 4.4907V15.3397C0 17.9219 1.98544 19.8647 4.584 19.8647H12.572C15.0406 19.8647 17.052 17.8197 17.052 15.3397V6.0377C17.052 5.84406 16.9771 5.65792 16.843 5.51825L11.777 0.242246C11.6356 0.094957 11.4402 0.0117 11.236 0.0117H11.106ZM10.2233 1.5109L4.584 1.5117C2.91254 1.5117 1.5 2.8711 1.5 4.4907V15.3397C1.5 17.0861 2.80667 18.3647 4.584 18.3647H12.572C14.2065 18.3647 15.552 16.9968 15.552 15.3397L15.5517 6.98308L14.6752 6.98607C14.3417 6.98567 13.9624 6.98496 13.5407 6.984C11.7704 6.98026 10.3261 5.59347 10.2285 3.84741L10.2233 3.659V1.5109ZM14.7307 5.48384L13.544 5.484C12.5376 5.48188 11.7233 4.66557 11.7233 3.659V2.35185L14.7307 5.48384Z" fill="#359526"/>
</svg>
