<svg width="8" height="12" viewBox="0 0 8 12" fill="none" xmlns="http://www.w3.org/2000/svg">
<path d="M6.29505 0.683315C6.49105 0.173315 5.84605 -0.236685 5.46805 0.157315L0.139052 5.70731C0.0712985 5.778 0.0257874 5.86701 0.00816534 5.96332C-0.00945673 6.05964 0.0015858 6.159 0.0399229 6.24909C0.0782601 6.33919 0.142205 6.41604 0.223823 6.47012C0.305442 6.5242 0.401143 6.55313 0.499052 6.55331H2.52805C2.60908 6.55345 2.68886 6.57328 2.76053 6.6111C2.83219 6.64891 2.89359 6.70358 2.93944 6.77038C2.98529 6.83719 3.01422 6.91414 3.02373 6.99461C3.03325 7.07508 3.02306 7.15666 2.99405 7.23231L1.52405 11.0593C1.32905 11.5693 1.97405 11.9793 2.35205 11.5853L7.68005 6.03531C7.74781 5.96463 7.79332 5.87562 7.81094 5.7793C7.82856 5.68299 7.81752 5.58363 7.77918 5.49354C7.74085 5.40344 7.6769 5.32659 7.59528 5.27251C7.51366 5.21843 7.41796 5.1895 7.32005 5.18931H5.29205C5.21094 5.18934 5.13104 5.16963 5.05924 5.13188C4.98745 5.09413 4.92591 5.03949 4.87995 4.97266C4.83398 4.90582 4.80496 4.82881 4.7954 4.74826C4.78584 4.66772 4.79601 4.58605 4.82505 4.51031L6.29505 0.683315Z" fill="#2764E0"/>
</svg>
