<svg width="13" height="13" viewBox="0 0 13 13" fill="none" xmlns="http://www.w3.org/2000/svg">
<path d="M13 2.03125V10.9688C12.9994 11.5073 12.7852 12.0236 12.4044 12.4044C12.0236 12.7852 11.5073 12.9994 10.9688 13H2.03125C1.49271 12.9994 0.97641 12.7852 0.595607 12.4044C0.214805 12.0236 0.000604832 11.5073 0 10.9688L0 9.69922C0 9.5376 0.0642018 9.38261 0.178482 9.26833C0.292762 9.15405 0.447759 9.08984 0.609375 9.08984C0.770991 9.08984 0.925988 9.15405 1.04027 9.26833C1.15455 9.38261 1.21875 9.5376 1.21875 9.69922V10.9688C1.21899 11.1842 1.30466 11.3907 1.45699 11.543C1.60931 11.6953 1.81583 11.781 2.03125 11.7812H10.9688C11.1842 11.781 11.3907 11.6953 11.543 11.543C11.6953 11.3907 11.781 11.1842 11.7812 10.9688V2.03125C11.781 1.81583 11.6953 1.60931 11.543 1.45699C11.3907 1.30466 11.1842 1.21899 10.9688 1.21875H2.03125C1.81584 1.21899 1.60931 1.30467 1.45699 1.45699C1.30467 1.60931 1.21899 1.81584 1.21875 2.03125V3.30078C1.21875 3.4624 1.15455 3.61739 1.04027 3.73167C0.925988 3.84595 0.770991 3.91016 0.609375 3.91016C0.447759 3.91016 0.292762 3.84595 0.178482 3.73167C0.0642018 3.61739 0 3.4624 0 3.30078L0 2.03125C0.000611539 1.49272 0.214814 0.976416 0.595615 0.595615C0.976416 0.214814 1.49272 0.000611539 2.03125 0L10.9688 0C11.5073 0.000604832 12.0236 0.214805 12.4044 0.595607C12.7852 0.97641 12.9994 1.49271 13 2.03125ZM0 6.5C0 6.66162 0.0642018 6.81661 0.178482 6.93089C0.292762 7.04517 0.447759 7.10938 0.609375 7.10938H5.81283L4.55853 8.36367C4.50194 8.42026 4.45706 8.48743 4.42643 8.56137C4.39581 8.6353 4.38004 8.71454 4.38004 8.79457C4.38004 8.95619 4.44424 9.11119 4.55852 9.22547C4.6728 9.33975 4.8278 9.40396 4.98941 9.40396C5.15103 9.40396 5.30603 9.33976 5.42031 9.22548L7.71489 6.9309C7.77148 6.87432 7.81637 6.80714 7.84699 6.7332C7.87762 6.65927 7.89338 6.58003 7.89338 6.5C7.89338 6.41997 7.87762 6.34073 7.84699 6.2668C7.81637 6.19286 7.77148 6.12568 7.71489 6.0691L5.42031 3.77452C5.30603 3.66024 5.15103 3.59603 4.98941 3.59603C4.82779 3.59603 4.67279 3.66024 4.55851 3.77452C4.44422 3.8888 4.38002 4.0438 4.38002 4.20542C4.38002 4.36704 4.44422 4.52205 4.55851 4.63633L5.8128 5.89062H0.609375C0.447759 5.89062 0.292762 5.95483 0.178482 6.06911C0.0642018 6.18339 0 6.33838 0 6.5Z" fill="#2764E0"/>
</svg>
