<svg width="22" height="22" viewBox="0 0 22 22" fill="none" xmlns="http://www.w3.org/2000/svg">
<path d="M8.06541 0H1.90474C0.854445 0 0 0.854445 0 1.90474V8.06541C0 9.1157 0.854445 9.97015 1.90474 9.97015H8.06541C9.1157 9.97015 9.97015 9.1157 9.97015 8.06541V1.90474C9.97022 0.854445 9.1157 0 8.06541 0ZM8.42089 8.06541C8.42089 8.26141 8.26141 8.42089 8.06541 8.42089H1.90474C1.70874 8.42089 1.54926 8.26141 1.54926 8.06541V1.90474C1.54926 1.70874 1.70874 1.54926 1.90474 1.54926H8.06541C8.26141 1.54926 8.42089 1.70874 8.42089 1.90474V8.06541Z" fill="#212529"/>
<path d="M20.0953 0H13.9346C12.8844 0 12.0299 0.854445 12.0299 1.90474V8.06541C12.0299 9.1157 12.8844 9.97015 13.9346 9.97015H20.0953C21.1456 9.97015 22.0001 9.1157 22.0001 8.06541V1.90474C22.0001 0.854445 21.1456 0 20.0953 0ZM20.4508 8.06541C20.4508 8.26141 20.2913 8.42089 20.0953 8.42089H13.9346C13.7386 8.42089 13.5792 8.26141 13.5792 8.06541V1.90474C13.5792 1.70874 13.7386 1.54926 13.9346 1.54926H20.0953C20.2913 1.54926 20.4508 1.70874 20.4508 1.90474V8.06541Z" fill="#212529"/>
<path d="M8.06541 12.0299H1.90474C0.854445 12.0299 0 12.8844 0 13.9347V20.0954C0 21.1457 0.854445 22.0001 1.90474 22.0001H8.06541C9.1157 22.0001 9.97015 21.1457 9.97015 20.0954V13.9347C9.97022 12.8844 9.1157 12.0299 8.06541 12.0299ZM8.42089 20.0954C8.42089 20.2914 8.26141 20.4509 8.06541 20.4509H1.90474C1.70874 20.4509 1.54926 20.2914 1.54926 20.0954V13.9347C1.54926 13.7387 1.70874 13.5792 1.90474 13.5792H8.06541C8.26141 13.5792 8.42089 13.7387 8.42089 13.9347V20.0954Z" fill="#212529"/>
<path d="M20.0953 12.0299H13.9346C12.8844 12.0299 12.0299 12.8844 12.0299 13.9346V20.0953C12.0299 21.1456 12.8844 22.0001 13.9346 22.0001H20.0953C21.1456 22.0001 22.0001 21.1457 22.0001 20.0954V13.9347C22.0001 12.8844 21.1456 12.0299 20.0953 12.0299ZM20.4508 20.0954C20.4508 20.2914 20.2913 20.4509 20.0953 20.4509H13.9346C13.7386 20.4509 13.5792 20.2914 13.5792 20.0954V13.9347C13.5792 13.7387 13.7386 13.5792 13.9346 13.5792H20.0953C20.2913 13.5792 20.4508 13.7387 20.4508 13.9347V20.0954Z" fill="#212529"/>
</svg>
