<svg width="20" height="24" viewBox="0 0 20 24" fill="none" xmlns="http://www.w3.org/2000/svg">
<path fill-rule="evenodd" clip-rule="evenodd" d="M10.0051 0.333496C6.58206 0.333496 3.80715 3.12024 3.80715 6.55787C3.80715 9.99549 6.58206 12.7822 10.0051 12.7822C13.4281 12.7822 16.203 9.99549 16.203 6.55787C16.203 3.12024 13.4281 0.333496 10.0051 0.333496ZM10.0051 2.02244C12.4993 2.02244 14.5213 4.05302 14.5213 6.55787C14.5213 9.06271 12.4993 11.0933 10.0051 11.0933C7.51088 11.0933 5.48893 9.06271 5.48893 6.55787C5.48893 4.05302 7.51088 2.02244 10.0051 2.02244ZM7.46847 15.2912C6.56113 15.3542 5.64399 15.4837 4.73935 15.6776C2.99329 16.0372 1.59641 16.7558 1.00186 17.95C0.777613 18.417 0.664869 18.9171 0.666772 19.4233C0.666099 19.9259 0.77793 20.4266 0.994136 20.8846C1.56502 22.0651 2.79919 22.7331 4.4657 23.1034L4.76423 23.1657C5.64431 23.3643 6.56173 23.498 7.48529 23.5607C7.56395 23.5838 7.75142 23.6052 7.95604 23.6157L8.12434 23.622C8.21087 23.624 8.30909 23.6245 8.45542 23.6245C9.7829 23.6975 11.1591 23.6762 12.5289 23.5596C13.2588 23.5097 13.9937 23.4142 14.7224 23.2744L15.2677 23.1611C17.0672 22.8061 18.4148 22.131 19.0051 20.886C19.4428 19.9616 19.4428 18.889 19.0053 17.965C18.4164 16.7231 17.0861 16.0536 15.254 15.6762C14.5352 15.5228 13.8048 15.4092 13.0692 15.3367L12.5314 15.2912C10.847 15.1426 9.15287 15.1426 7.46847 15.2912ZM12.3842 16.9737L12.399 16.9748C13.2433 17.0343 14.0824 17.1528 14.9102 17.3295C16.271 17.6098 17.1945 18.0746 17.4867 18.6907C17.7067 19.1554 17.7067 19.6952 17.4865 20.1603C17.2135 20.736 16.3841 21.1808 15.1853 21.4526L14.9228 21.5082C14.0787 21.6966 13.2424 21.818 12.4006 21.8757C11.0943 21.9867 9.79586 22.0068 8.50065 21.9368L8.04144 21.9289C7.91397 21.9224 7.80653 21.9101 7.70697 21.8901C6.9186 21.8306 6.20919 21.7364 5.5204 21.5999L5.10913 21.5128C3.74408 21.2453 2.81243 20.7785 2.51036 20.154C2.40467 19.93 2.34821 19.6772 2.34854 19.4213C2.3476 19.1668 2.40331 18.9197 2.51147 18.6943C2.80517 18.1046 3.79248 17.5967 5.08382 17.3307C5.91761 17.152 6.7563 17.0336 7.60018 16.9749C9.20212 16.8337 10.7978 16.8337 12.3842 16.9737Z" fill="#212529"/>
</svg>
