<svg width="128" height="69" viewBox="0 0 128 69" fill="none" xmlns="http://www.w3.org/2000/svg">
<path fill-rule="evenodd" clip-rule="evenodd" d="M63.9348 0.321655H67.2469L70.421 0.459788C146.885 6.43392 146.882 62.3076 70.421 68.2817L67.2469 68.4199H60.6227C41.3987 68.1666 7.61984 60.5557 0.728832 39.5507L0.314819 37.8931L0.0388115 36.0974C-1.32053 13.3589 33.3645 2.35907 51.1004 1.0123L57.4486 0.459788L60.6227 0.321655H63.9348ZM63.9348 3.22239H66.9709L70.007 3.36052C141.958 8.72228 141.958 60.1275 70.007 65.381L66.9709 65.5191H60.8987C43.2065 65.4524 10.9917 58.4722 4.45495 39.1363L4.04093 37.6168L3.90293 35.9593C2.38258 14.9612 35.7106 5.17463 51.7904 3.77491L54.8265 3.49865L57.8626 3.36052L60.8987 3.22239H63.9348ZM63.9348 7.09003L66.8329 7.22817H69.7309C136.771 12.187 136.792 56.6489 69.7309 61.5134L66.8329 61.6515H61.0367C45.5457 61.5341 14.382 55.6474 8.45707 38.5837L8.04305 37.2024L7.90505 35.8211C6.50891 16.8628 38.5834 8.82127 52.6184 7.64256L55.3785 7.50443L58.1386 7.22817H61.0367L63.9348 7.09003ZM63.9348 5.84687H66.8329L69.7309 5.985C138.25 10.8426 138.252 57.9657 69.7309 62.7565L66.8329 62.8947H61.0367C44.9753 62.92 13.1952 56.4831 7.35303 38.7219L6.93902 37.3406L6.66301 35.8211C5.83269 16.0156 37.3 7.70011 52.3424 6.39939L55.2405 6.12312L58.1386 5.985L61.0367 5.84687H63.9348ZM17.9794 45.9046V22.975H24.7416L33.2978 36.5118V22.975H39.508V45.9046H32.8838L24.1896 32.0916V45.9046H17.9794ZM43.7862 45.9046V22.975H50.2724V40.3794H57.1726V45.9046H43.7862ZM58.1386 45.9046L61.5887 22.975H68.0749L72.077 36.9262L76.2172 22.975H82.7034L86.1535 45.9046H79.8053L78.1492 32.6441L74.1471 45.9046H70.007L66.1428 32.6441L64.3488 45.9046H58.1386ZM88.6375 45.9046V22.975H95.1237V32.6441L102.162 22.975H109.752L100.92 34.0254L110.028 45.9046H101.886L95.1237 36.0974V45.9046" fill="#004696"/>
</svg>
