<svg width="154" height="24" viewBox="0 0 154 24" fill="none" xmlns="http://www.w3.org/2000/svg">
<mask id="mask0_1_3270" style="mask-type:luminance" maskUnits="userSpaceOnUse" x="0" y="0" width="154" height="24">
<path d="M153.6 0H0V24H153.6V0Z" fill="white"/>
</mask>
<g mask="url(#mask0_1_3270)">
<path d="M24 0H0V4.8H24V0Z" fill="#FAB82E"/>
<path d="M24 9.59998H0V14.4H24V9.59998Z" fill="#ED7817"/>
<path d="M24 19.2H0V24H24V19.2Z" fill="#E32112"/>
<path d="M117.255 4.8L121.047 14.392H113.455L117.255 4.8ZM113.575 0L104.359 24H109.863L111.663 19.192L122.839 19.2L124.639 24H130.111L120.367 0H113.575Z" fill="black"/>
<path d="M33.5898 0V24H53.2857V19.2L38.4057 19.192V14.4H53.2857V9.592H38.4057V4.808L53.2857 4.792V0H33.5898Z" fill="black"/>
<path d="M133.441 23.9839H142.745H146.441C150.313 23.9839 153.601 21.3519 153.601 16.8639C153.601 15.0159 152.889 13.1999 150.673 11.9999C153.233 10.5119 153.601 8.98387 153.601 7.13587C153.601 3.23187 150.321 0.0158691 146.441 0.0158691H142.745H133.441V4.89587H146.217C147.521 4.89587 148.577 5.95187 148.577 7.25587C148.577 8.55987 147.521 9.61587 146.217 9.61587H143.665H135.833V14.3919H143.665H146.217C147.521 14.3919 148.577 15.4479 148.577 16.7519C148.577 18.0559 147.521 19.1119 146.217 19.1119H133.441V23.9839Z" fill="black"/>
<path d="M97.7283 0H94.0323H84.4883V24H89.2883V14.376H94.9523H97.7283C101.696 14.376 104.92 11.16 104.92 7.184C104.92 3.208 101.696 0 97.7283 0ZM97.5043 9.608H89.2883V4.88H97.5043C98.8083 4.88 99.8643 5.936 99.8643 7.24C99.8643 8.544 98.8083 9.608 97.5043 9.608Z" fill="black"/>
<path d="M76.4146 11.9923C78.9746 10.5043 79.3426 8.9763 79.3426 7.1283C79.3426 3.2243 76.0626 0.00830078 72.1825 0.00830078H59.0625V23.9843H72.4225C76.2946 23.9843 79.5826 21.3523 79.5826 16.8643C79.5746 15.0083 78.6306 13.1923 76.4146 11.9923ZM63.8545 4.8803H71.9506C73.2546 4.8803 74.3106 5.9363 74.3106 7.2403C74.3106 8.5443 73.2546 9.6003 71.9506 9.6003H69.5185H63.8465V4.8803H63.8545ZM72.1906 19.1043H63.8545V14.3843H72.1906C73.4946 14.3843 74.5506 15.4403 74.5506 16.7443C74.5506 18.0403 73.4946 19.1043 72.1906 19.1043Z" fill="black"/>
</g>
</svg>
