<svg width="149" height="41" viewBox="0 0 149 41" fill="none" xmlns="http://www.w3.org/2000/svg">
<path fill-rule="evenodd" clip-rule="evenodd" d="M44.8228 3.15137L44.8138 9.71107L44.7317 11.019L45.5639 9.89847L53.6493 1.32137C54.7386 0.145469 56.5563 -0.341431 58.0383 0.255869C59.1999 0.723869 59.9009 1.82777 59.895 3.15137L59.9039 27.4976L36.9452 27.5062L29.8842 34.4623L59.9038 34.4803L59.9007 40.3153H38.5128H22.5122C21.3911 40.3143 20.2346 39.7469 19.7827 38.6153C19.261 37.3086 19.9719 35.965 20.8695 35.0504L32.4998 23.21C33.5996 22.1641 34.9032 21.5209 36.435 21.5209H54.1712L54.1826 9.19707L45.1547 18.4615C44.1526 19.4301 42.5715 19.923 41.3031 19.3629C40.2482 18.8967 39.4663 17.7 39.4673 16.4897L39.4744 8.87207L8.3301 40.3153H0L38.5821 1.31617C39.6711 0.143469 41.4863 -0.340431 42.9658 0.255669C44.1273 0.724069 44.8224 1.82767 44.8228 3.15137Z" fill="#212529"/>
<path fill-rule="evenodd" clip-rule="evenodd" d="M131.403 33.0459H135.794V35.5091C135.794 38.9505 133.922 40.6709 130.179 40.6709C128.493 40.6709 127.198 40.304 126.294 39.5704C125.176 38.6623 124.617 37.2123 124.617 35.221V26.7309C124.617 24.7574 125.176 23.316 126.294 22.4079C127.216 21.6564 128.511 21.281 130.179 21.281C131.988 21.281 133.328 21.6042 134.197 22.2506C135.261 23.0364 135.794 24.3728 135.794 26.2597V28.3032H131.403V25.7356C131.403 25.2987 131.314 24.9451 131.132 24.6741C130.955 24.4032 130.64 24.2683 130.192 24.2683C129.78 24.2683 129.482 24.4032 129.305 24.6741C129.123 24.9451 129.034 25.2987 129.034 25.7356V36.2163C129.034 36.6704 129.119 37.0286 129.292 37.2909C129.46 37.5527 129.762 37.6835 130.192 37.6835C130.64 37.6835 130.955 37.5487 131.132 37.2777C131.314 37.0068 131.403 36.6532 131.403 36.2163V33.0459Z" fill="#212529"/>
<path fill-rule="evenodd" clip-rule="evenodd" d="M123.412 40.304H119.793V25.0277L116.892 40.304H111.277V21.6478H114.896L114.905 34.9064L117.345 21.6478H123.412L123.412 40.304Z" fill="#212529"/>
<path fill-rule="evenodd" clip-rule="evenodd" d="M103.308 24.3205V29.2463H103.667H104.026C104.594 29.2463 104.984 29.1241 105.197 28.8795C105.499 28.5306 105.649 27.832 105.649 26.7838C105.649 25.8056 105.534 25.1678 105.304 24.8711C105.002 24.5036 104.337 24.3205 103.308 24.3205ZM103.308 31.8933V37.6313C103.414 37.6492 103.574 37.6578 103.787 37.6578C104.62 37.6578 105.161 37.3696 105.41 36.7926C105.57 36.4086 105.649 35.6664 105.649 34.566C105.649 33.3083 105.499 32.5304 105.197 32.2336C104.967 32.0063 104.337 31.8933 103.308 31.8933ZM98.8906 40.304V21.6478H103.361C106.288 21.6478 108.151 22.0146 108.949 22.7482C109.694 23.4296 110.067 24.5737 110.067 26.181C110.067 27.3687 109.863 28.2946 109.455 28.9582C108.958 29.7797 108.115 30.2423 106.927 30.3474V30.5305C108.222 30.5305 109.1 30.9673 109.561 31.8404C109.898 32.4696 110.067 33.5178 110.067 34.985C110.067 37.3603 109.535 38.889 108.47 39.5704C107.69 40.0595 105.986 40.304 103.361 40.304H98.8906Z" fill="#212529"/>
<path fill-rule="evenodd" clip-rule="evenodd" d="M91.2607 24.3205V30.4254H91.9528C92.6803 30.4254 93.1501 30.1987 93.3629 29.7447C93.5226 29.395 93.6025 28.6092 93.6025 27.3865C93.6025 26.4427 93.5669 25.8056 93.4965 25.4732C93.3367 24.7045 92.8219 24.3205 91.9528 24.3205H91.2607ZM91.2607 40.304H86.8438V21.6478H92.2454C94.1616 21.6478 95.563 21.9102 96.4496 22.4336C97.4966 23.0628 98.0202 24.1368 98.0202 25.6569V29.0633C98.0202 30.391 97.4966 31.4128 96.4496 32.1286C95.51 32.7749 94.3213 33.0981 92.8843 33.0981H91.2607V40.304Z" fill="#212529"/>
<path fill-rule="evenodd" clip-rule="evenodd" d="M85.7277 40.304H76.5742V21.6478H85.7277V24.4778H80.9912V28.5656H84.2256V31.395H80.9912V37.474H85.7277V40.304Z" fill="#212529"/>
<path fill-rule="evenodd" clip-rule="evenodd" d="M70.6918 33.0459H75.0826V35.5091C75.0826 38.9505 73.2107 40.6709 69.4676 40.6709C67.7823 40.6709 66.4876 40.304 65.5828 39.5704C64.4653 38.6623 63.9062 37.2123 63.9062 35.221V26.7309C63.9062 24.7574 64.4653 23.316 65.5828 22.4079C66.505 21.6564 67.8004 21.281 69.4676 21.281C71.2771 21.281 72.6167 21.6042 73.4859 22.2506C74.5504 23.0364 75.0826 24.3728 75.0826 26.2597V28.3032H70.6918V25.7356C70.6918 25.2987 70.6032 24.9451 70.4213 24.6741C70.2441 24.4032 69.9287 24.2683 69.481 24.2683C69.0689 24.2683 68.7716 24.4032 68.5944 24.6741C68.4125 24.9451 68.3232 25.2987 68.3232 25.7356V36.2163C68.3232 36.6704 68.4078 37.0286 68.581 37.2909C68.7494 37.5527 69.0508 37.6835 69.481 37.6835C69.9287 37.6835 70.2441 37.5487 70.4213 37.2777C70.6032 37.0068 70.6918 36.6532 70.6918 36.2163V33.0459Z" fill="#212529"/>
<path fill-rule="evenodd" clip-rule="evenodd" d="M110.727 15.3515C111.365 15.3515 111.778 15.1189 111.95 14.2656C112.073 13.6583 112.137 12.2657 112.137 10.0992V4.16094C112.147 1.67594 113.263 0.377945 115.592 0.381845H122.94V19.0381H118.523V3.21194H116.181V10.0992C116.181 12.4019 116.115 13.9623 115.995 14.7633C115.781 16.1948 115.308 17.2338 114.584 17.8815C113.75 18.6283 112.465 19.0083 110.727 19.0083V15.3515Z" fill="#212529"/>
<path fill-rule="evenodd" clip-rule="evenodd" d="M103.594 11.6226H105.191L104.419 3.31634L103.594 11.6226ZM101.891 0.381836H107.958L110.407 19.0381H106.016L105.51 14.4527H103.116L102.397 19.0381H98.6719L101.891 0.381836Z" fill="#212529"/>
<path fill-rule="evenodd" clip-rule="evenodd" d="M67.4173 19.0381H63.8789V0.381836H70.3845L72.247 13.645L74.1498 0.381836H80.5092V19.0381H76.5177V3.31634L73.9102 19.0381H70.0255L67.471 3.31634L67.4173 19.0381Z" fill="#212529"/>
<path fill-rule="evenodd" clip-rule="evenodd" d="M90.7551 19.0381H81.6016V0.381836H89.7054H90.7551H100.296V3.21194H97.2091V19.0381H92.7921V3.21194H90.7551H89.7054H86.0186V7.29964H89.253V10.129H86.0186V16.2081H90.7551V19.0381Z" fill="#212529"/>
<path fill-rule="evenodd" clip-rule="evenodd" d="M123.582 19.0083V15.3515C124.22 15.3515 124.634 15.1189 124.806 14.2656C124.928 13.6583 124.992 12.2657 124.992 10.0992V4.16094C125.003 1.67594 126.118 0.377945 128.447 0.381845H135.795V19.0381H131.378V3.21194H129.037V10.0992C129.037 12.4019 128.971 13.9623 128.851 14.7633C128.637 16.1948 128.164 17.2338 127.44 17.8815C126.606 18.6283 125.32 19.0083 123.582 19.0083Z" fill="#212529"/>
<path fill-rule="evenodd" clip-rule="evenodd" d="M144.236 0.995759C146.365 0.995759 148.084 2.71506 148.084 4.84416C148.084 6.97366 146.365 8.69266 144.236 8.69266C142.106 8.69266 140.387 6.97366 140.387 4.84416C140.387 2.71506 142.106 0.995759 144.236 0.995759ZM144.236 0.390259C146.697 0.390259 148.69 2.38286 148.69 4.84416C148.69 7.30576 146.697 9.29846 144.236 9.29846C141.774 9.29846 139.781 7.30576 139.781 4.84416C139.781 2.38286 141.774 0.390259 144.236 0.390259ZM143.291 2.95686H144.229C144.835 2.95686 145.343 3.05476 145.343 3.75806C145.343 4.08986 145.089 4.59786 144.229 4.59786H143.291V2.95686ZM142.256 7.43066H143.291V5.35966H144.053C145.792 5.35966 144.522 6.80536 145.343 7.43066H146.378C146.202 7.25486 146.202 6.90316 146.202 6.23886C146.202 5.78966 146.202 5.10586 145.44 5.10586V4.94956C146.202 4.69566 146.378 4.08986 146.378 3.75806C146.378 2.54676 145.245 2.27306 144.581 2.27306H142.256V7.43066Z" fill="#212529"/>
</svg>
