<svg width="142" height="37" viewBox="0 0 142 37" fill="none" xmlns="http://www.w3.org/2000/svg">
<path fill-rule="evenodd" clip-rule="evenodd" d="M131.096 36.3636H141.168L141.901 32.3268H136.694L139.018 19.543H134.156L131.096 36.3636ZM117.454 36.3636H127.873L128.609 32.3268H123.051L123.541 29.6344H128.576L129.25 25.9348H124.214L124.642 23.5799H130.199L130.933 19.543H120.515L117.454 36.3636ZM98.082 36.3636H102.944L104.169 29.6344H110.074L108.848 36.3636H113.711L116.771 19.543H111.909L110.807 25.5983H104.903L106.005 19.543H101.143L98.082 36.3636Z" fill="black"/>
<path fill-rule="evenodd" clip-rule="evenodd" d="M96.0424 30.8135C94.9877 31.7024 93.4035 32.6398 91.5916 32.6398C88.8136 32.6398 87.5149 30.6433 87.9777 28.0976C88.481 25.3338 90.6175 23.2668 93.2977 23.2668C95.1584 23.2668 96.3392 24.2755 97.0484 25.286L97.9364 20.4073C96.6483 19.4464 94.9552 19.0619 93.4181 19.0619C88.7047 19.0619 84.0157 22.3309 82.9935 27.9531C82.0135 33.3353 85.0956 36.8485 90.2562 36.8485C91.7437 36.8485 93.4213 36.6319 95.1729 35.5947L96.0424 30.8135Z" fill="black"/>
<path fill-rule="evenodd" clip-rule="evenodd" d="M68.5916 36.3636H79.0097L79.7448 32.3268H74.1881L74.6778 29.6344H79.7132L80.3865 25.9348H75.3511L75.7805 23.5799H81.3363L82.0706 19.543H71.6518L68.5916 36.3636ZM45.1758 36.3636H49.8388L52.9046 26.6071L54.0569 36.3636H57.183L61.8841 26.6071L61.3995 36.3636H66.0633L66.5936 19.543H61.7312L56.8129 29.8047L55.6281 19.543H50.7658L45.1758 36.3636Z" fill="black"/>
<path fill-rule="evenodd" clip-rule="evenodd" d="M12.7388 26.9542C11.6735 30.5248 8.81175 36.208 4.40408 36.4106C-0.79153 36.6491 -0.562195 30.5126 0.917743 26.204C7.4334 7.23115 26.1716 1.05622 38.2097 0.0314941C28.1982 4.51737 17.1797 12.0798 12.7388 26.9542Z" fill="#A8A8A8"/>
<path fill-rule="evenodd" clip-rule="evenodd" d="M27.3718 26.9542C26.3049 30.5248 23.4431 36.208 19.0354 36.4106C13.8407 36.6491 14.0715 30.5126 15.5499 26.204C22.0663 7.23115 40.8036 1.05622 52.8417 0.0314941C42.8319 4.51737 31.8128 12.0798 27.3718 26.9542Z" fill="#4793C4"/>
<path fill-rule="evenodd" clip-rule="evenodd" d="M42.1737 26.9219C41.1068 30.4942 38.2458 36.174 33.8373 36.38C28.6417 36.6185 28.8719 30.4804 30.351 26.1717C36.8681 7.19966 55.6047 1.0239 67.6437 0C57.6337 4.48571 46.6138 12.0474 42.1737 26.9219Z" fill="#1F1F20"/>
</svg>
