<svg width="140" height="49" viewBox="0 0 140 49" fill="none" xmlns="http://www.w3.org/2000/svg">
<mask id="mask0_1_3281" style="mask-type:luminance" maskUnits="userSpaceOnUse" x="0" y="0" width="140" height="49">
<path d="M140 0H0V48.0982H140V0Z" fill="white"/>
</mask>
<g mask="url(#mask0_1_3281)">
<path d="M130.015 4.16996C130.015 9.45904 130.32 15.6305 128.448 17.2151C128.189 17.4235 127.628 17.6576 126.693 17.4493L126.156 20.5362C126.883 20.7021 127.636 20.711 128.367 20.5623C129.097 20.4137 129.787 20.1109 130.39 19.6745C132.893 17.7862 133.102 12.384 133.102 7.11805H136.868L136.814 20.4462H139.914V4.15967L130.015 4.16996Z" fill="#008CFF"/>
<path d="M114.293 4.16992C114.293 9.45902 114.598 15.6304 112.725 17.2151C112.467 17.4235 111.906 17.6576 110.971 17.4492L110.434 20.5362C111.16 20.702 111.914 20.711 112.644 20.5623C113.374 20.4136 114.064 20.1109 114.667 19.6744C117.171 17.7862 117.379 12.3839 117.379 7.11801H121.159L121.133 20.4641H124.233L124.109 4.16992H114.293Z" fill="#008CFF"/>
<path d="M103.514 4.16992H100.331L94.3438 20.477H97.8747L99.3571 16.2093H104.485L105.968 20.477H109.499L103.514 4.16992ZM100.177 13.8426L101.923 8.81845L103.669 13.8426H100.177Z" fill="#008CFF"/>
<path d="M87.7695 20.4668H90.8822V9.56445H87.7695V20.4668Z" fill="#008CFF"/>
<path d="M83.3477 4.15967V7.1412H95.2769V4.15967H83.3477Z" fill="#008CFF"/>
<path d="M81.5937 4.15967H70.8555V7.1412H81.5937V4.15967Z" fill="#008CFF"/>
<path d="M80.8679 10.8457H70.8555V13.8041H80.8679V10.8457Z" fill="#008CFF"/>
<path d="M70.8555 17.5085V20.4669H81.7332V17.5085H70.8555Z" fill="#008CFF"/>
<path d="M68.0729 4.02063L60.2382 12.6385L52.4009 4.02063H52.2148V20.4666H55.325V11.661L60.1219 16.8086H60.3312L65.1746 11.661V20.4666H68.2848V4.02063H68.0729Z" fill="#008CFF"/>
<path d="M131.809 44.0361H135.203V32.1434H131.809V44.0361Z" fill="black"/>
<path d="M126.984 26.2474V29.499H139.998V26.2474H126.984Z" fill="black"/>
<path d="M121.449 26.2474L121.452 33.7617H124.846L124.844 26.2474H121.449Z" fill="black"/>
<path d="M114.25 33.5405V26.2474H110.855V36.769H121.447V44.0363H124.841V33.5405H114.25Z" fill="black"/>
<path d="M110.855 44.0361H114.25L114.281 36.5295H110.886L110.855 44.0361Z" fill="black"/>
<path d="M102.666 26.2474H99.2046L92.6641 44.044H96.5179L98.3079 38.899H103.555L105.345 44.044H109.199L102.666 26.2474ZM99.1118 36.5657L100.92 31.3306L102.728 36.5657H99.1118Z" fill="black"/>
<path d="M87.737 26.2474H81.1211V29.499H87.6537C89.3637 29.499 90.4356 30.5666 90.4356 32.0921C90.4356 33.6176 89.3637 34.711 87.6537 34.711H81.1211V44.044H84.5154V37.9369H87.7318C91.712 37.9369 93.9313 35.3438 93.9313 32.0921C93.9313 28.8405 91.712 26.2474 87.7318 26.2474H87.737Z" fill="black"/>
<path d="M72.9356 26.2474H69.4664L62.9336 44.044H66.7851L68.5649 38.9196H73.8345L75.6143 44.044H79.4685L72.9356 26.2552V26.2474ZM69.3708 36.5837L71.1997 31.3178L73.0312 36.5837H69.3708Z" fill="black"/>
<path d="M52.2278 44.026H55.6221L55.5239 29.5145L61.9147 29.4759V26.2474L52.2227 26.3297L52.2278 44.026Z" fill="black"/>
<path fill-rule="evenodd" clip-rule="evenodd" d="M7.38011 20.2662L7.38528 34.4639L17.5397 40.8797L28.0144 34.2401L28.0041 28.8404L17.6689 35.3669L17.674 26.7643L35.33 15.5765L35.3326 36.828L17.5088 48.0982L0 36.9901L0.0103327 15.6177L7.38011 20.2662Z" fill="black"/>
<path fill-rule="evenodd" clip-rule="evenodd" d="M17.6538 11.1373L35.2142 0.0704028L35.3252 0.427981L35.3278 11.8808L28.0252 16.4881L28.0174 13.0667L17.6125 19.5726L7.37532 13.0821L7.36757 16.5062L0.046875 11.8705L0.0494581 0.417691V0.0446777L17.6538 11.1373Z" fill="#008CFF"/>
<path fill-rule="evenodd" clip-rule="evenodd" d="M34.9062 0.264968L35.3221 0.676569L35.3247 0.370441V0L34.9062 0.264968Z" fill="#008CFF"/>
</g>
</svg>
