<svg width="16" height="16" viewBox="0 0 16 16" fill="none" xmlns="http://www.w3.org/2000/svg">
<path opacity="0.2" d="M8 0C3.57895 0 0 3.57895 0 8C0 12.4211 3.57895 16 8 16C12.4211 16 16 12.4211 16 8C16 3.57895 12.4035 0 8 0ZM8.7193 12.1404C8.50877 12.3333 8.24561 12.4211 7.92982 12.4211C7.61404 12.4211 7.35088 12.3333 7.14035 12.1404C6.92982 11.9474 6.82456 11.7018 6.82456 11.4211C6.82456 11.1228 6.92982 10.8772 7.14035 10.7018C7.35088 10.5088 7.61404 10.4211 7.92982 10.4211C8.24561 10.4211 8.50877 10.5088 8.7193 10.7018C8.92982 10.8947 9.03509 11.1404 9.03509 11.4211C9.03509 11.7193 8.92982 11.9649 8.7193 12.1404ZM10.5965 6.82456C10.4737 7.08772 10.2456 7.36842 9.96491 7.64912L9.2807 8.2807C9.08772 8.47368 8.94737 8.66667 8.87719 8.85965C8.80702 9.05263 8.75439 9.29825 8.75439 9.61403H7.05263C7.05263 9.03509 7.12281 8.57895 7.24561 8.24561C7.36842 7.91228 7.59649 7.61404 7.87719 7.36842C8.17544 7.12281 8.40351 6.89474 8.54386 6.68421C8.70175 6.47368 8.77193 6.24561 8.77193 6C8.77193 5.40351 8.50877 5.10526 8 5.10526C7.75439 5.10526 7.5614 5.19298 7.42105 5.36842C7.2807 5.54386 7.19298 5.77193 7.19298 6.07018H5.17544C5.17544 5.2807 5.4386 4.64912 5.92982 4.21053C6.42105 3.77193 7.12281 3.54386 8 3.54386C8.89474 3.54386 9.57895 3.75439 10.0702 4.1579C10.5614 4.5614 10.807 5.1579 10.807 5.91228C10.807 6.24561 10.7368 6.54386 10.5965 6.82456Z" fill="#212529"/>
</svg>
