<svg width="9" height="8" viewBox="0 0 9 8" fill="none" xmlns="http://www.w3.org/2000/svg">
<path d="M8.90437 3.32858L6.9322 5.12189L7.39794 7.65475C7.4182 7.7655 7.36944 7.87743 7.27192 7.94359C7.21683 7.9811 7.1513 8 7.08576 8C7.03542 8 6.98476 7.98878 6.93853 7.96604L4.5 6.7702L2.06178 7.96574C1.9554 8.01831 1.82591 8.00975 1.72839 7.94329C1.63088 7.87714 1.58212 7.7652 1.60238 7.65445L2.06811 5.1216L0.0956314 3.32858C0.00951336 3.25002 -0.0218311 3.13247 0.015529 3.02585C0.052889 2.91923 0.151988 2.84097 0.27135 2.82472L2.99705 2.45555L4.216 0.151289C4.3227 -0.0504296 4.6773 -0.0504296 4.784 0.151289L6.00295 2.45555L8.72865 2.82472C8.84801 2.84097 8.94711 2.91894 8.98447 3.02585C9.02183 3.13277 8.99049 3.24972 8.90437 3.32858Z" fill="#37A71A"/>
</svg>
