<svg width="18" height="16" viewBox="0 0 18 16" fill="none" xmlns="http://www.w3.org/2000/svg">
<path d="M17.7945 4.19797L13.6408 0.197895C13.5036 0.0659284 13.3412 0 13.1538 0C13.0676 0 12.9772 0.0173669 12.8836 0.0519912C12.6022 0.170093 12.4616 0.374957 12.4616 0.666618V2.66676H10.7307C9.96636 2.66676 9.25766 2.70496 8.60515 2.78133C7.95256 2.85765 7.37742 2.9635 6.87984 3.09904C6.38222 3.23433 5.93328 3.40281 5.53303 3.60421C5.13285 3.80554 4.79213 4.01912 4.51081 4.24485C4.22945 4.47055 3.98253 4.72755 3.76979 5.01574C3.55694 5.3039 3.38758 5.58684 3.26126 5.86464C3.13517 6.14251 3.03423 6.44804 2.95846 6.78133C2.8826 7.11469 2.83217 7.42715 2.80694 7.71874C2.78171 8.0104 2.76909 8.32647 2.76909 8.66658C2.76909 9.05562 2.83229 9.47914 2.95846 9.93765C3.08466 10.3959 3.22348 10.7917 3.37492 11.1251C3.52632 11.4582 3.70489 11.8038 3.91043 12.1613C4.11594 12.519 4.25832 12.7567 4.33766 12.8748C4.41696 12.9927 4.49281 13.1005 4.56487 13.1977C4.63698 13.288 4.73071 13.3331 4.84604 13.3331C4.87503 13.3331 4.9181 13.3263 4.97588 13.3123C5.14172 13.2359 5.21378 13.118 5.19215 12.9582C4.86768 10.6249 5.13456 8.98236 5.99265 8.03105C6.8221 7.12133 8.40139 6.6664 10.7306 6.6664H12.4616V8.66636C12.4616 8.95828 12.6021 9.16303 12.8835 9.28117C12.9771 9.31587 13.0673 9.33313 13.1537 9.33313C13.3484 9.33313 13.5108 9.2672 13.6407 9.13534L17.7945 5.13523C17.9314 5.00319 18 4.84707 18 4.66651C18 4.48609 17.9313 4.32972 17.7945 4.19797Z" fill="#2764E0"/>
<path d="M15.0035 9.99993C14.8662 9.94414 14.7402 9.97209 14.6249 10.0832C14.4375 10.2499 14.2426 10.3785 14.0407 10.4687C13.9106 10.538 13.8459 10.6387 13.8459 10.7706V13C13.8459 13.4583 13.6767 13.8504 13.3376 14.177C12.9987 14.5034 12.5911 14.6666 12.1152 14.6666H3.11524C2.63921 14.6666 2.23176 14.5034 1.89281 14.177C1.55383 13.8504 1.38443 13.4584 1.38443 13V4.33318C1.38443 3.87482 1.55383 3.48261 1.89281 3.15621C2.23172 2.82978 2.63917 2.66665 3.11524 2.66665H4.32679C4.37002 2.66665 4.42779 2.65268 4.49986 2.62495C4.90375 2.38878 5.38314 2.18038 5.93855 1.99985C6.12605 1.96519 6.21979 1.85413 6.21979 1.66653C6.21979 1.57626 6.18558 1.49829 6.11704 1.43218C6.0485 1.36636 5.96753 1.33338 5.87368 1.33338H3.11539C2.25722 1.33338 1.52341 1.62679 0.914013 2.21358C0.304696 2.80034 0 3.50698 0 4.33336V12.9999C0 13.8263 0.304696 14.5329 0.914051 15.1198C1.52344 15.7066 2.25726 16 3.11543 16H12.1154C12.9735 16 13.7074 15.7066 14.3167 15.1198C14.9262 14.5329 15.2309 13.8264 15.2309 12.9999V10.302C15.2308 10.1631 15.1551 10.0625 15.0035 9.99993Z" fill="#2764E0"/>
</svg>
