<svg width="20" height="20" viewBox="0 0 20 20" fill="none" xmlns="http://www.w3.org/2000/svg">
<path d="M13.9369 8.90189C13.8765 7.70386 12.9532 6.71436 11.8226 6.71436C10.7103 6.71436 9.83763 8.03045 9.83763 8.03045C9.83763 8.03045 9.83755 8.03038 9.83748 8.03018C9.83736 8.03038 9.83732 8.03045 9.83732 8.03045C9.83732 8.03045 8.96463 6.71436 7.85233 6.71436C6.72172 6.71436 5.7985 7.70386 5.73809 8.90189C5.70392 9.57872 5.90894 10.0917 6.19923 10.5603C6.78194 11.5006 9.83492 13.6575 9.83748 13.6554C9.84003 13.6575 12.893 11.5006 13.4757 10.5603C13.766 10.0917 13.971 9.57868 13.9369 8.90189Z" stroke="#2764E0" stroke-width="1.3" stroke-miterlimit="10" stroke-linecap="round" stroke-linejoin="round"/>
<path d="M18.1701 12.7785C19.2648 9.6709 18.5696 6.07338 16.0842 3.58805C12.6335 0.137317 7.03878 0.137317 3.58805 3.58805C0.137317 7.03878 0.137317 12.6335 3.58805 16.0842C7.03852 19.5347 12.6326 19.535 16.0834 16.085L19 19" stroke="#2764E0" stroke-width="1.3" stroke-miterlimit="10" stroke-linecap="round" stroke-linejoin="round"/>
</svg>
