<svg width="14" height="14" viewBox="0 0 14 14" fill="none" xmlns="http://www.w3.org/2000/svg">
<path fill-rule="evenodd" clip-rule="evenodd" d="M7.25516 1.56838L8.88785 1.04041C9.07498 0.979667 9.27764 0.987615 9.45943 1.06283C9.64123 1.13804 9.79027 1.27559 9.87979 1.45078L10.6597 2.97948C10.7397 3.13467 10.8653 3.26107 11.0205 3.33946L12.53 4.11141C12.9028 4.301 13.082 4.73457 12.9532 5.13295L12.4308 6.74564C12.378 6.91123 12.378 7.08962 12.4308 7.25521L12.9596 8.8879C13.0203 9.07503 13.0124 9.27769 12.9372 9.45949C12.862 9.64128 12.7244 9.79032 12.5492 9.87984L11.0205 10.6598C10.8657 10.739 10.7397 10.8649 10.6605 11.0198L9.87899 12.5493C9.6942 12.9108 9.27423 13.0852 8.88705 12.9596L7.25516 12.4309C7.08925 12.3773 6.91069 12.3773 6.74479 12.4309L5.1121 12.9588C4.92516 13.0194 4.72277 13.0115 4.54116 12.9364C4.35955 12.8614 4.21059 12.7241 4.12096 12.5493L3.34021 11.0206C3.26114 10.8654 3.13517 10.7392 2.98023 10.6598L1.45073 9.87824C1.2756 9.78887 1.13807 9.63998 1.06286 9.45831C0.98764 9.27665 0.979663 9.07412 1.04036 8.8871L1.56912 7.25441C1.62272 7.08882 1.62272 6.91043 1.56912 6.74484L1.04116 5.11295C0.980584 4.92581 0.988613 4.72322 1.06381 4.54146C1.139 4.3597 1.27645 4.21066 1.45153 4.12101L2.97943 3.34026C3.13471 3.26141 3.26102 3.13539 3.34021 2.98028L4.12176 1.45078C4.30575 1.09001 4.72652 0.915618 5.1129 1.04041L6.74559 1.56838C6.91038 1.62277 7.08957 1.62277 7.25516 1.56838Z" fill="#2764E0" stroke="#2764E0" stroke-width="1.66667" stroke-linecap="round" stroke-linejoin="round"/>
<path fill-rule="evenodd" clip-rule="evenodd" d="M9.23865 4.97484C9.31184 4.88873 9.41477 4.83333 9.52696 4.81969C9.63914 4.80605 9.75235 4.83517 9.84404 4.90124C9.93573 4.9673 9.99918 5.06548 10.0217 5.17622C10.0443 5.28696 10.0243 5.40213 9.9658 5.49881L9.91781 5.56521L6.79241 9.16497C6.72187 9.24612 6.62463 9.29936 6.51826 9.31505C6.41189 9.33075 6.30342 9.30788 6.21244 9.25057L6.14685 9.19937L3.8726 7.08991C3.79107 7.01326 3.741 6.90901 3.73213 6.79746C3.72326 6.68592 3.75624 6.57507 3.82463 6.4865C3.89303 6.39794 3.99194 6.33801 4.1021 6.31839C4.21227 6.29876 4.32579 6.32085 4.42056 6.38035L4.48456 6.42995L6.41803 8.22343L9.23865 4.97484Z" fill="white"/>
</svg>
